{"glyphs":{"0":{"ha":110,"x_min":0,"x_max":0,"o":""},"1":{"ha":-225,"x_min":0,"x_max":0,"o":"m 293 -115 l 439 -115 l 439 997 l 63 997 l 63 869 l 293 869 z "},"2":{"ha":58,"x_min":0,"x_max":0,"o":"m 68 -115 l 842 -115 l 842 11 l 278 11 l 569 297 l 736 468 l 804 569 l 410 174 z "},"3":{"ha":61,"x_min":0,"x_max":0,"o":"m 454 -140 b 846 188 688 -140 846 1 b 618 450 846 342 731 429 b 817 706 721 475 817 569 b 439 1024 817 881 668 1024 b 61 675 211 1024 61 871 l 207 675 b 439 899 207 793 289 899 b 672 701 586 899 672 810 b 435 506 672 586 576 506 l 313 506 l 313 385 l 435 385 b 703 186 603 385 703 311 b 454 -14 703 75 610 -14 b 204 199 297 -14 208 79 l 60 199 b 454 -140 68 4 215 -140 z "},"4":{"ha":93,"x_min":0,"x_max":0,"o":"m 597 -115 l 69 -853 l 69 -976 l 631 -976 z m 219 -853 l 631 -275 l 631 -853 z "},"5":{"ha":0,"x_min":0,"x_max":0,"o":""},"6":{"ha":0,"x_min":0,"x_max":0,"o":""},"7":{"ha":1,"x_min":0,"x_max":0,"o":"m 188 -115 l 342 -115 l 808 900 l 808 997 l 46 997 l 46 869 l 640 869 z "},"8":{"ha":60,"x_min":0,"x_max":0,"o":"m 457 -140 b 850 176 689 -140 850 -10 b 617 461 850 344 718 438 b 811 719 703 488 811 578 b 457 1024 811 885 668 1024 b 101 719 244 1024 101 886 b 296 461 101 578 210 488 b 63 176 196 438 63 344 b 457 -140 63 -10 224 -140 z m 457 526 b 242 718 331 526 242 611 b 457 901 242 821 326 901 b 672 715 588 901 672 818 b 457 526 672 610 583 526 z m 457 -18 b 204 185 303 -18 204 69 b 457 392 204 301 311 392 b 708 185 601 392 708 301 b 457 -18 708 69 610 -18 z "},"9":{"ha":0,"x_min":0,"x_max":0,"o":""},"\u0000":{"ha":-464,"x_min":0,"x_max":0,"o":""},"\u0001":{"ha":-464,"x_min":0,"x_max":0,"o":""},"\u0002":{"ha":-464,"x_min":0,"x_max":0,"o":""},"\u0003":{"ha":-464,"x_min":0,"x_max":0,"o":""},"\u0004":{"ha":-464,"x_min":0,"x_max":0,"o":""},"\u0005":{"ha":-464,"x_min":0,"x_max":0,"o":""},"\u0006":{"ha":-464,"x_min":0,"x_max":0,"o":""},"\u0007":{"ha":-464,"x_min":0,"x_max":0,"o":""},"\b":{"ha":-464,"x_min":0,"x_max":0,"o":""},"\t":{"ha":-464,"x_min":0,"x_max":0,"o":""},"\n":{"ha":-464,"x_min":0,"x_max":0,"o":""},"\u000b":{"ha":-464,"x_min":0,"x_max":0,"o":""},"\f":{"ha":-464,"x_min":0,"x_max":0,"o":""},"\r":{"ha":-464,"x_min":0,"x_max":0,"o":""},"\u000e":{"ha":-464,"x_min":0,"x_max":0,"o":""},"\u000f":{"ha":-464,"x_min":0,"x_max":0,"o":""},"\u0010":{"ha":-464,"x_min":0,"x_max":0,"o":""},"\u0011":{"ha":-464,"x_min":0,"x_max":0,"o":""},"\u0012":{"ha":-464,"x_min":0,"x_max":0,"o":""},"\u0013":{"ha":-464,"x_min":0,"x_max":0,"o":""},"\u0014":{"ha":-464,"x_min":0,"x_max":0,"o":""},"\u0015":{"ha":-464,"x_min":0,"x_max":0,"o":""},"\u0016":{"ha":-464,"x_min":0,"x_max":0,"o":""},"\u0017":{"ha":-464,"x_min":0,"x_max":0,"o":""},"\u0018":{"ha":-464,"x_min":0,"x_max":0,"o":""},"\u0019":{"ha":-464,"x_min":0,"x_max":0,"o":""},"\u001a":{"ha":-464,"x_min":0,"x_max":0,"o":""},"\u001b":{"ha":-464,"x_min":0,"x_max":0,"o":""},"\u001c":{"ha":-464,"x_min":0,"x_max":0,"o":""},"\u001d":{"ha":-464,"x_min":0,"x_max":0,"o":""},"\u001e":{"ha":-464,"x_min":0,"x_max":0,"o":""},"\u001f":{"ha":-464,"x_min":0,"x_max":0,"o":""}," ":{"ha":-464,"x_min":0,"x_max":0,"o":""},"!":{"ha":-492,"x_min":0,"x_max":0,"o":"m 128 193 l 233 193 l 269 997 l 93 997 z m 181 -137 "},"\"":{"ha":-326,"x_min":0,"x_max":0,"o":"m 199 732 z m 542 732 z "},"#":{"ha":0,"x_min":0,"x_max":0,"o":""},"$":{"ha":117,"x_min":0,"x_max":0,"o":"m 906 199 b 549 450 906 351 800 450 b 663 451 679 450 663 529 b 438 382 663 463 571 393 z "},"%":{"ha":501,"x_min":0,"x_max":0,"o":"m 340 496 z m 242 -115 l 401 -115 l 401 0 l 515 0 l 515 151 l 667 151 l 667 36 l 781 36 l 781 -124 l 917 -124 l 1651 989 l 1515 989 "},"&":{"ha":0,"x_min":0,"x_max":0,"o":""},"'":{"ha":-562,"x_min":0,"x_max":0,"o":"m 199 732 z "},"(":{"ha":-356,"x_min":0,"x_max":0,"o":"m 313 -169 l 467 -169 b 196 450 307 -7 196 204 b 467 1069 196 696 307 907 l 313 1069 b 54 450 158 903 54 703 b 313 -169 54 197 158 -3 z "},")":{"ha":0,"x_min":0,"x_max":0,"o":""},"*":{"ha":0,"x_min":0,"x_max":0,"o":""},"+":{"ha":-31,"x_min":0,"x_max":0,"o":"m 738 501 l 479 501 z "},",":{"ha":-517,"x_min":0,"x_max":0,"o":"m 260 58 l 121 58 l 76 -256 l 190 -256 z "},"-":{"ha":-211,"x_min":0,"x_max":0,"o":"m 564 481 l 78 481 l 78 356 l 564 356 z "},".":{"ha":0,"x_min":0,"x_max":0,"o":""},"/":{"ha":-114,"x_min":0,"x_max":0,"o":"m 188 -208 l 696 1090 l 551 1090 l 43 -208 z "},":":{"ha":-496,"x_min":0,"x_max":0,"o":"m 179 814 b 82 717 124 814 82 771 b 179 619 82 663 124 619 z m 179 67 z "},";":{"ha":-496,"x_min":0,"x_max":0,"o":"m 179 814 b 82 717 124 814 82 771 b 179 619 82 663 124 619 z m 190 -253 l 258 57 l 118 57 l 76 -253 z "},"<":{"ha":-62,"x_min":0,"x_max":0,"o":"m 72 522 l 72 382 l 700 -10 l 700 139 l 197 453 l 700 768 l 700 915 z "},"=":{"ha":-11,"x_min":0,"x_max":0,"o":"m 726 696 l 115 696 l 115 574 l 726 574 z m 726 307 l 115 307 l 115 185 l 726 185 z "},">":{"ha":-62,"x_min":0,"x_max":0,"o":"m 90 -10 l 718 382 l 718 522 l 90 915 l 90 768 l 593 453 l 90 139 z "},"?":{"ha":22,"x_min":0,"x_max":0,"o":"m 363 193 l 499 193 b 640 467 499 304 517 382 b 794 721 742 539 794 621 b 442 1025 794 894 667 1025 b 81 699 229 1025 85 876 l 222 699 b 443 899 226 794 299 899 b 654 721 576 899 654 828 b 515 526 654 644 608 593 b 363 193 396 444 363 354 z m 433 -137 b 536 -35 492 -137 536 -93 b 433 67 536 22 492 67 b 332 -35 376 67 332 22 b 433 -137 332 -93 376 -137 z "},"@":{"ha":0,"x_min":0,"x_max":0,"o":""},"A":{"ha":0,"x_min":0,"x_max":0,"o":""},"B":{"ha":226,"x_min":0,"x_max":0,"o":"m 119 997 l 119 -115 l 615 -115 b 788 114 715 -92 788 10 b 403 422 788 304 649 422 z m 399 -68 l 94 -68 l 94 296 l 399 296 b 640 114 553 296 640 232 b 399 -68 640 -4 553 -68 z m 440 -564 l 94 -564 l 94 -189 l 440 -189 "},"C":{"ha":0,"x_min":0,"x_max":0,"o":""},"D":{"ha":339,"x_min":0,"x_max":0,"o":"m 119 997 l 119 -115 l 514 -115 "},"E":{"ha":138,"x_min":0,"x_max":0,"o":"m 119 997 l 119 -115 l 922 -115 l 922 14 l 265 14 l 265 389 l 861 389 l 861 518 l 265 518 l 265 868 l 910 868 l 910 997 z "},"F":{"ha":81,"x_min":0,"x_max":0,"o":"m 119 997 l 119 -115 l 265 -115 l 265 358 l 836 358 l 836 489 l 265 488 l 265 867 l 897 867 l 897 997 z "},"G":{"ha":0,"x_min":0,"x_max":0,"o":""},"H":{"ha":324,"x_min":0,"x_max":0,"o":"m 911 997 l 911 521 l 265 521 l 265 997 l 119 997 l 119 -115 l 265 -115 l 265 388 l 911 388 l 911 -115 l 1057 -115 l 1057 997 z "},"I":{"ha":-468,"x_min":0,"x_max":0,"o":"m 265 997 l 119 997 l 119 -115 l 265 -115 z "},"J":{"ha":133,"x_min":0,"x_max":0,"o":"m 182 240 l 182 963 l 35 963 l 35 240 b -244 -42 35 71 -69 -42 b -521 206 -419 -42 -517 72 z "},"K":{"ha":0,"x_min":0,"x_max":0,"o":""},"L":{"ha":68,"x_min":0,"x_max":0,"o":"m 265 997 l 119 997 l 119 -115 l 876 -115 l 876 17 l 265 17 z "},"M":{"ha":499,"x_min":0,"x_max":0,"o":"m 119 997 l 119 -115 l 265 -115 l 265 706 l -164 1461 z "},"N":{"ha":342,"x_min":0,"x_max":0,"o":"m 119 997 l 119 -115 l 265 -115 l 265 758 l 939 -108 l 1076 -108 l 1076 1004 l 929 1004 l 929 131 l 256 997 z "},"O":{"ha":464,"x_min":0,"x_max":0,"o":"m 658 -140 b 1244 442 996 -140 1244 106 b 657 1024 1244 778 994 1024 b 408 1028 319 1024 71 1274 z m 408 1161 b 408 713 154 1161 408 900 b NaN NaN 408 525 156 NaN z "},"P":{"ha":161,"x_min":0,"x_max":0,"o":"m 119 997 l 119 -115 l 265 -115 l 265 225 l 514 225 b 972 611 803 225 972 379 b 514 997 972 843 803 997 z m 503 357 l 265 357 l 265 865 l 503 865 b 826 611 704 865 826 776 b 503 357 826 446 704 357 z "},"Q":{"ha":464,"x_min":0,"x_max":0,"o":"m 1244 442 b 657 1024 1244 778 994 1024 b 71 1028 319 1024 71 1274 b 200 1463 71 1365 176 1463 b 328 NaN 244 1463 328 NaN l 488 NaN l 601 NaN l 446 NaN b 628 NaN 560 NaN 628 NaN z m 42 NaN b 42 NaN -212 NaN 42 NaN b NaN NaN 42 NaN -36 NaN l NaN NaN l NaN NaN l NaN NaN b NaN NaN NaN NaN NaN NaN z "},"R":{"ha":207,"x_min":0,"x_max":0,"o":"m 1024 -115 l 744 310 b 951 415 897 310 951 394 b 974 438 951 436 953 438 l 1226 42 z m 900 565 l 640 565 l 640 1024 l 900 1024 b 1211 794 1093 1024 1211 944 b 900 565 1211 644 1093 565 z "},"S":{"ha":185,"x_min":0,"x_max":0,"o":"m 529 1024 b 101 726 283 1024 101 911 b 481 399 101 542 229 451 b 824 174 722 347 824 297 b 539 -14 824 63 706 -14 b 217 217 353 -14 232 82 l 67 217 b 529 -140 82 1 269 -140 b 314 NaN 256 -140 314 NaN b -26 NaN 76 NaN -26 NaN b 247 NaN -26 NaN 72 NaN b 543 NaN 421 NaN 528 NaN l 693 NaN b 254 NaN 679 NaN 499 NaN z "},"T":{"ha":197,"x_min":0,"x_max":0,"o":"m 997 867 l 997 997 l 53 997 l 53 867 l 453 867 l 453 -115 l 599 -115 l 599 867 z "},"U":{"ha":326,"x_min":0,"x_max":0,"o":"m 104 997 l 104 364 b 590 -142 104 58 294 -142 b 1075 364 885 -142 1075 58 l 1075 997 l 929 997 l 929 364 b 590 -8 929 140 801 -8 b 250 364 379 -8 250 140 l 250 997 z "},"V":{"ha":0,"x_min":0,"x_max":0,"o":""},"W":{"ha":726,"x_min":0,"x_max":0,"o":"m 1397 997 l 1133 103 l 869 997 l 714 997 l 451 106 l 188 997 l 36 997 l 374 -115 l 521 -115 l 790 772 l 1058 -115 l 1206 -115 l 1544 997 z "},"X":{"ha":199,"x_min":0,"x_max":0,"o":"m 432 447 l 256 447 z "},"Y":{"ha":0,"x_min":0,"x_max":0,"o":""},"Z":{"ha":146,"x_min":0,"x_max":0,"o":"m 68 -14 l 68 618 z "},"[":{"ha":-357,"x_min":0,"x_max":0,"o":"m 78 1069 l 78 -169 l 458 -169 l 458 -49 l 215 -49 l 215 949 l 458 949 l 458 1069 z "},"\\":{"ha":0,"x_min":0,"x_max":0,"o":""},"]":{"ha":-357,"x_min":0,"x_max":0,"o":"m 38 -169 l 418 -169 l 418 1069 l 38 1069 l 38 949 l 281 949 l 281 -49 l 38 -49 z "},"^":{"ha":-169,"x_min":0,"x_max":0,"o":"m 276 985 l 50 636 l 185 636 l 185 768 l -42 1117 z "},"_":{"ha":-169,"x_min":0,"x_max":0,"o":"m 619 -200 l 64 -200 l 64 -319 l 619 -319 z "},"`":{"ha":-332,"x_min":0,"x_max":0,"o":"m 447 847 l 257 1092 l 88 1092 l 306 847 z "},"a":{"ha":0,"x_min":0,"x_max":0,"o":""},"b":{"ha":0,"x_min":0,"x_max":0,"o":""},"c":{"ha":0,"x_min":0,"x_max":0,"o":""},"d":{"ha":0,"x_min":0,"x_max":0,"o":""},"e":{"ha":0,"x_min":0,"x_max":0,"o":""},"f":{"ha":-314,"x_min":0,"x_max":0,"o":"m 513 679 l 336 679 l 336 810 b 431 913 336 875 372 913 b 499 908 451 913 479 913 l 499 1029 b 406 1038 474 1035 440 1038 b 193 814 269 1038 193 946 l 193 679 l 36 679 l 36 553 l 193 553 l 193 -115 l 336 -115 l 336 553 l 513 553 z "},"g":{"ha":0,"x_min":0,"x_max":0,"o":""},"h":{"ha":86,"x_min":0,"x_max":0,"o":"m 113 1032 l 113 -115 l 256 -115 l 256 296 l 256 769 z "},"i":{"ha":-485,"x_min":0,"x_max":0,"o":"m 183 1046 z m 256 -117 l 256 679 l 113 679 l 113 -117 z "},"j":{"ha":0,"x_min":0,"x_max":0,"o":"b -301 204 -485 0 -301 128 b NaN NaN -301 290 -172 NaN l NaN NaN l NaN NaN l NaN NaN l NaN NaN "},"k":{"ha":0,"x_min":0,"x_max":0,"o":"l 0 1 l 675 1 l 675 779 l 532 779 l 532 -368 l 675 -368 l 675 -169 l 832 -4 "},"l":{"ha":-485,"x_min":0,"x_max":0,"o":"m 256 -115 l 256 1032 l 113 1032 l 113 -115 z "},"m":{"ha":556,"x_min":0,"x_max":0,"o":"m 113 679 l 113 -115 l 256 -115 l 256 314 b 461 574 256 457 343 574 b 643 339 572 574 643 488 l 643 -115 l 786 -115 l 786 313 b 992 574 786 457 872 574 b 1174 344 1104 574 1174 488 l 1174 -115 l 1317 -115 l 1317 368 b 1025 699 1317 569 1194 699 b 743 532 890 699 790 632 b 496 699 704 633 614 699 b 256 567 363 699 292 625 l 256 679 z "},"n":{"ha":82,"x_min":0,"x_max":0,"o":"m 113 679 l 113 -115 l 256 -115 l 256 296 l 256 417 z "},"o":{"ha":101,"x_min":0,"x_max":0,"o":"m 478 699 b 71 282 242 699 71 521 b 478 -135 71 43 242 -135 b 649 -128 713 -135 883 -306 z m 649 -254 b 914 -544 806 -254 914 -379 b 649 -835 914 -710 806 -835 b 382 -544 490 -835 382 -710 b 649 -254 382 -379 490 -254 z "},"p":{"ha":0,"x_min":0,"x_max":0,"o":""},"q":{"ha":0,"x_min":0,"x_max":0,"o":""},"r":{"ha":-174,"x_min":0,"x_max":0,"o":"m 113 679 l 113 -115 l 256 -115 l 256 296 l 256 418 z "},"s":{"ha":0,"x_min":0,"x_max":0,"o":""},"t":{"ha":-289,"x_min":0,"x_max":0,"o":"m 529 679 l 353 679 l 353 921 l 210 921 l 210 679 l 33 679 l 33 553 l 210 553 l 210 -115 l 353 -115 l 353 553 l 529 553 z "},"u":{"ha":86,"x_min":0,"x_max":0,"o":"m 826 -115 l 826 679 l 683 679 l 683 268 l 683 147 z "},"v":{"ha":0,"x_min":0,"x_max":0,"o":""},"w":{"ha":0,"x_min":0,"x_max":0,"o":""},"x":{"ha":24,"x_min":0,"x_max":0,"o":"m 346 288 l 25 -115 l 190 -115 l 433 192 l 676 -115 l 851 -115 l 526 -115 l 526 290 l 351 290 z "},"y":{"ha":0,"x_min":0,"x_max":0,"o":""},"z":{"ha":0,"x_min":0,"x_max":0,"o":""},"{":{"ha":-301,"x_min":0,"x_max":0,"o":"m 503 -169 l 503 -49 b 317 111 383 -49 317 3 l 317 260 b 181 450 317 354 283 426 b 317 640 283 474 317 546 l 317 789 "},"|":{"ha":-506,"x_min":0,"x_max":0,"o":"m 115 1075 l 115 -175 l 232 -175 l 232 1075 z "},"}":{"ha":0,"x_min":0,"x_max":0,"o":"b 93 -167 0 -301 47 -261 l 93 -42 "},"~":{"ha":-53,"x_min":0,"x_max":0,"o":"m 85 496 l 85 357 b 238 429 128 403 172 429 b 547 329 342 429 428 329 b 715 407 621 329 675 358 l 715 547 "},"₩":{"ha":639,"x_min":0,"x_max":0,"o":""},"‐":{"ha":-218,"x_min":0,"x_max":0,"o":"m 601 486 l 33 486 l 33 375 l 601 375 z "},"©":{"ha":289,"x_min":0,"x_max":0,"o":"m 571 -62 b 1093 463 864 -62 1093 168 b 571 989 1093 758 864 989 b 49 463 276 989 49 757 b 571 -62 49 169 276 -62 z m 571 15 b 132 463 324 15 132 213 b 571 910 132 713 322 910 b 1010 463 818 910 1010 713 b 571 15 1010 213 818 15 z m 576 203 b 813 390 692 203 785 275 l 710 390 b 575 292 690 332 639 292 b 419 463 482 292 419 365 b 575 635 419 561 482 635 b 708 538 639 635 689 596 l 811 538 b 575 724 785 644 693 724 b 319 463 426 724 319 614 b 576 203 319 314 426 203 z "},"　":{"ha":0,"x_min":0,"x_max":0,"o":""},"、":{"ha":154,"x_min":0,"x_max":0,"o":"m 317 -237 l 428 -133 b 143 144 331 -12 261 56 l 42 51 b 317 -237 153 -36 224 -111 z "},"。":{"ha":289,"x_min":0,"x_max":0,"o":"m 261 -231 b 474 -18 378 -231 474 -135 b 261 193 474 99 379 193 b 50 -18 146 193 50 99 b 261 -231 50 -135 146 -231 z m 261 -136 b 144 -18 199 -136 144 -82 b 261 99 144 46 199 99 b 314 -18 324 99 378 46 z "},"·":{"ha":-406,"x_min":0,"x_max":0,"o":"m 300 521 l 136 521 l 136 360 l 300 360 z "},"‥":{"ha":0,"x_min":0,"x_max":0,"o":""},"…":{"ha":0,"x_min":0,"x_max":0,"o":""},"¨":{"ha":-132,"x_min":0,"x_max":0,"o":"m 301 997 l 164 997 l 164 858 l 301 858 z m 557 997 l 421 997 l 421 858 l 557 858 z "},"〃":{"ha":397,"x_min":0,"x_max":0,"o":"m 644 576 l 478 576 l 363 178 l 457 178 z m 907 576 l 740 576 l 624 178 l 718 178 z "},"­":{"ha":-283,"x_min":0,"x_max":0,"o":"m 79 393 l 490 393 l 490 481 l 79 481 z "},"–":{"ha":-283,"x_min":0,"x_max":0,"o":"m 79 393 l 490 393 l 490 481 l 79 481 z "},"—":{"ha":347,"x_min":0,"x_max":0,"o":"m 4 393 l 1196 393 l 1196 481 l 4 481 z "},"‖":{"ha":397,"x_min":0,"x_max":0,"o":"m 460 -247 l 549 -247 l 549 1082 l 460 1082 z m 700 -247 l 790 -247 l 790 1082 l 700 1082 z "},"＼":{"ha":397,"x_min":0,"x_max":0,"o":"m 1150 -214 l 1200 -164 l 99 1054 l 50 1001 z "},"∼":{"ha":397,"x_min":0,"x_max":0,"o":"m 1026 472 l 961 515 b 811 426 928 464 878 426 b 628 483 742 426 686 451 b 439 532 569 515 519 532 b 224 396 357 532 268 465 l 289 353 b 439 440 322 404 372 440 b 622 385 507 440 575 410 b 811 336 681 354 732 336 b 1026 472 893 336 982 403 z "},"〜":{"ha":397,"x_min":0,"x_max":0,"o":"m 1026 472 l 961 515 b 811 426 928 464 878 426 b 628 483 742 426 686 451 b 439 532 569 515 519 532 b 224 396 357 532 268 465 l 289 353 b 439 440 322 404 372 440 b 622 385 507 440 575 410 b 811 336 681 354 732 336 b 1026 472 893 336 982 403 z "},"～":{"ha":397,"x_min":0,"x_max":0,"o":"m 1026 472 l 961 515 b 811 426 928 464 878 426 b 628 483 742 426 686 451 b 439 532 569 515 519 532 b 224 396 357 532 268 465 l 289 353 b 439 440 322 404 372 440 b 622 385 507 440 575 410 b 811 336 681 354 732 336 b 1026 472 893 336 982 403 z "},"‘":{"ha":-586,"x_min":0,"x_max":0,"o":"m 54 864 l 54 711 l 213 711 l 213 872 l 133 872 z "},"’":{"ha":-586,"x_min":0,"x_max":0,"o":"m 213 889 z "},"“":{"ha":-372,"x_min":0,"x_max":0,"o":"m 54 711 l 213 711 l 213 872 l 133 872 z m 347 719 l 506 719 l 506 881 l 426 881 z "},"”":{"ha":-372,"x_min":0,"x_max":0,"o":"m 213 889 z m 426 889 z "},"〔":{"ha":-332,"x_min":0,"x_max":0,"o":"m 64 879 l 64 17 l 407 -196 l 467 -93 l 185 83 l 185 811 l 467 986 l 406 1086 z "},"〕":{"ha":-332,"x_min":0,"x_max":0,"o":"m 336 83 l 54 -93 l 114 -196 l 457 17 l 457 879 l 115 1086 l 54 986 l 336 811 z "},"〈":{"ha":-185,"x_min":0,"x_max":0,"o":"m 532 1064 l 50 446 l 532 -172 l 618 -100 l 193 446 l 618 992 z "},"〉":{"ha":-185,"x_min":0,"x_max":0,"o":"m 476 446 l 51 -100 l 136 -172 l 618 446 l 136 1064 l 51 992 z "},"《":{"ha":-147,"x_min":0,"x_max":0,"o":"m 397 1081 l 39 446 l 397 -187 l 483 -137 l 157 446 l 483 1029 z m 589 1074 l 231 446 l 589 -182 l 675 -132 l 349 446 l 675 1024 z "},"》":{"ha":-147,"x_min":0,"x_max":0,"o":"m 547 446 l 222 -137 l 308 -187 l 667 446 l 308 1081 l 222 1029 z m 356 446 l 31 -132 l 115 -182 l 475 446 l 115 1074 l 31 1024 z "},"「":{"ha":-354,"x_min":0,"x_max":0,"o":"m 33 399 l 149 399 l 149 914 l 465 914 l 465 1019 l 33 1019 z "},"」":{"ha":-354,"x_min":0,"x_max":0,"o":"m 350 -79 l 33 -79 l 33 -186 l 465 -186 l 465 436 l 350 436 z "},"『":{"ha":-333,"x_min":0,"x_max":0,"o":"m 40 399 l 242 399 l 242 835 l 478 835 l 478 1019 l 40 1019 l 40 1099 l 513 1099 l 513 1379 l 475 1379 l 475 1142 l 40 1142 z "},"』":{"ha":-333,"x_min":0,"x_max":0,"o":"m 478 436 l 276 436 l 276 0 l 40 0 l 40 -186 l 478 -186 z m 399 361 l 399 -112 l 118 -112 l 118 -74 l 357 -74 l 357 361 z "},"【":{"ha":-336,"x_min":0,"x_max":0,"o":"m 500 1069 l 72 1069 l 72 -169 l 500 -169 b 207 449 310 -31 207 201 b 500 1069 207 696 311 924 z "},"】":{"ha":-336,"x_min":0,"x_max":0,"o":"m 17 1069 b 310 449 206 924 310 696 b 17 -169 310 201 207 -31 l 444 -169 l 444 1069 z "},"±":{"ha":-31,"x_min":0,"x_max":0,"o":"m 479 619 l 479 742 z m -174 74 l 479 74 l 479 196 l -174 196 z "},"×":{"ha":-31,"x_min":0,"x_max":0,"o":"m 704 636 l 607 732 l 408 533 l 213 731 l 121 639 l 318 443 l 118 243 l 215 146 l 415 346 l 611 150 l 701 240 l 506 436 z "},"÷":{"ha":-31,"x_min":0,"x_max":0,"o":"m 410 628 b 501 719 461 628 501 668 b 410 811 501 769 461 811 b 318 719 358 811 318 769 b 410 628 318 668 358 628 z m 738 501 l 85 501 l 85 379 l 738 379 z m 410 69 b 501 161 461 69 501 111 b 410 253 501 213 461 253 b 318 161 358 253 318 213 b 410 69 318 111 358 69 z "},"≠":{"ha":-11,"x_min":0,"x_max":0,"o":"m 726 575 l 726 696 l 586 696 l 660 886 l 531 886 l 456 696 l 115 696 l 115 575 l 408 575 l 303 306 l 115 306 l 115 185 l 256 185 l 181 -8 l 311 -8 l 386 185 l 726 185 l 726 306 l 433 306 l 539 575 z "},"≤":{"ha":-62,"x_min":0,"x_max":0,"o":"m 704 804 l 704 942 l 76 631 l 76 490 l 704 179 l 704 317 l 207 561 z m 68 -49 l 721 -49 l 721 74 l 68 74 z "},"≥":{"ha":-62,"x_min":0,"x_max":0,"o":"m 85 317 l 85 179 l 713 490 l 713 631 l 85 942 l 85 804 l 582 561 z m 68 -49 l 721 -49 l 721 74 l 68 74 z "},"∞":{"ha":215,"x_min":0,"x_max":0,"o":"m 797 158 l 799 158 b 1031 385 935 158 1031 263 b 810 610 1031 515 942 610 b 535 454 688 610 610 529 b 269 610 463 525 381 610 b 39 385 133 610 39 506 b 258 158 39 253 128 158 b 535 315 381 158 458 240 b 797 158 606 243 688 158 z m 267 258 l 265 258 b 144 385 196 258 144 311 b 269 511 144 453 199 511 b 467 385 353 511 411 435 b 267 258 411 328 347 258 z m 801 258 l 800 258 b 601 385 717 258 658 333 b 804 511 657 442 722 511 b 922 385 874 511 922 457 b 801 258 922 315 871 258 z "},"∴":{"ha":-39,"x_min":0,"x_max":0,"o":"m 499 701 b 407 793 499 751 460 793 b 313 701 354 793 313 751 b 407 607 313 649 354 607 b 499 701 460 607 499 649 z m 231 142 b 138 233 231 193 189 233 b 44 142 86 233 44 193 b 138 49 44 89 86 49 b 231 142 189 49 231 89 z m 769 142 b 676 233 769 193 726 233 b 583 142 624 233 583 193 b 676 49 583 89 624 49 b 769 142 726 49 769 89 z "},"°":{"ha":-376,"x_min":0,"x_max":0,"o":"m 243 1003 l 242 1003 b 36 797 126 1003 36 914 b 240 600 36 690 119 600 b 446 804 344 600 446 681 b 243 1003 446 907 368 1003 z m 239 925 l 240 925 b 356 803 319 925 356 858 b 240 678 356 732 307 678 b 126 797 175 678 126 731 b 239 925 126 860 167 925 z "},"′":{"ha":-215,"x_min":0,"x_max":0,"o":"m 444 1031 z "},"″":{"ha":-137,"x_min":0,"x_max":0,"o":"m 363 1029 l 196 1029 z m 628 1406 l 521 1406 l 521 1238 z "},"℃":{"ha":604,"x_min":0,"x_max":0,"o":"b 700 104 0 194 767 104 b 547 88 629 104 547 21 b NaN NaN 547 17 638 NaN m NaN NaN b NaN NaN NaN NaN NaN NaN l NaN NaN b NaN NaN NaN NaN NaN NaN b NaN NaN NaN NaN NaN NaN b NaN NaN NaN NaN NaN NaN b NaN NaN NaN NaN NaN NaN l NaN NaN b NaN NaN NaN NaN NaN NaN b NaN NaN NaN NaN NaN NaN z m NaN NaN b NaN NaN NaN NaN NaN NaN b NaN NaN NaN NaN NaN NaN b NaN NaN NaN NaN NaN NaN b NaN NaN NaN NaN NaN NaN z "},"å":{"ha":158,"x_min":0,"x_max":0,"o":"m 506 850 b 661 1004 593 850 661 921 b 506 1157 661 1086 593 1157 b 347 1004 415 1157 347 1086 b 506 850 347 921 415 850 z m 506 1076 b 578 1004 544 1076 578 1044 b 506 932 578 964 544 932 b 474 996 465 932 433 964 z m 760 -206 l 908 -206 l 542 688 l 404 688 l 38 -206 l 179 -206 l 264 11 l 675 11 z m 310 129 l 469 535 l 629 129 z "},"Å":{"ha":158,"x_min":0,"x_max":0,"o":"m 506 850 b 661 1004 593 850 661 921 b 506 1157 661 1086 593 1157 b 347 1004 415 1157 347 1086 b 506 850 347 921 415 850 z m 506 1076 b 578 1004 544 1076 578 1044 b 506 932 578 964 544 932 b 474 996 465 932 433 964 z m 760 -206 l 908 -206 l 542 688 l 404 688 l 38 -206 l 179 -206 l 264 11 l 675 11 z m 310 129 l 469 535 l 629 129 z "},"¢":{"ha":43,"x_min":0,"x_max":0,"o":"m 697 168 b 464 6 665 72 578 6 l 456 6 l 539 576 b 694 426 614 554 669 499 l 838 426 b 557 703 806 564 699 669 l 572 810 l 464 810 l 450 713 b 58 296 222 706 58 529 b 331 -100 58 106 168 -46 l 311 -235 l 421 -235 l 438 -119 b 467 -121 447 -121 457 -121 b 756 NaN 583 -121 756 -78 z m 111 NaN b 346 NaN 111 NaN 204 NaN l 265 NaN b 111 NaN 169 NaN 111 NaN z "},"￠":{"ha":43,"x_min":0,"x_max":0,"o":"m 697 168 b 464 6 665 72 578 6 l 456 6 l 539 576 b 694 426 614 554 669 499 l 838 426 b 557 703 806 564 699 669 l 572 810 l 464 810 l 450 713 b 58 296 222 706 58 529 b 331 -100 58 106 168 -46 l 311 -235 l 421 -235 l 438 -119 b 467 -121 447 -121 457 -121 b 756 NaN 583 -121 756 -78 z m 111 NaN b 346 NaN 111 NaN 204 NaN l 265 NaN b 111 NaN 169 NaN 111 NaN z "},"£":{"ha":-114,"x_min":0,"x_max":0,"o":"m 39 -82 l 700 -82 l 700 47 l 221 47 b 315 278 288 93 315 169 l 315 396 l 574 396 l 574 521 l 315 521 l 315 696 b 501 893 315 829 385 893 b 682 853 567 893 628 879 l 682 978 b 478 1024 638 1006 565 1024 b 169 703 299 1024 169 918 l 169 521 l 47 521 l 47 396 l 169 396 l 169 279 b 39 38 169 156 126 85 z "},"￡":{"ha":-114,"x_min":0,"x_max":0,"o":"m 39 -82 l 700 -82 l 700 47 l 221 47 b 315 278 288 93 315 169 l 315 396 l 574 396 l 574 521 l 315 521 l 315 696 b 501 893 315 829 385 893 b 682 853 567 893 628 879 l 682 978 b 478 1024 638 1006 565 1024 b 169 703 299 1024 169 918 l 169 521 l 47 521 l 47 396 l 169 396 l 169 279 b 39 38 169 156 126 85 z "},"¥":{"ha":253,"x_min":0,"x_max":0,"o":"m 1069 997 l 913 997 l 553 460 l 204 997 l 36 997 l 428 415 l 199 415 l 199 307 l 472 307 l 472 217 l 199 217 l 199 107 l 472 107 l 472 -115 l 619 -115 l 619 107 l 892 107 l 892 217 l 619 217 l 619 307 l 892 307 l 892 415 l 668 415 z "},"￥":{"ha":253,"x_min":0,"x_max":0,"o":"m 1069 997 l 913 997 l 553 460 l 204 997 l 36 997 l 428 415 l 199 415 l 199 307 l 472 307 l 472 217 l 199 217 l 199 107 l 472 107 l 472 -115 l 619 -115 l 619 107 l 892 107 l 892 217 l 619 217 l 619 307 l 892 307 l 892 415 l 668 415 z "},"♂":{"ha":225,"x_min":0,"x_max":0,"o":"m 58 363 b 451 -31 58 146 232 -31 b 843 363 668 -31 843 146 b 760 601 843 454 813 535 l 919 761 l 919 614 l 1021 614 l 1021 931 l 703 931 l 703 831 l 849 831 l 690 672 b 451 754 622 725 543 754 b 58 363 232 754 58 579 z m 171 363 "},"♀":{"ha":53,"x_min":0,"x_max":0,"o":"m 401 257 l 401 76 l 201 76 l 201 -25 l 401 -25 l 401 -219 l 504 -219 l 504 -25 l 703 -25 l 703 76 l 504 76 l 504 257 b 846 646 696 281 846 442 b 453 1039 846 863 669 1039 b 60 646 233 1039 60 863 b 401 257 60 442 210 282 z m 172 646 "},"∠":{"ha":397,"x_min":0,"x_max":0,"o":"m 192 -8 l 1058 -8 l 1058 94 l 354 94 l 939 772 l 857 840 l 192 65 z "},"⊥":{"ha":397,"x_min":0,"x_max":0,"o":"m 174 -8 l 1076 -8 l 1076 99 l 679 99 l 679 808 l 571 808 l 571 99 l 174 99 z "},"⌒":{"ha":397,"x_min":0,"x_max":0,"o":"m 886 794 l 990 794 b 615 1025 918 931 803 1025 b 242 794 431 1025 313 931 l 346 794 b 618 949 394 881 485 949 b 886 794 750 949 839 881 z "},"∂":{"ha":-101,"x_min":0,"x_max":0,"o":"m 71 943 l 115 846 b 311 901 161 871 224 901 b 567 546 446 901 567 775 b 565 504 567 532 567 517 l 564 504 b 339 624 535 557 454 624 b 28 276 160 624 28 469 b 315 -25 28 128 118 -25 b 708 517 524 -25 708 157 b 324 1021 708 840 529 1021 b 71 943 201 1021 119 976 z m 331 93 b 175 278 240 93 175 163 b 365 507 175 408 258 507 b 551 378 458 507 526 443 b 331 93 532 229 449 93 z "},"∇":{"ha":397,"x_min":0,"x_max":0,"o":"m 625 -46 l 1186 842 l 64 842 z m 246 742 l 1004 742 l 625 135 z "},"≡":{"ha":64,"x_min":0,"x_max":0,"o":"m 78 694 l 78 603 l 838 603 l 838 694 z m 78 483 l 78 390 l 838 390 l 838 483 z m 78 268 l 78 176 l 838 176 l 838 268 z "},"≒":{"ha":0,"x_min":0,"x_max":0,"o":"b 208 17 0 64 168 17 b 215 104 169 17 215 64 b 222 190 215 143 263 190 b 215 104 263 190 215 144 b NaN NaN 215 64 168 NaN m NaN NaN l NaN NaN l NaN NaN l NaN NaN z m NaN NaN l NaN NaN l NaN NaN l NaN NaN z m NaN NaN b NaN NaN NaN NaN NaN NaN b NaN NaN NaN NaN NaN NaN b NaN NaN NaN NaN NaN NaN b NaN NaN NaN NaN NaN NaN z "},"§":{"ha":-125,"x_min":0,"x_max":0,"o":"m 339 -228 b 640 18 531 -228 640 -139 b 565 183 640 94 617 147 b 700 374 649 215 700 271 b 344 653 700 563 571 579 b 243 769 264 679 243 701 b 404 874 243 838 304 874 b 613 829 494 874 567 849 l 613 944 b 397 994 563 968 504 994 b 103 756 203 994 103 897 b 174 585 103 675 131 619 b 38 399 86 553 38 496 b 371 125 38 208 193 181 b 493 7 471 96 493 75 b 322 -106 493 -65 439 -106 b 90 -54 214 -106 158 -83 l 90 -171 b 339 -228 156 -206 233 -228 z m 425 488 b 556 360 524 458 556 429 b 439 242 556 300 517 257 b 421 247 433 244 426 244 b 176 413 250 300 176 311 b 290 529 176 472 215 517 b 425 488 336 513 379 503 z "},"※":{"ha":0,"x_min":0,"x_max":0,"o":"m 769 839 b 653 951 769 900 717 951 b 538 839 590 951 538 900 b 654 726 538 781 593 726 b 769 839 717 726 769 779 z m 1107 -101 l 1193 -18 l 735 419 l 1189 861 l 1110 944 l 656 496 l 206 944 l 126 860 l 581 419 b 124 -19 429 272 275 126 l 208 -101 b 657 343 357 47 508 194 z m 353 418 b 235 532 353 481 296 532 b 119 418 175 532 119 481 b 236 307 119 360 176 307 b 353 418 300 307 353 361 z m 1215 418 b 1097 532 1215 482 1161 532 b 985 418 1038 532 985 482 b 1100 308 985 358 1039 308 b 1215 418 1163 308 1215 358 z m 769 -14 b 653 97 769 47 717 97 b 539 -14 590 97 539 47 b 654 -124 539 -74 593 -124 b 769 -14 719 -124 769 -74 z "},"☆":{"ha":0,"x_min":0,"x_max":0,"o":"m -344 214 l -249 504 l -151 214 l 157 214 l -92 29 l 0 -264 l -249 -85 l -506 -264 l -407 29 l -657 214 z "},"★":{"ha":0,"x_min":0,"x_max":0,"o":""},"○":{"ha":0,"x_min":0,"x_max":0,"o":"m 97 0 b 514 418 97 229 283 418 b 932 0 746 418 932 229 b 514 -417 932 -231 746 -417 b 97 0 283 -417 97 -231 z "},"●":{"ha":0,"x_min":0,"x_max":0,"o":""},"◎":{"ha":0,"x_min":0,"x_max":0,"o":"m 99 0 b 514 415 99 226 285 415 b 929 0 744 415 929 226 b 514 -415 929 -229 744 -415 b 99 0 285 -415 99 -229 z m 210 0 b 514 -304 210 -168 346 -304 b 818 0 682 -304 818 -168 b 514 304 818 167 682 304 b 210 0 346 304 210 167 z m 299 0 b 514 217 299 118 394 217 b 731 0 635 217 731 118 b 514 -215 731 -119 635 -215 b 299 0 394 -215 299 -119 z "},"◇":{"ha":0,"x_min":0,"x_max":0,"o":"m 1226 456 l 668 1015 l 108 456 l 668 -104 z m 246 457 l 668 878 l 1089 456 l 668 33 z "},"◆":{"ha":0,"x_min":0,"x_max":0,"o":"m 668 1015 l 108 457 l 669 -104 l 1228 456 z "},"□":{"ha":0,"x_min":0,"x_max":0,"o":"m 1161 949 l 174 949 l 174 -39 l 1161 -39 z m 271 60 l 271 850 l 1063 850 l 1063 60 z "},"■":{"ha":0,"x_min":0,"x_max":0,"o":"m 174 950 l 174 -37 l 1163 -37 l 1163 950 z "},"△":{"ha":0,"x_min":0,"x_max":0,"o":"m 668 988 l 140 -62 l 1196 -62 z m 665 788 l 1047 24 z "},"▲":{"ha":0,"x_min":0,"x_max":0,"o":"m 668 976 l 142 -72 l 1194 -72 z "},"▽":{"ha":0,"x_min":0,"x_max":0,"o":"m 668 -111 l 1196 938 l 140 938 z m 668 86 l 286 851 l 1050 851 z "},"▼":{"ha":0,"x_min":0,"x_max":0,"o":"m 668 -111 l 1194 938 l 142 938 z "},"→":{"ha":189,"x_min":0,"x_max":0,"o":"m 783 519 l 0 519 l 0 435 l 783 435 l 678 257 l 699 233 l 993 478 l 699 722 l 678 699 z "},"←":{"ha":189,"x_min":0,"x_max":0,"o":"m 258 435 l 1042 435 l 1042 519 l 258 519 l 364 699 l 343 722 l 49 478 l 343 233 l 364 257 z "},"↑":{"ha":-39,"x_min":0,"x_max":0,"o":"m 365 774 l -418 857 l 365 NaN z "},"↓":{"ha":-39,"x_min":0,"x_max":0,"o":"m 449 182 "},"↔":{"ha":285,"x_min":0,"x_max":0,"o":"m 294 233 l 317 257 l 210 435 l 928 435 l 821 257 l 843 233 l 1138 478 l 843 722 l 821 699 l 928 519 l 210 519 l 317 699 l 294 722 l 0 478 z "},"〓":{"ha":425,"x_min":0,"x_max":0,"o":"m 175 596 l 175 543 l 1103 543 l 1103 596 z m 175 324 l 175 271 l 1103 271 l 1103 324 z "},"«":{"ha":0,"x_min":0,"x_max":0,"o":"m 808 -62 l 857 13 l 238 419 l 851 844 l 797 918 l 129 453 l 129 388 z m 1107 -57 l 1151 18 l 532 421 l 1149 840 l 1094 911 l 424 453 l 424 388 z "},"»":{"ha":0,"x_min":0,"x_max":0,"o":"m 528 -62 l 1207 388 l 1207 453 l 539 918 l 486 844 l 1099 419 l 479 13 z m 229 -57 l 913 388 l 913 453 l 242 911 l 188 840 l 804 419 l 185 18 z "},"√":{"ha":-64,"x_min":0,"x_max":0,"o":"m 394 -181 l 497 -181 l 824 1107 l 715 1107 l 461 64 b 440 -33 453 31 446 -10 l 438 -33 b 411 63 432 -7 422 31 l 242 535 l 32 449 l 63 376 l 168 419 z "},"∽":{"ha":0,"x_min":0,"x_max":0,"o":"m 1197 439 b 936 706 1197 578 1089 706 b 647 488 794 706 704 600 b 403 268 607 408 539 268 b 236 439 297 268 236 338 b 404 608 236 538 303 608 b 525 568 443 608 483 593 l 571 646 b 394 706 518 679 458 706 b 138 439 263 706 138 610 b 396 171 138 260 267 171 b 715 425 586 171 669 339 b 939 611 778 543 838 611 b 1101 439 1035 611 1101 526 b 938 264 1101 339 1033 264 b 810 308 893 264 854 278 l 764 233 b 938 169 821 193 878 169 b 1197 439 1089 169 1197 294 z "},"∝":{"ha":0,"x_min":0,"x_max":0,"o":"m 1100 567 l 1149 644 b 983 706 1096 682 1039 706 b 717 528 863 706 775 622 b 443 706 665 611 586 706 b 185 439 313 706 185 610 b 444 171 185 258 315 171 b 717 346 586 171 665 264 b 983 169 775 251 861 169 b 1133 215 1031 169 1083 186 l 1089 296 b 983 264 1053 276 1015 264 b 767 438 888 264 825 329 b 983 611 825 546 889 611 b 1100 567 1021 611 1063 593 z m 450 268 b 285 439 343 268 285 336 b 450 608 285 538 350 608 b 668 438 560 608 625 514 b 450 268 625 360 563 268 z "},"∵":{"ha":-39,"x_min":0,"x_max":0,"o":"m 231 700 b 138 793 231 753 189 793 b 44 700 86 793 44 753 b 138 608 44 649 86 608 b 231 700 189 608 231 649 z m 769 700 b 676 793 769 753 726 793 b 583 700 624 793 583 753 b 676 608 583 649 624 608 b 769 700 726 608 769 649 z m 499 140 b 407 235 499 193 460 235 b 313 140 354 235 313 193 b 407 49 313 90 354 49 b 499 140 460 49 499 90 z "},"∫":{"ha":-386,"x_min":0,"x_max":0,"o":"m 428 990 b 361 935 444 990 397 972 b 286 857 361 882 304 857 b 211 NaN 235 857 211 826 b 149 NaN 194 NaN 172 NaN b 97 NaN 129 NaN 110 NaN l 79 NaN b 161 NaN 94 NaN 128 NaN b 308 NaN 221 NaN 275 NaN b NaN NaN 308 NaN 335 NaN b NaN NaN NaN NaN NaN NaN b NaN NaN NaN NaN NaN NaN z "},"∬":{"ha":-57,"x_min":0,"x_max":0,"o":"m 424 990 b 358 935 442 990 393 972 b 283 857 358 882 301 857 b 207 NaN 232 857 207 826 b 146 NaN 190 NaN 169 NaN b 94 NaN 125 NaN 107 NaN l 76 NaN b 158 NaN 92 NaN 124 NaN b 306 NaN 218 NaN 271 NaN b 364 NaN 339 NaN 364 NaN b 344 NaN 364 NaN 344 NaN b 383 NaN 344 NaN 357 NaN b 449 NaN 399 NaN 422 NaN b 493 NaN 465 NaN 479 NaN z m 825 NaN l 840 NaN b 774 NaN 828 NaN 801 NaN b 640 NaN 722 NaN 674 NaN b 564 NaN 640 NaN 583 NaN b 490 NaN 513 NaN 490 NaN b 428 NaN 474 NaN 453 NaN b 376 NaN 408 NaN 390 NaN l 358 NaN b 440 NaN 372 NaN 407 NaN b 589 NaN 500 NaN 554 NaN b NaN NaN 589 NaN 617 NaN b NaN NaN NaN NaN NaN NaN b NaN NaN NaN NaN NaN NaN z "},"∈":{"ha":0,"x_min":0,"x_max":0,"o":"m 281 386 l 1125 386 l 1125 499 l 283 499 b 558 672 304 596 385 672 l 1128 672 l 1128 788 l 558 788 b 157 444 275 788 157 632 b 107 82 157 244 283 82 b 104 172 25 82 104 192 z "},"∋":{"ha":0,"x_min":0,"x_max":0,"o":"m 1050 500 l 210 500 l 210 386 l 1053 386 b 778 197 1033 278 951 197 l 208 197 l 208 82 l 771 82 b 1179 444 1051 82 1179 247 b 778 788 1179 629 1060 788 l 208 788 l 208 672 l 778 672 b 1050 500 950 672 1028 594 z "},"⊆":{"ha":0,"x_min":0,"x_max":0,"o":"m 558 764 l 1128 764 l 1128 878 l 558 878 b 157 563 275 878 157 739 b 82 226 157 372 283 226 b 92 467 3 226 92 354 b NaN 747 92 540 185 747 z m NaN -21 l NaN -21 l NaN 93 l NaN 93 z "},"⊇":{"ha":0,"x_min":0,"x_max":0,"o":"m 208 878 l 208 764 l 778 764 b 1058 558 985 764 1058 671 b 778 342 1058 431 979 342 l 208 342 l 208 226 l 772 226 b 1179 563 1053 226 1179 372 b 778 878 1179 739 1061 878 z m 211 110 l 211 -4 l 1129 -4 l 1129 110 z "},"⊂":{"ha":0,"x_min":0,"x_max":0,"o":"m 558 664 l 1128 664 l 1128 779 l 558 779 b 157 444 275 779 157 629 b 82 90 157 247 283 90 b 103 347 3 90 103 225 b NaN 628 103 421 204 628 z "},"⊃":{"ha":0,"x_min":0,"x_max":0,"o":"m 778 779 l 208 779 l 208 664 l 778 664 b 1057 440 983 664 1057 563 b 778 206 1057 306 979 206 l 208 206 l 208 90 l 771 90 b 1179 444 1051 90 1179 247 b 778 779 1179 629 1060 779 z "},"∪":{"ha":58,"x_min":0,"x_max":0,"o":"m 225 325 l 225 894 l 104 894 l 104 325 b 446 -78 104 42 261 -78 b 807 332 643 -78 807 50 l 807 894 l 686 894 l 686 325 b 450 39 686 122 585 39 b 225 325 329 39 225 119 z "},"∩":{"ha":0,"x_min":0,"x_max":0,"o":"b 514 743 58 0 514 894 b NaN NaN 514 615 233 NaN l NaN NaN l NaN NaN l NaN NaN b NaN NaN NaN NaN NaN NaN b NaN NaN NaN NaN NaN NaN l NaN NaN l NaN NaN l NaN NaN b NaN NaN NaN NaN NaN NaN "},"∧":{"ha":0,"x_min":0,"x_max":0,"o":"m 1040 -15 l 1124 25 l 708 831 l 628 831 l 213 25 l 296 -15 l 668 704 z "},"∨":{"ha":0,"x_min":0,"x_max":0,"o":"m 708 -4 l 1124 800 l 1040 840 l 668 121 l 296 840 l 213 800 l 628 -4 z "},"¬":{"ha":0,"x_min":0,"x_max":0,"o":"m 1168 -218 l 1260 -218 l 1260 229 l 49 229 l 49 140 l 1168 140 z "},"￢":{"ha":0,"x_min":0,"x_max":0,"o":"m 1168 -218 l 1260 -218 l 1260 229 l 49 229 l 49 140 l 1168 140 z "},"⇒":{"ha":0,"x_min":0,"x_max":0,"o":"l 463 0 l 463 931 l -551 931 l -551 850 l 543 850 l 636 760 l 543 671 l -551 671 l -551 590 l 464 590 l 308 433 "},"⇔":{"ha":0,"x_min":0,"x_max":0,"o":"l 454 0 l 454 922 l -278 922 l -124 1076 l -181 1132 l -560 751 l -181 369 l -124 425 l -279 582 l 456 582 l 300 425 m 535 842 l 628 751 l 535 663 l -358 663 l -451 751 l -358 842 z "},"∀":{"ha":397,"x_min":0,"x_max":0,"o":"m 997 997 l 889 724 l 351 724 l 243 997 l 89 997 l 546 -115 l 703 -115 l 1160 997 z m 621 44 l 403 594 l 838 594 z "},"∃":{"ha":397,"x_min":0,"x_max":0,"o":"m 247 14 l 247 -115 l 1050 -115 l 1050 997 l 247 997 l 247 868 l 903 868 l 903 504 l 308 504 l 308 375 l 903 375 l 903 14 z "},"´":{"ha":-136,"x_min":0,"x_max":0,"o":"m 340 839 l 475 839 l 642 1090 l 479 1090 z "},"˜":{"ha":-136,"x_min":0,"x_max":0,"o":"m 43 969 l 43 831 b 199 903 88 876 131 903 b 506 803 296 903 389 803 b 674 878 579 803 633 832 l 674 1017 b 517 931 629 965 583 931 "},"ˇ":{"ha":-136,"x_min":0,"x_max":0,"o":"m 243 1139 l 135 1139 l 306 864 l 411 864 l 582 1139 l 475 1139 l 360 953 z "},"˘":{"ha":-136,"x_min":0,"x_max":0,"o":"m 358 883 b 579 1124 482 883 579 972 l 476 1124 b 358 975 478 1028 425 975 b 240 1124 292 975 239 1028 l 138 1124 b 358 883 138 972 235 883 z "},"˝":{"ha":-136,"x_min":0,"x_max":0,"o":"m 132 874 l 247 874 l 374 1125 l 238 1125 z m 342 874 l 457 874 l 585 1125 l 449 1125 z "},"˚":{"ha":-136,"x_min":0,"x_max":0,"o":"m 361 850 b 508 993 446 850 508 914 b 361 1136 508 1071 444 1136 b 215 993 276 1136 215 1071 b 361 850 215 914 275 850 z m 361 924 b 296 993 322 924 296 953 b 361 1060 296 1032 322 1060 b 428 993 400 1060 428 1033 b 361 924 428 951 401 924 z "},"˙":{"ha":-136,"x_min":0,"x_max":0,"o":"m 281 885 l 438 885 l 438 1043 l 281 1043 z "},"¸":{"ha":-136,"x_min":0,"x_max":0,"o":"m 360 -233 l 279 -233 l 279 -317 l 363 -317 b 547 -179 488 -317 547 -264 b 396 -47 547 -97 474 -50 l 396 39 l 304 39 l 304 -128 l 361 -128 b 450 -179 421 -128 450 -149 b 360 -233 450 -212 426 -233 z "},"˛":{"ha":-136,"x_min":0,"x_max":0,"o":"m 376 -278 b 456 -261 407 -278 438 -272 l 456 -189 b 396 -199 438 -194 415 -199 b 325 -139 351 -199 325 -181 b 457 25 325 -86 382 -28 l 354 25 b 226 -149 299 -8 226 -74 b 376 -278 226 -225 283 -278 z "},"¡":{"ha":-492,"x_min":0,"x_max":0,"o":"m 181 794 b 283 896 239 794 283 839 b 181 997 283 954 239 997 b 78 896 122 997 78 954 b 181 794 78 839 122 794 z m 233 668 l 128 668 l 93 -137 l 269 -137 z "},"¿":{"ha":36,"x_min":0,"x_max":0,"o":"m 442 822 b 543 924 499 822 543 865 b 442 1025 543 982 499 1025 b 339 924 383 1025 339 982 b 442 822 339 865 383 822 z m 435 -137 b 794 189 646 -137 790 11 l 653 189 b 433 -10 649 94 576 -10 b 221 168 299 -10 221 61 b 360 363 221 244 267 294 b 513 694 479 444 513 533 l 378 694 b 235 422 378 585 358 506 b 81 168 133 350 81 268 b 435 -137 81 -6 210 -137 z "},"ː":{"ha":0,"x_min":0,"x_max":0,"o":"m 340 564 l 469 699 l 213 699 z m 213 138 l 469 138 l 340 271 z "},"∶":{"ha":0,"x_min":0,"x_max":0,"o":"m 340 564 l 469 699 l 213 699 z m 213 138 l 469 138 l 340 271 z "},"∮":{"ha":0,"x_min":0,"x_max":0,"o":"m 897 882 l 964 911 b 831 1000 935 971 890 1000 b 699 879 774 1000 729 951 b 638 617 669 811 650 721 b 453 415 544 597 463 529 b 611 213 443 297 518 228 b 507 -104 592 10 547 -104 b 435 -47 474 -104 451 -82 l 372 -83 b 503 -167 401 -140 446 -167 b 635 -46 558 -167 604 -118 b 694 211 664 22 682 108 b 894 415 794 225 885 296 b 722 621 904 539 822 610 b 826 938 744 822 786 938 b 897 882 860 938 882 917 z m 825 415 b 699 254 818 332 768 271 b 710 417 706 304 708 358 b 718 578 711 475 714 529 b 825 415 792 563 832 494 z m 632 572 b 624 417 628 522 625 472 b 615 256 622 358 619 304 b 522 415 551 274 515 333 b 632 572 529 493 572 550 z "},"∑":{"ha":-19,"x_min":0,"x_max":0,"o":"m 35 -154 l 799 -154 l 799 -26 l 238 -26 l 238 -21 b 575 396 350 118 464 256 l 254 806 l 254 808 l 764 808 l 764 936 l 53 936 l 53 829 b 400 392 167 683 285 538 l 35 -60 z "},"∏":{"ha":114,"x_min":0,"x_max":0,"o":"m 789 -154 l 789 808 l 946 808 l 946 936 l 21 936 l 21 808 l 178 808 l 178 -154 l 322 -154 l 322 808 l 644 808 l 644 -154 z "},"¤":{"ha":372,"x_min":0,"x_max":0,"o":"m 965 653 l 1129 799 l 1046 881 b 890 740 1033 869 901 751 b 597 857 811 811 711 857 b 311 750 489 857 386 814 l 165 881 l 83 799 b 235 661 94 788 224 672 b 165 425 190 592 165 511 b 249 171 165 329 199 242 l 86 26 l 163 -60 b 329 86 175 -50 317 75 b 597 -7 404 26 497 -7 b 876 97 703 -7 801 33 l 1049 -60 l 1125 26 b 953 181 1113 39 967 169 b 1028 425 1000 250 1028 336 b 965 653 1028 510 1004 588 z m 919 425 b 597 103 919 247 775 103 b 275 425 418 103 275 247 b 599 746 275 568 454 746 b 276 NaN 456 746 276 NaN z "},"℉":{"ha":0,"x_min":0,"x_max":0,"o":"b 685 138 0 226 753 138 b 532 122 614 138 532 54 b NaN NaN 532 51 621 NaN m NaN NaN l NaN NaN l NaN NaN l NaN NaN l NaN NaN l NaN NaN l NaN NaN l NaN NaN l NaN NaN l NaN NaN z m NaN NaN b NaN NaN NaN NaN NaN NaN b NaN NaN NaN NaN NaN NaN b NaN NaN NaN NaN NaN NaN b NaN NaN NaN NaN NaN NaN z "},"‰":{"ha":0,"x_min":0,"x_max":0,"o":"m 821 981 l 714 981 l 83 -114 l 192 -114 z m 225 439 z m 225 528 b 132 685 167 528 132 590 b 225 840 132 778 167 840 b 319 685 285 840 319 778 b 225 528 319 590 285 528 z m 699 -35 b 885 211 814 -35 885 69 b 699 457 885 353 814 457 b 511 211 582 457 511 353 b 699 -35 511 69 582 -35 z m 1111 -35 z m 699 54 b 604 211 639 54 604 117 b 699 368 604 306 639 368 b 792 211 757 368 792 306 b 699 54 792 117 757 54 z m 1111 54 b 1018 211 1053 54 1018 117 b 1111 368 1018 306 1053 368 b 1206 211 1171 368 1206 306 b 1111 54 1206 117 1171 54 z "},"◁":{"ha":0,"x_min":0,"x_max":0,"o":"m -81 -146 l -81 -974 l -740 -561 z "},"◀":{"ha":0,"x_min":0,"x_max":0,"o":""},"▷":{"ha":0,"x_min":0,"x_max":0,"o":"m 208 -142 l 1096 417 l 208 978 z m 289 832 l 949 417 l 289 4 z "},"▶":{"ha":0,"x_min":0,"x_max":0,"o":"m 211 -142 l 1099 417 l 211 978 z "},"♤":{"ha":0,"x_min":0,"x_max":0,"o":"m -100 18 b -225 -133 -100 -46 -135 -133 b -399 -61 -303 -133 -367 -61 b -437 -124 -432 -61 -442 -79 b -394 -324 -432 -181 -417 -243 b -418 -349 -390 -339 -399 -347 b -471 -350 -433 -349 -453 -350 b -524 -349 -490 -350 -508 -349 b -549 -324 -544 -347 -553 -339 b -504 -124 -526 -242 -510 -181 b -544 -61 -500 -79 -510 -61 b -717 -133 -575 -61 -639 -133 b -842 18 -808 -133 -842 -46 b -471 610 -842 149 -624 425 b -100 18 -318 425 -100 149 z "},"♠":{"ha":0,"x_min":0,"x_max":0,"o":""},"♡":{"ha":0,"x_min":0,"x_max":0,"o":"m -103 -33 b -503 -694 -103 -240 -335 -521 b -904 -33 -671 -521 -904 -240 b -703 178 -904 88 -839 178 b -553 14 -622 178 -574 83 b -503 -54 -544 -18 -533 -54 b -453 14 -474 -54 -461 -18 b -303 178 -432 83 -387 178 b -103 -33 -168 178 -103 88 z "},"♥":{"ha":0,"x_min":0,"x_max":0,"o":""},"♧":{"ha":0,"x_min":0,"x_max":0,"o":"m -85 10 b -269 -179 -85 -94 -156 -179 b -514 -54 -400 -179 -457 -54 b -535 -83 -532 -54 -535 -64 b -494 -374 -535 -154 -494 -243 b -512 -392 -494 -385 -500 -390 b -574 -394 -531 -393 -553 -394 b -636 -392 -596 -394 -617 -393 b -653 -374 -647 -390 -653 -385 b -612 -83 -653 -243 -612 -154 b -635 -54 -612 -64 -615 -54 b -878 -179 -693 -54 -746 -179 b -1062 10 -992 -179 -1062 -94 b -885 186 -1062 107 -992 186 b -682 131 -796 186 -729 131 b -611 201 -639 131 -611 158 b -751 472 -611 281 -751 311 b -574 643 -751 583 -672 643 b -397 472 -474 643 -397 583 b -539 201 -397 311 -539 281 b -465 131 -539 158 -508 131 b -262 186 -418 131 -351 186 b -85 10 -156 186 -85 107 z "},"♣":{"ha":0,"x_min":0,"x_max":0,"o":""},"⊙":{"ha":0,"x_min":0,"x_max":0,"o":"m 1229 415 b 668 976 1229 725 978 976 b 107 415 363 976 107 725 b 668 -146 107 106 363 -146 b 1229 415 978 -146 1229 106 z m 1139 415 b 668 -54 1139 157 926 -54 b 199 415 410 -54 199 157 b 668 886 199 674 410 886 b 1139 415 926 886 1139 674 z m 888 415 b 668 635 888 538 790 635 b 449 415 549 635 449 538 b 668 196 449 293 549 196 b 888 415 790 196 888 293 z "},"◉":{"ha":0,"x_min":0,"x_max":0,"o":"m 1229 415 b 668 976 1229 725 978 976 b 107 415 363 976 107 725 b 668 -146 107 106 363 -146 b 1229 415 978 -146 1229 106 z m 1139 415 b 668 -54 1139 157 926 -54 b 199 415 410 -54 199 157 b 668 886 199 674 410 886 b 1139 415 926 886 1139 674 z m 888 415 b 668 635 888 538 790 635 b 449 415 549 635 449 538 b 668 196 449 293 549 196 b 888 415 790 196 888 293 z "},"◈":{"ha":0,"x_min":0,"x_max":0,"o":"m 667 -211 l 1293 414 l 668 1039 l 43 413 z m 668 949 l 1204 414 l 667 -124 l 131 413 z m 668 39 l 1042 413 l 668 786 l 293 413 z "},"▣":{"ha":0,"x_min":0,"x_max":0,"o":"m 133 -121 l 1203 -121 l 1203 947 l 133 947 z m 1135 879 l 1135 -53 l 201 -53 l 201 879 z m 347 92 l 989 92 l 989 733 l 347 733 z "},"◐":{"ha":0,"x_min":0,"x_max":0,"o":"m 1221 415 b 668 968 1221 721 974 968 b 115 415 367 968 115 721 b 668 -137 115 110 367 -137 b 1221 415 974 -137 1221 110 z m 1165 415 b 668 -81 1165 143 940 -81 l 668 913 b 1165 415 940 913 1165 688 z "},"◑":{"ha":0,"x_min":0,"x_max":0,"o":"m 1221 415 b 668 968 1221 721 969 968 b 115 415 363 968 115 721 b 668 -137 115 110 363 -137 b 1221 415 969 -137 1221 110 z m 668 913 l 668 -81 b 171 415 396 -81 171 143 b 668 913 171 688 396 913 z "},"▒":{"ha":21,"x_min":0,"x_max":0,"o":"m 151 -103 l 1185 -103 l 1185 929 l 151 929 z m 1139 883 l 1139 -57 l 197 -57 l 197 883 z m 313 807 b 279 843 313 828 300 843 b 243 807 258 843 243 828 b 279 772 243 786 258 772 b 313 807 301 772 313 783 z m 443 807 b 408 843 443 828 426 843 b 372 807 388 843 372 828 b 408 772 372 786 388 772 b 443 807 426 772 443 786 z m 574 807 b 538 843 574 828 558 843 b 503 807 517 843 503 828 b 538 772 503 783 514 772 b 574 807 558 772 574 786 z m 703 807 b 668 843 703 828 689 843 b 633 807 650 843 633 828 b 668 772 633 786 650 772 b 703 807 692 772 703 783 z m 835 807 b 799 843 835 828 819 843 b 763 807 778 843 763 828 b 799 772 763 786 778 772 b 835 807 819 772 835 786 z m 964 807 b 929 843 964 828 950 843 b 894 807 908 843 894 828 b 929 772 894 783 906 772 b 964 807 953 772 964 783 z m 1094 807 b 1058 843 1094 828 1079 843 b 1024 807 1038 843 1024 828 b 1058 772 1024 783 1035 772 b 1094 807 1079 772 1094 786 z m 313 676 b 279 713 313 697 300 713 b 243 676 258 713 243 697 b 279 643 243 658 258 643 b 313 676 300 643 313 658 z m 443 676 b 408 713 443 697 426 713 b 372 676 388 713 372 697 b 408 643 372 658 388 643 b 443 676 426 643 443 658 z m 574 676 b 538 713 574 697 558 713 b 503 676 517 713 503 697 b 538 643 503 658 517 643 b 574 676 558 643 574 658 z m 703 676 b 668 713 703 697 689 713 b 633 676 650 713 633 697 b 668 643 633 658 650 643 b 703 676 689 643 703 658 z m 835 676 b 799 713 835 697 819 713 b 763 676 778 713 763 697 b 799 643 763 658 778 643 b 835 676 819 643 835 658 z m 964 676 b 929 713 964 697 950 713 b 894 676 908 713 894 697 b 929 643 894 658 908 643 b 964 676 950 643 964 658 z m 1094 676 b 1058 713 1094 697 1079 713 b 1024 676 1038 713 1024 697 b 1058 643 1024 658 1038 643 b 1094 676 1079 643 1094 658 z m 313 547 b 279 583 313 568 300 583 b 243 547 258 583 243 568 b 279 511 243 526 258 511 b 313 547 300 511 313 526 z m 443 547 z m 572 547 b 567 513 572 531 588 513 b 536 471 551 513 536 492 b 539 507 536 486 521 507 b 576 508 556 507 576 493 b 543 471 576 488 558 471 b 501 472 522 471 501 488 b 538 525 501 490 522 504 z m 669 525 z m -112 394 b -149 431 -112 415 -128 431 b -185 394 -169 431 -185 415 b -183 353 -185 374 -169 353 b -219 346 -199 353 -219 332 b -185 351 -219 331 -199 351 b -172 340 -161 351 -172 363 b -208 306 -172 319 -187 306 b -211 310 -226 306 -211 289 b -181 347 -211 331 -199 347 z m -50 347 b -85 382 -50 368 -67 382 b -121 347 -106 382 -121 368 b -85 313 -121 329 -106 313 b -50 347 -67 313 -50 329 z m 81 347 b 44 382 81 368 65 382 b 10 347 21 382 10 371 b 44 313 10 329 24 313 b 81 347 65 313 81 329 z m 210 347 b 175 382 210 371 199 382 b 140 347 157 382 140 368 b 175 313 140 329 157 313 b 210 347 196 313 210 329 z m 342 347 b 306 382 342 368 326 382 b 269 347 285 382 269 368 b 306 313 269 329 285 313 b 342 347 326 313 342 329 z m 471 347 b 436 382 471 371 460 382 b 401 347 413 382 401 371 b 436 313 401 329 415 313 b 471 347 457 313 471 329 z m 601 347 b 565 382 601 368 586 382 b 531 347 542 382 531 371 b 565 313 531 329 544 313 b 601 347 586 313 601 329 z m -181 217 b -214 253 -181 238 -193 253 b -250 217 -235 253 -250 238 b -214 181 -250 196 -235 181 b -181 217 -193 181 -181 196 z m -50 217 z m 79 217 b 44 253 79 238 63 253 b 8 217 24 253 8 238 b 44 181 8 196 24 181 b 79 188 63 181 79 201 b 42 185 79 203 58 185 b 6 181 26 185 6 164 b 38 186 6 165 24 186 b 74 NaN 53 186 74 NaN z m 206 NaN z m -576 NaN b -612 NaN -576 NaN -592 NaN b -649 NaN -633 NaN -649 NaN b -647 NaN -649 NaN -633 NaN b -683 NaN -662 NaN -683 NaN b -649 NaN -683 NaN -662 NaN b -643 NaN -631 NaN -643 NaN b -676 NaN -643 NaN -658 NaN b -682 NaN -697 NaN -682 NaN b -649 NaN -682 NaN -669 NaN z m -518 NaN b -553 NaN -518 NaN -535 NaN b -589 NaN -574 NaN -589 NaN b -553 NaN -589 NaN -574 NaN b -518 NaN -535 NaN -518 NaN z m -387 NaN z m -258 NaN b -294 NaN -258 NaN -274 NaN b -329 NaN -315 NaN -329 NaN b -329 NaN -329 NaN -315 NaN b -335 NaN -314 NaN -335 NaN b -336 NaN -335 NaN -353 NaN b -333 NaN -351 NaN -333 NaN b NaN NaN -333 NaN -312 NaN z m NaN NaN z m NaN NaN b NaN NaN NaN NaN NaN NaN b NaN NaN NaN NaN NaN NaN b NaN NaN NaN NaN NaN NaN b NaN NaN NaN NaN NaN NaN b NaN NaN NaN NaN NaN NaN b NaN NaN NaN NaN NaN NaN b NaN NaN NaN NaN NaN NaN z m NaN NaN z m NaN NaN b NaN NaN NaN NaN NaN NaN b NaN NaN NaN NaN NaN NaN b NaN NaN NaN NaN NaN NaN b NaN NaN NaN NaN NaN NaN b NaN NaN NaN NaN NaN NaN b NaN NaN NaN NaN NaN NaN b NaN NaN NaN NaN NaN NaN z m NaN NaN b NaN NaN NaN NaN NaN NaN b NaN NaN NaN NaN NaN NaN b NaN NaN NaN NaN NaN NaN b NaN NaN NaN NaN NaN NaN z m NaN NaN z m NaN NaN b NaN NaN NaN NaN NaN NaN b NaN NaN NaN NaN NaN NaN b NaN NaN NaN NaN NaN NaN b NaN NaN NaN NaN NaN NaN b NaN NaN NaN NaN NaN NaN b NaN NaN NaN NaN NaN NaN b NaN NaN NaN NaN NaN NaN z m NaN NaN z m NaN NaN b NaN NaN NaN NaN NaN NaN b NaN NaN NaN NaN NaN NaN b NaN NaN NaN NaN NaN NaN b NaN NaN NaN NaN NaN NaN b NaN NaN NaN NaN NaN NaN b NaN NaN NaN NaN NaN NaN b NaN NaN NaN NaN NaN NaN z m NaN NaN z "},"▤":{"ha":-942,"x_min":0,"x_max":0,"o":"m -46 -140 z m -46 -381 z m -46 -618 z m -46 -853 z m -46 -1096 z m -46 -1335 z m -46 -1567 z "},"▥":{"ha":0,"x_min":0,"x_max":0,"o":"m -987 -46 l -893 -46 l -893 -986 l -987 -986 z m -849 -46 l -747 -46 l -747 -986 l -849 -986 z m -703 -46 l -611 -46 l -611 -986 l -703 -986 z m -567 -46 l -468 -46 l -468 -986 l -567 -986 z m -424 -46 l -324 -46 l -324 -986 l -424 -986 z m -279 -46 l -185 -46 l -185 -986 l -279 -986 z m -140 -46 l -46 -46 l -46 -986 l -140 -986 z "},"▨":{"ha":0,"x_min":0,"x_max":0,"o":"m -706 -46 l -540 -46 l -987 -492 l -987 -326 z m -987 -789 l -243 -46 l -81 -46 l -987 -953 z m -474 -46 l -310 -46 l -987 -722 l -987 -558 z m -987 -46 l -772 -46 l -987 -260 l -954 649 l -46 NaN l -46 NaN l -790 NaN z m -724 NaN l -46 NaN l -46 NaN l -560 NaN z m -493 NaN l -46 NaN l -46 NaN l -329 NaN z m -262 NaN l -46 NaN l -46 NaN z "},"▧":{"ha":0,"x_min":0,"x_max":0,"o":"m -790 -46 l -46 -789 l -46 -953 l -953 -46 z m -46 -558 l -46 -722 l -724 -46 l -560 -46 z m -46 -326 l -46 -492 l -493 -46 l -328 -46 z m -46 -46 l -46 -260 l -261 -46 z m -987 -242 l -987 -78 l -79 -986 l -243 -986 z m -987 -472 l -987 -308 l -310 -986 l -474 -986 z m -987 -703 l -987 -539 l -540 -986 l -704 -986 z m -987 -986 l -987 -769 l -771 -986 z "},"▦":{"ha":-987,"x_min":0,"x_max":0,"o":""},"▩":{"ha":-908,"x_min":0,"x_max":0,"o":"m -953 -46 l -790 -46 l -872 -126 z m -642 -128 l -724 -46 l -560 -46 z m -410 -129 l -493 -46 l -326 -46 z m -261 -46 l -82 -46 l -172 -135 z m -46 -75 l -46 -260 l -139 -168 z m -987 -242 l -987 -78 l -906 -160 z m -758 -78 l -675 -161 l -757 -242 l -839 -160 z m -526 -79 l -443 -161 l -526 -243 l -608 -161 z m -294 -79 l -206 -168 l -287 -251 l -378 -161 z m -954 -275 z m -725 -112 l -642 -194 l -722 -276 l -806 -193 z m -575 -194 l -493 -114 l -403 -201 l -485 -283 z m -337 -201 l -253 -118 l -161 -211 l -244 -294 z m -1069 -390 l -1069 -226 l -987 -308 z m -921 -308 z m -690 -146 l -601 -235 l -682 -317 l -771 -228 z m -451 -153 l -360 -244 l -442 -328 l -533 -235 z m -293 -246 l -210 -162 l -210 -329 z m -1118 -342 z m -969 -260 l -887 -178 l -799 -268 l -879 -349 z m -650 -186 l -556 -279 l -639 -360 l -731 -268 z m -490 -279 l -408 -197 l -325 -279 l -407 -361 z m -1233 -293 l -1151 -375 l -1233 -456 l -1085 -375 l -1165 -467 l -1074 NaN z m -832 NaN l -751 NaN l -668 NaN l -750 NaN z m -601 NaN l -519 NaN l -519 NaN z m -1346 NaN l -1346 NaN l -1428 NaN l -1428 NaN l -1250 NaN l -1161 NaN z m -1012 NaN z m -864 NaN l -771 NaN l -851 NaN l -946 NaN l -864 NaN l -864 NaN z m -1776 NaN l -1683 NaN l -1589 NaN z m -1524 NaN l -1440 NaN l -1358 NaN z m -1292 NaN l -1210 NaN l -1128 NaN z m -1061 NaN l -979 NaN l -897 NaN z "},"♨":{"ha":0,"x_min":0,"x_max":0,"o":"m 765 397 b 710 747 739 542 663 613 b 706 975 742 839 724 935 b 685 972 699 990 685 993 b 653 843 685 943 679 897 b 624 504 615 765 547 674 b 625 203 638 474 681 332 b 614 32 592 125 601 61 b 638 33 619 19 636 17 b 679 135 639 51 651 83 b 765 397 707 186 781 315 z m 568 363 b 511 703 554 501 489 622 b 525 911 542 814 535 883 b 506 910 521 922 510 925 b 474 826 500 883 489 853 b 443 479 415 725 392 606 b 433 182 485 378 453 235 b 435 47 411 122 424 71 b 458 47 444 31 457 32 b 492 133 460 64 468 89 b 568 363 539 222 574 307 z m 949 414 b 886 707 938 553 868 579 b 869 906 901 813 885 876 b 850 903 860 926 850 919 b 832 807 850 879 844 839 b 832 483 794 710 769 624 b 796 176 874 389 828 260 b 790 39 779 133 779 65 b 810 39 796 22 806 29 b 849 140 814 56 825 94 b 949 414 879 200 960 275 z m 1221 140 b 982 335 1221 264 1036 328 b 976 313 964 339 954 319 b 1136 160 1026 297 1136 236 b 676 -11 1136 54 897 -11 b 215 131 454 -11 215 36 b 406 322 215 242 390 315 b 403 347 429 331 424 354 b 114 103 326 325 114 251 b 675 -150 114 -46 382 -150 b 1221 140 967 -150 1221 -31 z "},"☏":{"ha":0,"x_min":0,"x_max":0,"o":"m 1267 457 b 1228 676 1290 494 1281 610 b 668 849 1135 793 894 849 b 108 676 442 849 201 793 b 69 457 56 610 46 494 b 254 461 92 418 182 442 b 375 538 313 476 368 503 b 357 649 383 565 349 622 b 431 690 364 688 394 689 b 414 522 436 646 439 611 b 285 338 386 424 343 386 b 185 99 189 258 185 153 b 156 -15 156 86 153 24 b 203 -37 157 -32 175 -37 b 1101 76 1133 1 1131 64 b 1001 315 1101 131 1097 236 b 872 500 943 364 899 401 b 856 668 844 589 850 624 b 929 626 892 667 924 665 b 911 515 933 600 903 543 b 1032 439 918 481 974 456 b 1217 435 1104 418 1194 396 z m 1165 465 b 967 521 1096 457 1006 490 b 969 656 946 538 994 603 b 769 715 951 693 893 715 b 706 707 750 715 729 711 b 618 694 674 700 649 694 b 531 707 588 694 563 700 b 467 715 506 711 486 715 b 265 656 343 715 282 692 b 269 521 242 603 290 538 b 69 465 229 489 142 458 b 144 676 49 468 38 596 b 618 786 225 742 425 786 b 1090 676 764 786 1010 742 b 1165 465 1193 593 1189 468 z m 1064 -11 l 172 -11 b 186 78 163 -11 156 58 b 250 263 186 119 201 218 b 390 435 333 339 365 369 b 424 667 425 525 429 608 l 479 667 l 479 543 l 757 543 l 757 667 l 811 667 b 844 435 807 608 813 525 b 986 263 871 369 901 339 b 1050 78 1035 218 1050 119 b 1064 -11 1078 58 1074 -11 z m 711 665 l 711 585 l 525 585 l 525 665 b 618 651 547 657 582 651 b 711 665 651 651 689 657 z m 842 260 b 618 483 842 382 740 483 b 394 260 496 483 394 382 b 618 36 394 139 496 36 b 842 260 740 36 842 139 z m 789 260 b 618 89 789 164 713 89 b 446 260 522 89 446 164 b 618 432 446 356 522 432 b 789 260 713 432 789 356 z "},"☎":{"ha":0,"x_min":0,"x_max":0,"o":"m 1256 456 b 1217 672 1278 493 1268 607 b 668 840 1125 788 890 840 b 119 672 446 840 211 788 b 81 456 68 607 58 493 b 263 460 103 418 192 442 b 381 535 319 476 374 501 b 358 644 389 563 351 618 b 435 696 365 682 400 690 b 419 519 440 653 443 607 b 292 339 393 424 350 386 b 194 104 197 263 194 158 b 165 -7 165 93 163 31 b 213 -29 167 -24 185 -29 b 1092 82 1124 8 1121 71 b 994 317 1092 136 1086 238 b 867 497 938 365 893 401 b 851 674 843 585 846 631 b 928 622 886 668 919 660 b 906 513 933 596 897 540 b 1024 438 913 479 967 454 b 1206 433 1094 419 1183 396 z m 726 678 l 726 588 l 510 588 l 510 678 b 618 664 536 671 578 664 b 726 678 658 664 700 671 z m 822 267 b 618 64 822 154 731 64 b 414 267 506 64 414 154 b 618 471 414 379 506 471 b 822 267 731 471 822 379 z "},"☜":{"ha":0,"x_min":0,"x_max":0,"o":"m 1061 285 l 1061 256 l 1167 256 l 1167 583 l 1063 583 l 1063 539 l 1050 539 b 979 547 1029 539 1003 542 b 679 629 894 625 785 629 l 639 629 b 240 622 485 629 292 626 b 76 568 149 615 76 615 b 249 508 76 511 169 513 b 486 499 351 503 399 501 l 490 488 b 376 432 410 488 376 472 b 426 386 376 400 401 389 b 411 350 417 376 411 367 l 411 344 b 464 299 413 317 439 299 b 442 264 451 290 442 281 b 443 254 442 261 442 257 b 519 208 450 224 486 214 b 656 201 550 203 603 201 b 788 208 706 201 756 203 b 1021 285 907 229 972 256 z m 1063 515 l 1063 301 l 1035 301 l 1038 313 l 1038 314 b 1035 318 1038 317 1036 318 b 1028 314 1033 318 1031 317 b 747 228 969 276 892 240 b NaN NaN 746 228 736 NaN b NaN NaN NaN NaN NaN NaN b NaN NaN NaN NaN NaN NaN b NaN NaN NaN NaN NaN NaN b NaN NaN NaN NaN NaN NaN l NaN NaN b NaN NaN NaN NaN NaN NaN b NaN NaN NaN NaN NaN NaN b NaN NaN NaN NaN NaN NaN b NaN NaN NaN NaN NaN NaN l NaN NaN b NaN NaN NaN NaN NaN NaN b NaN NaN NaN NaN NaN NaN b NaN NaN NaN NaN NaN NaN b NaN NaN NaN NaN NaN NaN b NaN NaN NaN NaN NaN NaN b NaN NaN NaN NaN NaN NaN b NaN NaN NaN NaN NaN NaN b NaN NaN NaN NaN NaN NaN b NaN NaN NaN NaN NaN NaN b NaN NaN NaN NaN NaN NaN b NaN NaN NaN NaN NaN NaN b NaN NaN NaN NaN NaN NaN b NaN NaN NaN NaN NaN NaN b NaN NaN NaN NaN NaN NaN b NaN NaN NaN NaN NaN NaN b NaN NaN NaN NaN NaN NaN b NaN NaN NaN NaN NaN NaN b NaN NaN NaN NaN NaN NaN b NaN NaN NaN NaN NaN NaN b NaN NaN NaN NaN NaN NaN b NaN NaN NaN NaN NaN NaN b NaN NaN NaN NaN NaN NaN b NaN NaN NaN NaN NaN NaN b NaN NaN NaN NaN NaN NaN b NaN NaN NaN NaN NaN NaN b NaN NaN NaN NaN NaN NaN b NaN NaN NaN NaN NaN NaN l NaN NaN b NaN NaN NaN NaN NaN NaN b NaN NaN NaN NaN NaN NaN z m NaN NaN b NaN NaN NaN NaN NaN NaN l NaN NaN b NaN NaN NaN NaN NaN NaN b NaN NaN NaN NaN NaN NaN b NaN NaN NaN NaN NaN NaN b NaN NaN NaN NaN NaN NaN z m NaN NaN l NaN NaN l NaN NaN l NaN NaN z m NaN NaN b NaN NaN NaN NaN NaN NaN b NaN NaN NaN NaN NaN NaN b NaN NaN NaN NaN NaN NaN b NaN NaN NaN NaN NaN NaN l NaN NaN b NaN NaN NaN NaN NaN NaN b NaN NaN NaN NaN NaN NaN b NaN NaN NaN NaN NaN NaN b NaN NaN NaN NaN NaN NaN z m NaN NaN l NaN NaN b NaN NaN NaN NaN NaN NaN b NaN NaN NaN NaN NaN NaN b NaN NaN NaN NaN NaN NaN b NaN NaN NaN NaN NaN NaN b NaN NaN NaN NaN NaN NaN b NaN NaN NaN NaN NaN NaN b NaN NaN NaN NaN NaN NaN b NaN NaN NaN NaN NaN NaN z m NaN NaN l NaN NaN b NaN NaN NaN NaN NaN NaN b NaN NaN NaN NaN NaN NaN b NaN NaN NaN NaN NaN NaN b NaN NaN NaN NaN NaN NaN l NaN NaN b NaN NaN NaN NaN NaN NaN b NaN NaN NaN NaN NaN NaN b NaN NaN NaN NaN NaN NaN b NaN NaN NaN NaN NaN NaN z "},"☞":{"ha":0,"x_min":0,"x_max":0,"o":"m 1204 568 b 1040 622 1204 615 1132 617 b 642 629 989 625 796 629 l 601 629 b 301 547 496 629 386 625 b 229 539 276 542 250 539 l 218 539 l 218 583 l 114 583 l 114 256 l 219 256 l 219 285 l 260 285 b 493 208 308 256 374 229 b 624 201 525 203 575 201 b 761 208 678 201 731 204 b 838 254 794 213 831 224 l 839 264 b 817 299 839 281 829 290 b 869 344 842 299 868 317 l 869 350 b 854 386 869 367 863 376 b 904 432 879 389 904 400 b 790 488 904 472 871 488 l 794 499 b 1032 508 882 501 929 503 b 1204 568 1111 513 1204 511 z m 772 503 b 774 497 774 501 774 499 b 760 489 774 493 769 489 b 729 496 751 489 742 490 b 665 542 696 508 675 542 b 660 533 661 542 660 536 b 668 519 660 529 663 524 b 625 513 658 515 639 513 b 611 514 619 513 615 513 b 554 538 579 522 561 538 b 551 532 553 538 551 535 b 572 504 551 524 560 513 b 463 432 561 488 521 451 b 335 401 389 407 335 418 b 361 394 335 397 344 394 b 456 408 388 394 428 400 b 594 501 532 432 579 481 b 626 496 603 496 617 496 b 685 506 653 497 675 503 l 706 488 b 615 453 657 488 622 475 b 613 435 614 446 613 440 b 631 396 613 418 619 404 b 588 357 604 389 592 376 l 588 349 b 608 313 588 329 596 321 b 563 265 579 306 563 290 b 581 228 563 243 578 229 b 560 225 574 226 568 225 b 533 228 551 225 542 226 b 253 314 389 240 311 276 b 246 317 250 317 247 317 b 243 314 244 317 243 317 l 243 313 l 246 301 l 218 301 l 218 515 b 231 514 221 515 226 514 b 279 519 246 514 267 517 l 276 508 b 275 499 275 504 275 500 b 278 493 275 494 275 493 b 288 NaN 283 493 288 NaN b 368 NaN 303 NaN 329 NaN b 579 NaN 413 NaN 514 NaN b 625 NaN 599 NaN 614 NaN b 717 NaN 651 NaN 690 NaN b 747 NaN 731 NaN 739 NaN b 774 NaN 754 NaN 763 NaN z m 1182 NaN b 1040 NaN 1182 NaN 1143 NaN b 781 NaN 925 NaN 857 NaN l 751 NaN b 696 NaN 738 NaN 721 NaN b 1040 NaN 786 NaN 915 NaN b 1182 NaN 1129 NaN 1182 NaN z m 138 NaN l 199 NaN l 199 NaN l 138 NaN z m 883 NaN l 883 NaN b 856 NaN 883 NaN 874 NaN b 786 NaN 835 NaN 811 NaN b 669 NaN 742 NaN 696 NaN b 643 NaN 654 NaN 643 NaN b 671 NaN 643 NaN 650 NaN b 778 NaN 708 NaN 744 NaN b 857 NaN 806 NaN 831 NaN b 883 NaN 874 NaN 883 NaN z m 847 NaN b 813 NaN 847 NaN 838 NaN b 678 NaN 797 NaN 718 NaN b 654 NaN 664 NaN 654 NaN b 611 NaN 636 NaN 613 NaN l 611 NaN b 650 NaN 611 NaN 625 NaN b 714 NaN 660 NaN 686 NaN b 815 NaN 753 NaN 796 NaN b 847 NaN 833 NaN 847 NaN z m 813 NaN l 813 NaN b 788 NaN 811 NaN 803 NaN b 690 NaN 758 NaN 724 NaN b 629 NaN 668 NaN 647 NaN b 588 NaN 601 NaN 588 NaN l 588 NaN b 631 NaN 589 NaN 614 NaN b 699 NaN 651 NaN 675 NaN b 788 NaN 731 NaN 764 NaN b 813 NaN 804 NaN 813 NaN z "},"¶":{"ha":-19,"x_min":0,"x_max":0,"o":"m 335 454 l 401 454 l 401 -210 l 503 -210 l 503 886 l 622 886 l 622 -210 l 724 -210 l 724 976 l 379 976 b 46 714 135 976 46 857 b 335 454 46 544 181 454 z "},"†":{"ha":-160,"x_min":0,"x_max":0,"o":"m 49 571 l 279 571 l 279 -135 l 415 -135 l 415 571 l 644 571 l 644 694 l 415 694 l 415 464 z "},"‡":{"ha":-151,"x_min":0,"x_max":0,"o":"m 283 435 l 53 435 l 53 313 l 283 313 l 283 -135 l 419 -135 l 419 313 l 647 313 l 647 435 l 419 435 l 419 571 l 647 571 l 647 694 l 419 694 l 419 464 l 296 464 l 296 694 z "},"↕":{"ha":-39,"x_min":0,"x_max":0,"o":"m 449 182 l 1040 361 l 1146 NaN "},"↗":{"ha":265,"x_min":0,"x_max":0,"o":"m 882 857 l 58 35 l 117 -25 l 940 799 l 992 597 l 1025 596 l 1060 976 l 679 942 l 681 908 z "},"↙":{"ha":267,"x_min":0,"x_max":0,"o":"m 236 99 l 1061 921 l 1003 979 l 179 156 l 126 357 l 93 360 l 58 -22 l 440 13 l 438 46 z "},"↖":{"ha":265,"x_min":0,"x_max":0,"o":"m 178 799 l 1001 -25 l 1060 35 l 236 857 l 438 908 l 439 942 l 58 976 l 93 596 l 126 597 z "},"↘":{"ha":267,"x_min":0,"x_max":0,"o":"m 940 156 l 117 979 l 58 921 l 883 99 l 682 46 l 679 13 l 1061 -22 l 1026 360 l 993 357 z "},"♭":{"ha":-135,"x_min":0,"x_max":0,"o":"m 581 369 b 419 565 581 489 508 565 b 225 433 294 565 246 492 l 225 889 l 138 889 l 138 -35 b 581 369 324 -25 581 56 z m 475 318 b 225 33 475 115 333 42 l 225 331 b 376 494 225 396 272 494 b 475 318 438 494 475 419 z "},"♩":{"ha":-314,"x_min":0,"x_max":0,"o":"m 400 160 l 400 919 l 347 919 l 347 163 b 229 122 303 156 265 143 b 158 -65 161 82 108 -8 b 351 -14 208 -122 301 -74 b 400 160 392 33 400 81 z "},"♪":{"ha":-104,"x_min":0,"x_max":0,"o":"m 665 471 b 444 781 665 556 604 643 b 347 879 394 824 371 851 b 304 913 325 904 317 913 b 292 857 292 913 292 881 l 292 163 b 174 122 247 156 210 143 b 103 -65 106 82 53 -8 b 296 -14 153 -122 246 -74 b 344 160 336 33 344 81 l 344 632 b 586 439 426 607 586 560 b 449 171 586 313 497 218 b 463 154 435 157 442 142 b 611 297 513 183 575 242 b 665 471 650 357 665 415 z "},"♬":{"ha":110,"x_min":0,"x_max":0,"o":"m 886 265 l 886 896 l 293 776 l 293 157 l 603 157 l 1085 261 z m 1029 751 l 1029 499 l 949 499 l 467 396 l 467 476 z "},"㉿":{"ha":397,"x_min":0,"x_max":0,"o":"m 24 389 l 303 389 l 303 490 l 131 490 b 625 921 169 740 381 921 b 1078 618 815 921 1000 803 l 1192 618 b 625 1018 1106 857 890 1018 b 24 418 292 1018 24 750 z m 414 111 l 533 111 l 533 372 l 539 379 l 772 111 l 929 111 l 618 449 l 885 747 l 738 510 l 738 753 l 618 753 z m 829 -183 b 1432 418 1160 -183 1432 75 b 1428 490 1432 442 1431 467 l 1053 490 l 1053 389 l 1329 389 b 829 -83 1315 126 1103 -83 b 353 286 599 -83 413 68 l 243 286 b 829 -183 304 13 547 -183 z "},"㈜":{"ha":424,"x_min":0,"x_max":0,"o":"m 319 1069 z m 1069 1069 b NaN 668 1069 840 956 668 z m NaN 319 l NaN 388 l NaN 388 l NaN 475 l NaN 475 l NaN 388 l NaN 388 b NaN 163 NaN 258 NaN 175 l NaN 76 b NaN 224 NaN 85 NaN 136 l NaN 78 l NaN 160 l NaN 299 b NaN 388 NaN 326 NaN 356 z m NaN -87 l NaN 3 l NaN 3 l NaN -87 l NaN -87 l NaN -344 l NaN -344 l NaN -87 z "},"№":{"ha":0,"x_min":0,"x_max":0,"o":"m 167 997 l 58 997 l 58 -115 l 169 -115 l 169 421 b 167 756 169 542 168 650 l 168 756 b 249 514 192 672 218 594 l 499 -108 l 607 -108 l 607 1004 l 496 1004 l 496 469 b 500 135 496 344 497 243 l 497 133 b 417 372 474 217 447 293 z m 913 -135 b 1160 -49 1068 -135 1160 -226 b 828 -296 1160 -204 1006 -296 b 504 -382 589 -296 350 -204 z m 504 -278 b 360 35 404 -278 360 -132 b 504 347 360 201 404 347 b 650 35 606 347 650 201 b 504 -278 650 -132 606 -278 "},"㏇":{"ha":0,"x_min":0,"x_max":0,"o":"m 332 -140 b 599 275 490 -140 597 29 l 486 275 b 333 -33 489 97 419 -33 b 151 442 211 -33 151 163 b 333 917 151 721 211 917 b 485 636 415 917 485 813 l 596 636 b 332 1024 593 883 486 1024 b 40 442 144 1024 40 797 b 332 -140 40 86 144 -140 z m 919 -140 b 1197 442 1090 -140 1197 74 b 919 1024 1197 810 1090 1024 b 643 442 750 1024 643 810 b 919 -140 643 74 750 -140 z m 919 -35 b 754 442 810 -35 754 179 b 919 918 754 704 810 918 b 1085 442 1031 918 1085 704 b 919 -35 1085 179 1031 -35 "},"™":{"ha":0,"x_min":0,"x_max":0,"o":""},"㏂":{"ha":0,"x_min":0,"x_max":0,"o":"m 200 -135 b 383 -40 318 -135 383 -93 b NaN NaN 383 22 401 NaN l NaN NaN l NaN NaN l NaN NaN l NaN NaN l NaN NaN b NaN NaN NaN NaN NaN NaN b NaN NaN NaN NaN NaN NaN b NaN NaN NaN NaN NaN NaN b NaN NaN NaN NaN NaN NaN b NaN NaN NaN NaN NaN NaN b NaN NaN NaN NaN NaN NaN b NaN NaN NaN NaN NaN NaN z m NaN NaN b NaN NaN NaN NaN NaN NaN b NaN NaN NaN NaN NaN NaN b NaN NaN NaN NaN NaN NaN b NaN NaN NaN NaN NaN NaN z m NaN NaN b NaN NaN NaN NaN NaN NaN "},"㏘":{"ha":0,"x_min":0,"x_max":0,"o":"m 143 679 l 283 679 l 283 582 l -849 582 l -849 679 l -412 679 b -292 694 -272 679 -337 694 b NaN NaN -344 694 -279 NaN b NaN NaN NaN NaN NaN NaN b NaN NaN NaN NaN NaN NaN b NaN NaN NaN NaN NaN NaN b NaN NaN NaN NaN NaN NaN b NaN NaN NaN NaN NaN NaN b NaN NaN NaN NaN NaN NaN b NaN NaN NaN NaN NaN NaN z m NaN NaN b NaN NaN NaN NaN NaN NaN b NaN NaN NaN NaN NaN NaN b NaN NaN NaN NaN NaN NaN b NaN NaN NaN NaN NaN NaN z m NaN NaN b NaN NaN NaN NaN NaN NaN "},"℡":{"ha":0,"x_min":0,"x_max":0,"o":"m 1243 1018 l 1117 1018 l 1117 -115 l 1243 -115 z m 33 882 l 260 879 l 260 -118 l 388 -118 l 388 879 l 614 882 l 614 997 l 33 997 z m 753 -135 b 1007 108 888 -135 983 -28 l 890 108 b 753 -22 876 40 825 -22 b 594 232 651 -22 601 86 l 1024 232 b 1025 282 1025 249 1025 267 b 753 699 1025 521 919 699 b 479 282 588 699 479 521 b 753 -135 479 43 581 -135 z m 913 333 l 594 333 b 753 588 601 481 656 588 b 913 333 850 588 904 481 z "},"！":{"ha":0,"x_min":0,"x_max":0,"o":"m 757 997 l 581 997 l 615 193 l 721 193 z m 668 -137 "},"＂":{"ha":0,"x_min":0,"x_max":0,"o":"l 618 0 l 632 -310 m 739 0 l 604 0 l 618 -310 l 725 -310 z "},"＃":{"ha":0,"x_min":0,"x_max":0,"o":""},"＄":{"ha":0,"x_min":0,"x_max":0,"o":"m 1089 199 b 732 450 1089 351 982 450 b 844 451 861 450 844 529 b 619 383 844 464 754 396 z "},"％":{"ha":0,"x_min":0,"x_max":0,"o":"m 331 496 z m 967 997 l 1126 1113 l 1240 1264 l 1392 1149 l 1506 989 l 771 -124 l 907 -124 l 1642 989 "},"＆":{"ha":0,"x_min":0,"x_max":0,"o":""},"＇":{"ha":0,"x_min":0,"x_max":0,"o":"l 735 0 l 749 -310 l 856 -310 "},"（":{"ha":0,"x_min":0,"x_max":0,"o":"m 1103 -169 l 1256 -169 b 986 450 1096 -7 986 204 b 1256 1069 986 696 1096 907 l 1103 1069 b 844 450 947 903 844 703 b 1103 -169 844 197 947 -3 z "},"）":{"ha":0,"x_min":0,"x_max":0,"o":""},"＊":{"ha":0,"x_min":0,"x_max":0,"o":""},"＋":{"ha":0,"x_min":0,"x_max":0,"o":"m 994 501 l 736 501 l 736 767 l 599 767 l 599 501 l 342 501 l 342 379 l 599 379 l 599 114 l 736 114 l 736 379 l 994 379 z "},"，":{"ha":0,"x_min":0,"x_max":0,"o":"m 757 53 l 622 53 l 579 -257 l 690 -257 z "},"－":{"ha":0,"x_min":0,"x_max":0,"o":"m 911 481 l 425 481 l 425 356 l 911 356 z "},"．":{"ha":0,"x_min":0,"x_max":0,"o":""},"／":{"ha":0,"x_min":0,"x_max":0,"o":"m 994 1090 l 850 1090 l 342 -208 l 486 -208 z "},"０":{"ha":0,"x_min":0,"x_max":0,"o":""},"１":{"ha":0,"x_min":0,"x_max":0,"o":"m 710 869 l 710 -115 l 856 -115 l 856 997 l 479 997 l 479 869 z "},"２":{"ha":0,"x_min":0,"x_max":0,"o":"m 286 -21 l 286 -115 l 1060 -115 l 1060 11 l 496 11 l 788 297 z "},"３":{"ha":0,"x_min":0,"x_max":0,"o":"m 668 -140 b 1065 189 903 -140 1065 1 b 833 451 1065 342 946 431 b 1035 707 936 476 1035 571 b 657 1025 1035 882 886 1025 b 281 675 429 1025 281 871 l 425 675 b 656 900 425 793 507 900 b 890 703 803 900 890 810 b 650 507 890 588 793 507 l 528 507 l 528 386 l 650 386 b 921 186 819 386 921 311 b 668 -15 921 76 824 -15 b 415 199 511 -15 419 79 l 271 199 b 668 -140 279 4 428 -140 z "},"４":{"ha":0,"x_min":0,"x_max":0,"o":"m 786 136 l 786 -115 l 258 -853 l 258 -976 z m 819 -853 l 408 -853 l 819 -275 z "},"５":{"ha":0,"x_min":0,"x_max":0,"o":""},"６":{"ha":0,"x_min":0,"x_max":0,"o":""},"７":{"ha":0,"x_min":0,"x_max":0,"o":"m 879 869 l 426 -115 l 581 -115 l 1047 900 l 1047 997 l 285 997 l 285 869 z "},"８":{"ha":0,"x_min":0,"x_max":0,"o":"m 668 -140 b 1061 176 900 -140 1061 -10 b 828 461 1061 344 929 438 b 1022 719 914 488 1022 578 b 668 1024 1022 885 879 1024 b 313 719 456 1024 313 886 b 507 461 313 578 421 488 b 274 176 407 438 274 344 b 668 -140 274 -10 435 -140 z m 668 526 b 453 718 542 526 453 611 b 668 901 453 821 538 901 b 883 715 799 901 883 818 b 668 526 883 610 794 526 z m 668 -18 b 415 185 514 -18 415 69 b 668 392 415 301 522 392 b 919 185 813 392 919 301 b 668 -18 919 69 821 -18 z "},"９":{"ha":0,"x_min":0,"x_max":0,"o":""},"：":{"ha":0,"x_min":0,"x_max":0,"o":"m 668 619 b 571 522 613 619 571 576 b 668 425 571 468 613 425 z m 668 -126 z "},"；":{"ha":0,"x_min":0,"x_max":0,"o":"m 671 619 b 768 717 726 619 768 663 b 671 814 768 771 726 814 b 575 717 617 814 575 771 b 671 619 575 663 617 619 z m 751 251 l 611 251 l 568 -58 l 683 -58 z "},"＜":{"ha":0,"x_min":0,"x_max":0,"o":"m 300 522 l 300 382 l 896 7 l 896 157 l 425 453 l 896 750 l 896 897 z "},"＝":{"ha":0,"x_min":0,"x_max":0,"o":"m 974 696 l 363 696 l 363 575 l 974 575 z m 974 306 l 363 306 l 363 185 l 974 185 z "},"＞":{"ha":0,"x_min":0,"x_max":0,"o":"m 771 453 l 300 157 l 300 7 l 896 382 l 896 522 l 300 897 l 300 750 z "},"？":{"ha":0,"x_min":0,"x_max":0,"o":"m 592 193 l 728 193 b 869 467 728 304 747 382 b 1025 721 971 539 1025 621 b 671 1025 1025 894 896 1025 b 311 699 460 1025 314 876 l 451 699 b 672 899 456 794 529 899 b 885 721 807 899 885 828 b 746 526 885 644 839 593 b 592 193 626 444 592 354 z m 664 -137 "},"＠":{"ha":0,"x_min":0,"x_max":0,"o":""},"Ａ":{"ha":0,"x_min":0,"x_max":0,"o":""},"Ｂ":{"ha":0,"x_min":0,"x_max":0,"o":"m 675 997 l 221 997 l 221 -115 l 717 -115 b 889 114 817 -92 889 10 b 504 422 889 304 750 422 z m 500 -68 l 196 -68 l 196 296 l 500 296 b 742 114 654 296 742 232 b 500 -68 742 -4 654 -68 z m 542 -564 l 196 -564 l 196 -189 l 542 -189 "},"Ｃ":{"ha":0,"x_min":0,"x_max":0,"o":""},"Ｄ":{"ha":0,"x_min":0,"x_max":0,"o":"m 563 997 l 168 997 l 168 -115 l 563 -115 "},"Ｅ":{"ha":0,"x_min":0,"x_max":0,"o":"m 1069 997 l 267 997 l 267 -115 l 1069 -115 l 1069 14 l 413 14 l 413 375 l 1008 375 l 1008 504 l 413 504 l 413 868 l 1069 868 z "},"Ｆ":{"ha":0,"x_min":0,"x_max":0,"o":"m 1057 997 l 279 997 l 279 -115 l 425 -115 l 425 354 l 996 354 l 996 485 l 425 483 l 425 867 l 1057 867 z "},"Ｇ":{"ha":0,"x_min":0,"x_max":0,"o":""},"Ｈ":{"ha":0,"x_min":0,"x_max":0,"o":"m 993 997 l 993 506 l 343 506 l 343 997 l 196 997 l 196 -115 l 343 -115 l 343 375 l 993 375 l 993 -115 l 1140 -115 l 1140 997 z "},"Ｉ":{"ha":0,"x_min":0,"x_max":0,"o":"m 742 997 l 594 997 l 594 -115 l 742 -115 z "},"Ｊ":{"ha":0,"x_min":0,"x_max":0,"o":"m 667 -140 b 1092 275 925 -140 1092 24 l 1092 997 l 946 997 l 946 275 b 667 -7 946 106 840 -7 b 390 240 492 -7 393 107 l 244 240 b 667 -140 249 25 407 -140 z "},"Ｋ":{"ha":0,"x_min":0,"x_max":0,"o":""},"Ｌ":{"ha":0,"x_min":0,"x_max":0,"o":"m 436 997 l 289 997 l 289 -115 l 1046 -115 l 1046 17 l 436 17 z "},"Ｍ":{"ha":0,"x_min":0,"x_max":0,"o":"m 239 997 l 111 997 l 111 -115 l 257 -115 l 257 706 z "},"Ｎ":{"ha":0,"x_min":0,"x_max":0,"o":"m 325 997 l 189 997 l 189 -115 l 335 -115 l 335 758 l 1008 -108 l 1146 -108 l 1146 1004 l 999 1004 l 999 131 z "},"Ｏ":{"ha":0,"x_min":0,"x_max":0,"o":"m 668 -140 b 1254 442 1006 -140 1254 106 b 667 1024 1254 778 1006 1024 b 419 1026 329 1024 82 1272 z m 419 1160 b 419 711 167 1160 419 899 b NaN NaN 419 524 167 NaN z "},"Ｐ":{"ha":0,"x_min":0,"x_max":0,"o":"m 636 997 l 242 997 l 242 -115 l 388 -115 l 388 226 l 636 226 b 1094 210 925 226 1094 379 b NaN NaN 1094 361 806 NaN z m NaN NaN l NaN NaN l NaN NaN l NaN NaN b NaN NaN NaN NaN NaN NaN b NaN NaN NaN NaN NaN NaN z "},"Ｑ":{"ha":0,"x_min":0,"x_max":0,"o":"m 1254 442 b 667 1024 1254 778 1006 1024 b 82 1026 329 1024 82 1272 b 211 1461 82 1364 188 1461 b 338 NaN 254 1461 338 NaN l 497 NaN l 613 NaN l 457 NaN b 638 NaN 569 NaN 638 NaN z m 51 NaN b 51 NaN -201 NaN 51 NaN b NaN NaN 51 NaN -25 NaN l NaN NaN l NaN NaN l NaN NaN b NaN NaN NaN NaN NaN NaN z "},"Ｒ":{"ha":0,"x_min":0,"x_max":0,"o":"m 1119 -115 l 842 310 b 1047 418 993 310 1047 396 b 1069 440 1047 439 1049 440 l 1321 44 z m 994 568 l 735 568 l 735 1026 l 994 1026 b 1304 797 1186 1026 1304 947 b 994 568 1304 647 1186 568 z "},"Ｓ":{"ha":0,"x_min":0,"x_max":0,"o":"m 678 -140 b 463 NaN 403 -140 463 NaN b 125 NaN 226 NaN 125 NaN b 397 NaN 125 NaN 224 NaN b 692 NaN 571 NaN 678 NaN l 843 NaN b 404 NaN 829 NaN 649 NaN b -24 NaN 158 NaN -24 NaN b 356 NaN -24 NaN 104 NaN b 697 NaN 596 NaN 697 NaN b 413 NaN 697 NaN 578 NaN b 92 NaN 228 NaN 106 NaN l -58 NaN b 404 NaN -44 NaN 144 NaN z "},"Ｔ":{"ha":0,"x_min":0,"x_max":0,"o":"m 196 867 l 596 864 l 596 -118 l 742 -118 l 742 864 l 1140 867 l 1140 997 l 196 997 z "},"Ｕ":{"ha":0,"x_min":0,"x_max":0,"o":"m 668 -142 b 1154 364 963 -142 1154 58 l 1154 997 l 1007 997 l 1007 364 b 668 -8 1007 140 879 -8 b 329 364 457 -8 329 140 l 329 997 l 182 997 l 182 364 b 668 -142 182 58 374 -142 z "},"Ｖ":{"ha":0,"x_min":0,"x_max":0,"o":""},"Ｗ":{"ha":0,"x_min":0,"x_max":0,"o":"m 1190 997 l 965 90 l 744 997 l 599 997 l 375 89 l 153 997 l 7 997 l 304 -115 l 444 -115 l 669 769 l 892 -115 l 1032 -115 l 1329 997 z "},"Ｘ":{"ha":0,"x_min":0,"x_max":0,"o":"m 186 997 z "},"Ｙ":{"ha":0,"x_min":0,"x_max":0,"o":""},"Ｚ":{"ha":0,"x_min":0,"x_max":0,"o":"m 889 867 l 229 -14 z "},"［":{"ha":0,"x_min":0,"x_max":0,"o":"m 1178 1069 l 796 1069 l 796 -169 l 1178 -169 l 1178 -49 l 933 -49 l 933 949 l 1178 949 z "},"￦":{"ha":0,"x_min":0,"x_max":0,"o":"m 1332 554 l 1172 554 l 1281 997 l 1147 997 l 1047 554 l 836 554 l 740 997 l 601 997 l 506 554 l 293 554 l 196 997 l 56 997 l 164 554 l 4 554 l 4 439 l 193 439 l 329 -115 l 464 -115 l 593 439 l 746 439 l 872 -115 l 1007 -115 l 1143 439 l 1332 439 z m 621 554 l 671 768 l 719 554 z m 400 72 l 319 439 l 481 439 z m 940 74 l 861 439 l 1022 439 z "},"］":{"ha":0,"x_min":0,"x_max":0,"o":"m 403 -49 l 158 -49 l 158 -169 l 540 -169 l 540 1069 l 158 1069 l 158 949 l 403 949 z "},"＾":{"ha":0,"x_min":0,"x_max":0,"o":"m 733 985 l 601 985 l 376 636 l 510 636 l 510 769 z "},"＿":{"ha":0,"x_min":0,"x_max":0,"o":"m 946 -200 l 390 -200 l 390 -319 l 946 -319 z "},"｀":{"ha":0,"x_min":0,"x_max":0,"o":"m 657 1092 l 488 1092 l 706 847 l 849 847 z "},"ａ":{"ha":0,"x_min":0,"x_max":0,"o":""},"ｂ":{"ha":0,"x_min":0,"x_max":0,"o":""},"ｃ":{"ha":0,"x_min":0,"x_max":0,"o":""},"ｄ":{"ha":0,"x_min":0,"x_max":0,"o":""},"ｅ":{"ha":0,"x_min":0,"x_max":0,"o":""},"ｆ":{"ha":0,"x_min":0,"x_max":0,"o":"m 906 681 l 731 681 l 731 796 b 825 899 731 861 765 899 b 892 894 844 899 874 899 l 892 1015 b 800 1024 868 1021 833 1024 b 586 800 664 1024 586 932 l 586 681 l -83 681 l -83 825 l 586 825 l 586 1000 z "},"ｇ":{"ha":0,"x_min":0,"x_max":0,"o":""},"ｈ":{"ha":0,"x_min":0,"x_max":0,"o":"m 443 1018 l 300 1018 l 300 -115 l 443 -115 l 443 296 z "},"ｉ":{"ha":0,"x_min":0,"x_max":0,"o":"m 668 857 b 668 763 722 857 668 803 b 654 668 668 722 614 668 b 668 NaN 614 668 668 NaN z m 740 NaN l 596 NaN l 596 NaN l 740 NaN z "},"ｊ":{"ha":0,"x_min":0,"x_max":0,"o":"b 204 215 128 0 204 86 l 204 92 "},"ｋ":{"ha":0,"x_min":0,"x_max":0,"o":"l 0 868 l 764 868 l 764 725 l -369 725 l -369 868 l -171 868 l -14 1033 "},"ｌ":{"ha":0,"x_min":0,"x_max":0,"o":"m 740 1018 l 596 1018 l 596 -115 l 740 -115 z "},"ｍ":{"ha":0,"x_min":0,"x_max":0,"o":"m 208 679 l 65 679 l 65 -115 l 208 -115 l 208 314 b 414 574 208 457 296 574 b 596 339 525 574 596 488 l 596 -115 l 739 -115 l 739 313 b 944 574 739 457 825 574 b 1126 344 1057 574 1126 488 l 1126 -115 l 1269 -115 l 1269 368 b 978 699 1269 569 1147 699 b 696 532 843 699 743 632 b 449 699 657 633 567 699 b 208 567 315 699 244 625 z "},"ｎ":{"ha":0,"x_min":0,"x_max":0,"o":"m 444 679 l 301 679 l 301 -115 l 444 -115 l 444 296 z "},"ｏ":{"ha":0,"x_min":0,"x_max":0,"o":"m 668 -135 b 1075 -129 903 -135 1075 -307 b 663 -536 1075 -364 840 -536 b 419 -542 424 -536 185 -364 z m 419 -417 b 153 -125 260 -417 153 -292 b 419 167 153 42 260 167 b 686 -125 579 167 686 42 b NaN NaN 686 -250 526 NaN z "},"ｐ":{"ha":0,"x_min":0,"x_max":0,"o":""},"ｑ":{"ha":0,"x_min":0,"x_max":0,"o":""},"ｒ":{"ha":0,"x_min":0,"x_max":0,"o":"m 542 679 l 399 679 l 399 -115 l 542 -115 l 542 296 z "},"ｓ":{"ha":0,"x_min":0,"x_max":0,"o":""},"ｔ":{"ha":0,"x_min":0,"x_max":0,"o":"m 917 681 l 740 681 l 740 921 l 596 921 l 596 681 l 419 681 l 419 554 l 596 554 l 596 -115 l 740 -115 l 740 554 l 917 554 z "},"ｕ":{"ha":0,"x_min":0,"x_max":0,"o":"m 890 -115 l 1033 -115 l 1033 679 l 890 679 l 890 268 z "},"ｖ":{"ha":0,"x_min":0,"x_max":0,"o":""},"ｗ":{"ha":0,"x_min":0,"x_max":0,"o":""},"ｘ":{"ha":0,"x_min":0,"x_max":0,"o":"m 265 681 l 575 289 l 254 -115 l 419 -115 l 663 193 l 906 -115 l 1081 -115 z "},"ｙ":{"ha":0,"x_min":0,"x_max":0,"o":""},"ｚ":{"ha":0,"x_min":0,"x_max":0,"o":""},"｛":{"ha":0,"x_min":0,"x_max":0,"o":"m 1168 -169 l 1168 -49 b 981 111 1049 -49 981 3 l 981 260 b 846 450 981 354 949 426 b 981 640 949 474 981 546 l 981 789 "},"｜":{"ha":0,"x_min":0,"x_max":0,"o":"m 726 1075 l 610 1075 l 610 -175 l 726 -175 z "},"｝":{"ha":0,"x_min":0,"x_max":0,"o":"b 133 214 0 168 39 214 l 133 339 "},"‾":{"ha":0,"x_min":0,"x_max":0,"o":"m 0 1176 l 0 1104 l 1336 1104 l 1336 1176 z "},"￣":{"ha":0,"x_min":0,"x_max":0,"o":"m 0 1176 l 0 1104 l 1336 1104 l 1336 1176 z "},"ㄱ":{"ha":0,"x_min":0,"x_max":0,"o":"m 238 615 l 949 615 l 949 85 l 1093 85 l 1093 742 l 238 742 z "},"ㄲ":{"ha":0,"x_min":0,"x_max":0,"o":"m 218 618 l 489 618 l 489 89 l 628 89 l 628 744 l 218 744 z m 696 618 l 965 618 l 965 89 l 1107 89 l 1107 744 l 696 744 z "},"ㄳ":{"ha":0,"x_min":0,"x_max":0,"o":"m 1225 174 l 963 450 b 1006 753 986 542 1000 644 l 874 764 b 631 215 861 476 785 228 l 631 88 b 918 317 767 94 858 182 l 1135 83 z m 126 618 l 425 618 l 425 86 l 564 86 l 564 744 l 126 744 z "},"ㄴ":{"ha":0,"x_min":0,"x_max":0,"o":"m 382 732 l 240 732 l 240 90 l 1090 90 l 1090 218 l 382 218 z "},"ㄵ":{"ha":0,"x_min":0,"x_max":0,"o":"m 1260 193 l 1001 440 b 1028 610 1015 493 1025 549 l 1215 610 l 1215 733 l 689 733 l 689 610 l 897 610 b 671 235 883 388 788 246 l 671 107 b 953 315 786 114 888 192 l 1175 100 z m 347 729 l 211 729 l 211 107 l 625 107 l 625 233 l 347 233 z "},"ㄶ":{"ha":0,"x_min":0,"x_max":0,"o":"m 989 671 l 989 796 l 854 796 l 854 671 l 597 671 l 597 560 l 1242 560 l 1242 671 z m 301 729 l 165 729 l 165 107 l 579 107 l 579 233 l 301 233 z m 921 494 b 649 282 772 494 649 417 b 921 68 649 147 772 68 b 1193 282 1069 68 1193 147 b 921 494 1193 417 1069 494 z m 921 171 b 769 282 840 171 769 208 b 921 393 769 354 840 393 b 1071 282 1001 393 1071 354 b 921 171 1071 208 1001 171 z "},"ㄷ":{"ha":0,"x_min":0,"x_max":0,"o":"m 1096 732 l 244 732 l 244 100 l 1107 100 l 1107 226 l 385 226 l 385 606 l 1096 606 z "},"ㄸ":{"ha":0,"x_min":0,"x_max":0,"o":"m 632 732 l 224 732 l 224 101 l 632 101 l 632 229 l 361 229 l 361 604 l 632 604 z m 1124 732 l 704 732 l 704 101 l 1132 101 l 1132 229 l 840 229 l 840 604 l 1124 604 z "},"ㄹ":{"ha":0,"x_min":0,"x_max":0,"o":"m 961 475 l 246 475 l 246 76 l 1111 76 l 1111 196 l 382 196 l 382 358 l 1097 358 l 1097 754 l 244 754 l 244 635 l 961 635 z "},"ㄺ":{"ha":0,"x_min":0,"x_max":0,"o":"m 293 193 l 293 358 l 642 358 l 642 754 l 165 754 l 165 638 l 517 638 l 517 474 l 167 474 l 167 76 l 656 76 l 656 193 z m 1039 636 l 1039 76 l 1164 76 l 1164 754 l 710 754 l 710 636 z "},"ㄻ":{"ha":0,"x_min":0,"x_max":0,"o":"m 510 474 l 163 474 l 163 639 l 504 639 l 504 1035 l 35 1035 l 35 918 l 379 918 z m 1040 1035 l 582 1035 l 582 357 l 1040 357 z m 915 915 l 915 475 l 707 475 l 707 915 z "},"ㄼ":{"ha":0,"x_min":0,"x_max":0,"o":"m 293 358 l 635 358 l 635 754 l 165 754 l 165 638 l 510 638 l 510 474 l 163 474 z m 917 1035 l 917 813 l 706 813 l 706 1035 l 582 1035 l 582 357 l 1040 357 l 1040 1035 z m 706 474 l 706 696 l 917 696 l 917 474 z "},"ㄽ":{"ha":0,"x_min":0,"x_max":0,"o":"m 1272 163 l 1013 435 b 1057 754 1038 531 1051 639 b 840 217 925 764 913 471 b 908 294 686 203 818 210 b NaN NaN 968 426 1181 199 l NaN NaN z m NaN NaN l NaN NaN l NaN NaN l NaN NaN l NaN NaN l NaN NaN l NaN NaN z "},"ㄾ":{"ha":0,"x_min":0,"x_max":0,"o":"m 293 358 l 635 358 l 635 754 l 165 754 l 165 638 l 510 638 l 510 474 l 163 474 z m 707 474 l 707 639 l 1018 639 l 1018 754 l 707 754 l 707 917 l 1042 917 l 1042 1035 l 582 1035 l 582 357 l 1056 357 l 1056 474 z "},"ㄿ":{"ha":0,"x_min":0,"x_max":0,"o":"m 1113 194 l 1113 636 l 1189 636 l 1189 756 l 686 756 l 686 636 l 763 636 l 763 194 l 678 194 l 678 76 l 1197 76 l 1197 194 z m 293 358 l 618 358 l 618 754 l 165 754 l 165 638 l 493 638 l 493 474 l 167 474 l 167 76 l 624 76 l 624 193 l 293 193 z m 878 636 l 997 636 l 997 194 l 878 194 z "},"ㅀ":{"ha":0,"x_min":0,"x_max":0,"o":"m 1022 675 l 1022 801 l 889 801 l 889 675 l 665 675 l 665 565 l 1250 565 l 1250 675 z m 288 358 l 614 358 l 614 754 l 160 754 l 160 638 l 489 638 l 489 474 z m 1158 779 b 901 551 1010 779 901 690 b 1158 324 901 413 1010 324 b 1417 551 1307 324 1417 413 b 1158 779 1417 690 1307 779 z m 1158 426 b 1022 551 1079 426 1022 475 b 1158 676 1022 628 1079 676 b 1296 551 1239 676 1296 628 b 1158 426 1296 475 1239 426 z "},"ㅁ":{"ha":0,"x_min":0,"x_max":0,"o":"m 1094 732 l 242 732 l 242 97 l 1094 97 z m 957 604 l 957 224 l 379 224 l 379 604 z "},"ㅂ":{"ha":0,"x_min":0,"x_max":0,"o":"m 958 747 l 958 547 l 378 547 l 378 -107 l 1231 -107 l 1231 547 z m 514 15 l 514 226 l 1094 226 l 1094 15 z "},"ㅃ":{"ha":86,"x_min":0,"x_max":0,"o":"m 521 533 l 342 533 l 342 743 l 219 743 l 219 86 l 638 86 l 638 743 l 521 743 z m 994 743 l 994 533 l 815 533 l 815 743 l 699 743 l 699 86 l 1117 86 l 1117 743 z m 342 206 l 342 414 l 521 414 l 521 206 z m 815 206 l 815 414 l 994 414 l 994 206 z "},"ㅄ":{"ha":86,"x_min":0,"x_max":0,"o":"m 1242 165 l 986 436 b 1028 739 1008 526 1022 629 l 896 749 b 657 207 883 464 811 219 l 657 79 b 940 301 790 86 882 171 l 1151 75 z m 483 536 l 272 536 l 272 742 l 153 742 l 153 86 l 601 86 l 601 742 l 483 742 z m 272 206 l 272 418 l 483 418 l 483 206 z "},"ㅅ":{"ha":0,"x_min":0,"x_max":0,"o":"m 1149 200 l 707 493 b 789 747 746 571 775 657 l 649 774 b 189 229 601 478 390 231 l 189 100 b 644 385 358 101 528 214 l 1075 93 z "},"ㅆ":{"ha":0,"x_min":0,"x_max":0,"o":"m 1174 197 l 936 458 b 983 754 963 547 978 649 l 847 771 b 665 263 836 550 783 340 l 499 472 b 542 754 522 558 536 654 l 403 771 b 176 239 392 519 329 285 l 176 108 b 444 331 297 131 385 213 l 617 113 l 617 108 l 619 108 l 621 110 b 885 326 739 132 825 213 l 1072 111 z "},"ㅇ":{"ha":0,"x_min":0,"x_max":0,"o":"m 668 72 b 1113 414 939 72 1113 213 b 668 757 1113 617 939 757 b 224 414 397 757 224 617 b 668 72 224 213 397 72 z m 668 199 b 368 414 486 199 368 288 b 668 631 368 542 486 631 b 968 414 850 631 968 542 b 668 199 968 288 850 199 z "},"ㅈ":{"ha":0,"x_min":0,"x_max":0,"o":"m 1142 204 l 722 444 b 767 615 744 496 760 553 l 1106 615 l 1106 740 l 232 740 l 232 615 l 621 615 b 206 232 581 372 415 247 l 206 106 b 660 333 390 115 557 192 l 1075 94 z "},"ㅉ":{"ha":0,"x_min":0,"x_max":0,"o":"m 1169 196 l 935 431 b 963 613 950 486 958 547 l 1125 613 l 1125 738 l 694 738 l 694 613 l 826 613 b 663 247 817 447 767 304 l 497 425 b 526 613 513 483 522 546 l 647 613 l 647 738 l 210 738 l 210 613 l 392 613 b 188 231 381 426 321 269 l 188 100 b 446 297 304 124 390 194 l 622 100 b 885 303 742 122 829 196 l 1076 106 z "},"ㅊ":{"ha":0,"x_min":0,"x_max":0,"o":"m 1132 197 l 711 414 b 746 560 729 458 742 507 l 1106 560 l 1106 686 l 736 686 l 736 840 l 594 840 l 594 686 l 231 686 l 231 560 l 600 560 b 207 218 578 369 418 233 l 207 92 b 649 307 392 103 551 181 l 1072 83 z "},"ㅋ":{"ha":0,"x_min":0,"x_max":0,"o":"m 240 757 l 240 631 l 944 631 l 944 401 l 240 401 l 240 276 l 944 276 l 944 43 l 1085 43 l 1085 757 z "},"ㅌ":{"ha":0,"x_min":0,"x_max":0,"o":"m 383 196 l 383 358 l 1083 358 l 1083 474 l 383 474 l 383 635 l 1094 635 l 1094 753 l 246 753 l 246 78 l 1111 78 l 1111 196 z "},"ㅍ":{"ha":0,"x_min":0,"x_max":0,"o":"m 942 231 l 942 610 l 1099 610 l 1099 735 l 238 735 l 238 610 l 394 610 l 394 231 l 228 231 l 228 106 l 1108 106 l 1108 231 z m 531 610 l 806 610 l 806 231 l 531 231 z "},"ㅎ":{"ha":0,"x_min":0,"x_max":0,"o":"m 738 735 l 738 890 l 597 890 l 597 735 l 213 735 l 213 614 l 1124 614 l 1124 735 z m 668 531 b 292 272 457 531 292 439 b 668 14 292 104 457 14 b 1046 272 879 14 1046 104 b 668 531 1046 439 879 531 z m 668 128 b 431 272 531 128 431 181 b 668 417 431 364 531 417 b 906 272 806 417 906 364 b 668 128 906 181 806 128 z "},"ㅏ":{"ha":0,"x_min":0,"x_max":0,"o":"l 697 0 l 697 574 l 918 574 l 918 706 l 697 706 "},"ㅐ":{"ha":0,"x_min":0,"x_max":0,"o":"m 550 1035 l 419 1035 l 419 -124 l 550 -124 l 550 435 l 783 435 l 783 -144 l 915 -144 l 915 1042 l 783 1042 l 783 564 l 550 564 z "},"ㅑ":{"ha":0,"x_min":0,"x_max":0,"o":"l 696 0 l 696 365 l 918 365 l 918 494 l 696 494 l 696 767 l 918 767 l 918 896 l 696 896 "},"ㅒ":{"ha":0,"x_min":0,"x_max":0,"o":"m 549 1035 l 421 1035 l 421 -124 l 549 -124 l 549 236 l 788 236 l 788 -144 l 915 -144 l 915 1042 l 788 1042 l 788 751 l 549 751 z m 788 631 l 788 358 l 549 358 l 549 631 z "},"ㅓ":{"ha":0,"x_min":0,"x_max":0,"o":"m 640 560 l 418 560 l 418 431 l 640 431 l 640 -144 l 778 -144 l 778 1042 l 640 1042 z "},"ㅔ":{"ha":0,"x_min":0,"x_max":0,"o":"l 979 0 l 979 -132 l -207 -132 l -207 0 m -661 708 l -892 708 l -892 578 l -661 578 l -661 21 l -531 21 l -531 1179 l -661 1179 z "},"ㅕ":{"ha":0,"x_min":0,"x_max":0,"o":"m 654 349 l 439 349 l 439 219 l 654 219 l 654 -144 l 790 -144 l 790 1042 l 654 1042 l 654 751 l 439 751 l 439 622 l 654 622 z "},"ㅖ":{"ha":0,"x_min":0,"x_max":0,"o":"l 958 0 l 958 -129 l -228 -129 l -228 0 m -669 508 l -907 508 l -907 382 l -669 382 l -669 21 l -542 21 l -542 1179 l -669 1179 l -669 883 l -907 883 l -907 757 l -669 757 z "},"ㅗ":{"ha":0,"x_min":0,"x_max":0,"o":"m 597 321 l 76 321 l 76 192 l -447 192 l -447 663 l -587 663 z "},"ㅘ":{"ha":0,"x_min":0,"x_max":0,"o":"m -781 128 z "},"ㅙ":{"ha":0,"x_min":0,"x_max":0,"o":"l 0 -478 l -194 -478 l -194 81 l 0 81 l 0 -499 l 129 -499 l 129 688 m -660 192 l -789 192 l -789 -199 l -1011 -199 l -1011 -322 l -754 -322 l -754 -199 b -1018 -243 -818 -226 -915 -239 z "},"ㅚ":{"ha":0,"x_min":0,"x_max":0,"o":"l 1186 0 m 415 319 l 415 -19 l 288 -19 l 288 467 l 417 467 l 379 467 l 379 458 l 774 458 l 774 321 z "},"ㅛ":{"ha":0,"x_min":0,"x_max":0,"o":"m 381 321 l 76 321 l 76 193 l 1261 193 l 1261 321 l 957 321 l 957 761 l 818 761 l 818 321 l 518 321 l 518 761 l 381 761 z "},"ㅜ":{"ha":0,"x_min":0,"x_max":0,"o":"m 1261 644 l 76 644 l 76 514 l 599 514 l 599 25 l 739 25 l 739 514 l 1261 514 z "},"ㅝ":{"ha":0,"x_min":0,"x_max":0,"o":"m 1056 207 l 696 207 l 696 85 l 1056 85 l 1056 -144 l 1193 -144 l 1193 1042 l 1056 1042 z m 567 504 l 76 504 l 76 382 l 399 382 l 399 -133 l 536 -133 l 536 382 l 568 382 b 956 428 731 382 871 396 z "},"ㅞ":{"ha":0,"x_min":0,"x_max":0,"o":"m -418 -833 z m -512 -1469 l -512 -1728 l -631 -1728 l -631 -1469 l -844 -1469 l -844 -1350 b -1199 -1390 -928 -1381 -1064 -1390 l -1472 -1390 l -1472 -1511 l -1256 -1511 l -1256 -1971 l -1126 -1971 l -1126 -1510 b -844 -1469 -1012 -1506 -906 -1492 z "},"ㅟ":{"ha":0,"x_min":0,"x_max":0,"o":"m -1111 -585 l -1111 -708 l -775 -708 l -775 -1175 l -637 -1175 l -637 -708 l -625 -708 b -237 -662 -458 -708 -312 -696 l -237 -536 b -626 -585 -322 -575 -464 -585 z "},"ㅠ":{"ha":0,"x_min":0,"x_max":0,"o":"m 1261 638 l 76 638 l 76 511 l 368 511 l 368 44 l 504 44 l 504 511 l 832 511 l 832 44 l 968 44 l 968 511 l 1261 511 z "},"ㅡ":{"ha":0,"x_min":0,"x_max":0,"o":"m 1261 482 l 76 482 l 76 353 l 1261 353 z "},"ㅢ":{"ha":0,"x_min":0,"x_max":0,"o":"l 1186 0 m 561 372 "},"ㅣ":{"ha":0,"x_min":0,"x_max":0,"o":"l 736 0 "},"ㅥ":{"ha":0,"x_min":0,"x_max":0,"o":"m 639 76 l 639 203 l 361 203 l 361 729 l 224 729 l 224 76 z m 1125 76 l 1125 203 l 842 203 l 842 729 l 704 729 l 704 76 z "},"ㅦ":{"ha":0,"x_min":0,"x_max":0,"o":"m 1124 732 l 704 732 l 704 71 l 1132 71 l 1132 199 l 840 199 l 840 604 l 1124 604 z m 361 729 l 224 729 l 224 76 l 632 76 l 632 203 l 361 203 z "},"ㅧ":{"ha":0,"x_min":0,"x_max":0,"o":"m 1225 163 l 964 439 b 1006 742 986 529 1000 632 b 785 217 874 751 861 461 b 858 296 631 203 767 210 b NaN NaN 918 431 1135 199 l NaN NaN z m NaN NaN l NaN NaN l NaN NaN l NaN NaN l NaN NaN l NaN NaN z "},"ㅨ":{"ha":0,"x_min":0,"x_max":0,"o":"m 976 744 l 860 744 l 640 76 l 1196 76 z m 318 729 l 182 729 l 182 76 l 590 76 l 590 203 l 318 203 z m 796 186 l 917 574 l 1036 186 z "},"ㅩ":{"ha":0,"x_min":0,"x_max":0,"o":"m 1269 129 l 1081 428 b 1114 763 1101 529 1111 644 l 997 769 b 817 201 993 469 942 215 l 817 76 b 1043 290 925 82 996 165 l 1179 69 z m 186 358 l 417 358 l 417 754 l 68 754 l 68 639 l 300 639 l 300 472 l 69 472 l 69 76 l 431 76 l 431 192 l 186 192 z m 458 636 l 661 636 l 661 76 l 783 76 l 783 754 l 458 754 z "},"ㅪ":{"ha":0,"x_min":0,"x_max":0,"o":"m 293 193 l 293 358 l 635 358 l 635 754 l 165 754 l 165 638 l 510 638 l 510 474 z m 707 475 l 707 915 l 1035 915 l 1035 1035 l 582 1035 l 582 357 l 1043 357 l 1043 475 z "},"ㅫ":{"ha":0,"x_min":0,"x_max":0,"o":"m 1285 129 l 1097 426 b 1129 763 1117 528 1126 644 b 963 539 1013 769 1008 469 b 950 NaN 1044 582 1167 717 l NaN NaN z m NaN NaN l NaN NaN l NaN NaN l NaN NaN l NaN NaN l NaN NaN l NaN NaN l NaN NaN l NaN NaN l NaN NaN l NaN NaN l NaN NaN l NaN NaN l NaN NaN z m NaN NaN l NaN NaN l NaN NaN l NaN NaN z "},"ㅬ":{"ha":0,"x_min":0,"x_max":0,"o":"m 992 758 l 874 758 l 654 76 l 1210 76 z m 258 358 l 600 358 l 600 754 l 132 754 l 132 1226 l 249 1226 l 249 879 z "},"ㅭ":{"ha":0,"x_min":0,"x_max":0,"o":"m 489 474 l 654 474 l 654 800 l 1050 800 l 1050 346 l 933 346 l 933 675 z m 1689 792 l 1113 792 l 1113 678 l 1689 678 z m 1401 79 b 1661 329 1549 79 1661 174 b 1401 579 1661 485 1549 579 b 1142 329 1254 579 1142 485 b 1401 79 1142 174 1254 79 z m 1401 183 "},"ㅮ":{"ha":0,"x_min":0,"x_max":0,"o":"m 201 71 l 632 71 l 632 729 l 201 729 z m 1013 729 l 1013 518 l 821 518 l 821 729 l 704 729 l 704 71 l 1135 71 l 1135 729 z m 324 610 l 513 610 l 513 189 l 324 189 z m 821 190 l 821 400 l 1013 400 l 1013 190 z "},"ㅯ":{"ha":71,"x_min":0,"x_max":0,"o":"m 1222 157 l 964 429 b 1007 740 988 522 1001 628 b 789 213 875 750 863 461 b 860 289 636 199 768 204 b NaN NaN 918 421 1131 193 l NaN NaN z m NaN NaN z "},"ㅰ":{"ha":71,"x_min":0,"x_max":0,"o":"m 992 753 l 874 753 l 654 71 l 1210 71 z m 160 71 z "},"ㅱ":{"ha":0,"x_min":0,"x_max":0,"o":"m 1081 913 l 256 913 l 256 443 l 1081 443 z m 949 792 l 949 563 l 388 563 l 388 792 z m 671 -101 b 935 107 813 -101 935 -25 b 671 315 935 239 813 315 b 408 107 529 315 408 239 b 671 -101 408 -25 529 -101 z m 671 7 "},"ㅲ":{"ha":72,"x_min":0,"x_max":0,"o":"l 549 0 l 549 -228 l 760 -228 l 760 -351 l 101 -351 l 101 119 l 760 119 l 760 0 m 954 0 l 954 -118 l 1239 -118 l 1239 -672 l 1365 -672 l 1365 0 z m 532 -539 l 532 -329 l 760 -329 l 760 -539 z "},"ㅳ":{"ha":0,"x_min":0,"x_max":0,"o":"l 524 0 l 524 -208 l 975 -208 l 975 450 l 857 450 m 1168 -90 l 1168 329 l 1476 329 l 1476 450 l 1044 450 l 1044 -208 l 1483 -208 l 1483 -90 z m 649 -89 l 649 121 l 857 121 l 857 -89 z "},"ㅴ":{"ha":0,"x_min":0,"x_max":0,"o":"m 790 763 b 624 539 674 769 669 469 b 611 NaN 706 582 828 717 l NaN NaN l NaN NaN l NaN NaN b NaN NaN NaN NaN NaN NaN z m NaN NaN l NaN NaN l NaN NaN l NaN NaN l NaN NaN l NaN NaN l NaN NaN l NaN NaN z m NaN NaN l NaN NaN l NaN NaN l NaN NaN z "},"ㅵ":{"ha":0,"x_min":0,"x_max":0,"o":"m 1021 194 l 1021 636 l 1225 636 l 1225 756 l 900 756 l 900 140 l 721 424 b 753 763 740 526 750 643 b 589 538 638 769 633 469 b 576 NaN 669 581 790 713 l NaN NaN l NaN NaN l NaN NaN l NaN NaN l NaN NaN z m NaN NaN l NaN NaN l NaN NaN l NaN NaN l NaN NaN l NaN NaN l NaN NaN l NaN NaN z m NaN NaN l NaN NaN l NaN NaN l NaN NaN z "},"ㅶ":{"ha":72,"x_min":0,"x_max":0,"o":"l 461 0 l 461 518 l 904 518 l 904 1176 l 785 1176 m 1544 603 l 1296 603 l 1296 854 l 1313 854 l 1313 915 l 1322 915 l 1322 983 l 1325 983 l 1325 1056 l 1444 1056 l 1444 547 l 1325 547 l 1325 747 b 1107 338 1317 507 1226 349 l 1107 210 b 1379 418 1221 217 1317 293 l 1586 204 z m 717 329 l 717 539 l 915 539 l 915 329 z "},"ㅷ":{"ha":0,"x_min":0,"x_max":0,"o":"l 507 0 l 507 -192 l 942 -192 l 942 467 l 824 467 m 1138 -75 l 1138 79 l 1435 79 l 1435 194 l 1138 194 l 1138 350 l 1458 350 l 1458 467 l 1013 467 l 1013 -192 l 1472 -192 l 1472 -75 z m 632 -72 l 632 138 l 824 138 l 824 -72 z "},"ㅸ":{"ha":0,"x_min":0,"x_max":0,"o":"m 944 967 l 944 811 l 392 811 l 392 967 l 256 967 l 256 414 l 1081 414 l 1081 967 z m 392 531 l 392 696 l 944 696 l 944 531 "},"ㅹ":{"ha":0,"x_min":0,"x_max":0,"o":"m 638 963 l 521 963 l 521 801 l 336 801 l 336 963 l 213 963 l 213 410 l 638 410 z m 1000 963 l 1000 801 l 817 801 l 817 963 l 699 963 l 699 410 l 1125 410 l 1125 963 z m 336 528 l 336 689 l 521 689 l 521 528 z m 817 528 l 817 689 l 1000 689 l 1000 528 "},"ㅺ":{"ha":0,"x_min":0,"x_max":0,"o":"l 539 276 b 581 574 561 365 575 467 m 760 571 l 760 444 l 1060 444 l 1060 -87 l 1197 -87 l 1197 571 z "},"ㅻ":{"ha":0,"x_min":0,"x_max":0,"o":"l 501 275 b 543 574 524 365 538 467 m 901 40 l 901 567 l 767 567 l 767 -86 l 1182 -86 l 1182 40 z "},"ㅼ":{"ha":0,"x_min":0,"x_max":0,"o":"l 501 275 b 543 574 524 365 538 467 m 900 40 l 900 439 l 1174 439 l 1174 567 l 765 567 l 765 -86 l 1185 -86 l 1185 40 z "},"ㅽ":{"ha":0,"x_min":0,"x_max":0,"o":"m 1028 749 l 1028 538 l 821 538 l 821 749 l 703 749 l 703 193 l 460 449 l 482 539 l 554 611 l 554 543 l 1004 543 l 1004 1204 z m 672 663 l 672 874 l 879 874 l 879 663 z "},"ㅾ":{"ha":0,"x_min":0,"x_max":0,"o":"m 1243 176 l 994 429 b 1021 622 1010 488 1018 553 l 1201 622 l 1201 742 l 692 742 l 692 622 l 892 622 b 675 219 882 385 794 231 l 675 204 l 443 450 l 465 539 l 526 600 l 526 547 b 797 756 640 554 736 631 l 1004 542 z "},"ㅿ":{"ha":0,"x_min":0,"x_max":0,"o":"m 738 814 l 600 814 l 222 63 l 1114 63 z m 428 186 l 668 676 l 904 186 z "},"ㆀ":{"ha":0,"x_min":0,"x_max":0,"o":"m 638 411 b 401 757 638 617 558 757 b 164 411 243 757 164 617 b 401 65 164 206 243 65 b 638 411 558 65 638 206 z m 1172 411 b 935 757 1172 617 1093 757 b 699 411 778 757 699 617 b 935 65 699 206 778 65 b 1172 411 1093 65 1172 206 z m 518 411 b 401 178 518 281 482 178 b 283 411 321 178 283 281 b 401 643 283 540 321 643 b 518 411 482 643 518 540 z m 1053 411 b 935 178 1053 281 1015 178 b 818 411 854 178 818 281 b 935 643 818 540 854 643 b 1053 411 1015 643 1053 540 z "},"ㆁ":{"ha":0,"x_min":0,"x_max":0,"o":"m 735 726 l 735 924 l 601 924 l 601 726 b 292 390 411 701 292 569 b 668 50 292 190 440 50 b 1044 390 896 50 1044 190 b 735 726 1044 569 925 701 z m 668 175 b 435 390 531 175 435 261 b 668 604 435 519 531 604 b 901 390 806 604 901 519 b 668 175 901 261 806 175 z "},"ㆂ":{"ha":0,"x_min":0,"x_max":0,"o":"m 796 -486 l 1240 -744 l 1513 -721 b 1826 NaN 1606 -707 1714 -701 l 1694 NaN b 1457 NaN 1682 NaN 1610 NaN l 1457 NaN b 1739 NaN 1589 NaN 1679 NaN l 1950 NaN "},"ㆃ":{"ha":0,"x_min":0,"x_max":0,"o":"m 519 96 l 978 96 l 978 -22 l 758 -704 l 1314 -704 "},"ㆄ":{"ha":0,"x_min":0,"x_max":0,"o":"m 935 556 l 935 796 l 1092 796 l 1092 915 l 244 915 l 244 796 l 401 796 l 401 556 l 235 556 l 235 436 l 1101 436 l 1101 556 z m 540 796 l 796 796 l 796 556 l 540 556 "},"ㆅ":{"ha":0,"x_min":0,"x_max":0,"o":"m 428 788 l 299 788 l 299 663 l 90 663 l 90 560 l 639 560 l 639 663 l 428 663 z m 1019 663 l 1019 788 l 890 788 l 890 663 l 682 663 l 682 560 l 1231 560 l 1231 663 z m 364 490 b 604 706 499 490 604 572 b 364 921 604 840 499 921 z m 956 921 b 1197 1136 1092 921 1197 1003 b 956 1351 1197 1271 1092 1351 z m 364 1018 z m 956 1018 z "},"ㆆ":{"ha":0,"x_min":0,"x_max":0,"o":"m 1126 817 l 210 817 l 210 694 l 1126 694 z m 675 3 b 1033 294 881 3 1033 111 b 675 586 1033 478 881 586 b 317 294 471 586 317 478 b 675 3 317 111 471 3 z m 675 115 b 454 294 544 115 454 188 b 675 474 454 401 544 474 b 896 294 806 474 896 401 b 675 115 896 188 806 115 z "},"ㆇ":{"ha":0,"x_min":0,"x_max":0,"o":"m 1317 622 l 1317 751 l 1153 751 l 1153 915 l 1282 915 l 1282 751 l 1554 751 z m 1078 667 l 944 667 l 944 304 l 929 304 l 929 149 l 1292 149 l 1292 17 l 929 17 l 929 -147 l 801 -147 l 801 -19 b 561 -65 744 -44 660 -58 z "},"ㆈ":{"ha":0,"x_min":0,"x_max":0,"o":"l 0 -290 l -197 -290 l -197 -93 l -578 -93 l -578 35 l 608 35 m 283 -649 l 283 -376 l 481 -376 l 481 -649 z m -58 -492 l -178 -492 l -178 -850 b -267 -851 -207 -851 -237 -851 l -307 -851 l -307 -492 l -426 -492 l -426 -851 l -532 -851 l -532 -975 l -275 -975 l -275 -851 b -417 -886 -312 -867 -361 -878 z "},"ㆉ":{"ha":0,"x_min":0,"x_max":0,"o":"m -490 -503 l -624 -503 l -624 -867 l -625 -867 l -625 -1042 l -261 -1042 l -261 -1174 l -625 -1174 l -625 -1351 l -753 -1351 l -753 -865 l -625 -865 b -879 -911 -685 -890 -775 -906 z "},"ㆊ":{"ha":0,"x_min":0,"x_max":0,"o":"l 0 -735 l -279 -735 l -279 -846 l 0 -846 l 0 -964 l -279 -964 l -279 -1075 l 0 -1075 l 0 -1186 l 138 -1186 l 138 0 m -100 -594 b 310 -717 24 -717 186 -1254 b 604 -1021 478 -1254 600 -1128 b NaN NaN 618 -951 644 NaN z "},"ㆋ":{"ha":0,"x_min":0,"x_max":0,"o":"l 0 1089 l 128 1089 l 128 2275 m -289 1538 l -479 1538 l -479 1426 l -289 1426 l -289 1314 l -479 1314 l -479 1203 l -289 1203 l -289 1110 l -161 1110 l -161 2268 l -289 2268 z m -385 1653 l -385 1769 b -739 1729 -468 1739 -604 1729 l -1012 1729 l -1012 1611 l -911 1611 l -911 1107 l -794 1107 l -794 1611 l -743 1611 b -675 1613 -721 1611 -697 1611 l -675 1107 l -560 1107 l -560 1619 b -385 1653 -489 1626 -426 1638 z "},"ㆌ":{"ha":0,"x_min":0,"x_max":0,"o":"m -1111 -586 l -1111 -708 l -928 -708 l -928 -1158 l -799 -1158 l -799 -708 l -625 -708 l -592 -708 l -592 -1158 l -461 -1158 l -461 -703 b -237 -662 -365 -697 -286 -685 l -237 -537 b -626 -586 -322 -575 -464 -586 z "},"ㆍ":{"ha":0,"x_min":0,"x_max":0,"o":"m 668 319 b 764 419 722 319 764 364 b 668 519 764 476 722 519 b 571 419 613 519 571 476 b 668 319 571 364 613 319 z "},"ㆎ":{"ha":0,"x_min":0,"x_max":0,"o":"l 944 0 m 413 499 b 315 401 357 499 315 456 b 413 304 315 347 357 304 z "},"ⅰ":{"ha":0,"x_min":0,"x_max":0,"o":"m 592 965 l 592 799 l 744 799 l 744 965 z m 592 681 l 592 -39 l 744 -39 l 744 681 z "},"ⅱ":{"ha":0,"x_min":0,"x_max":0,"o":"m 414 799 l 561 799 l 561 965 l 414 965 z m 775 799 l 922 799 l 922 965 l 775 965 z m 414 -43 l 561 -43 l 561 675 l 414 675 z m 775 -43 l 922 -43 l 922 675 l 775 675 z "},"ⅲ":{"ha":294,"x_min":0,"x_max":0,"o":"m 301 -167 l 444 -167 l 444 0 l 301 0 z m 603 -167 l 746 -167 l 746 0 l 603 0 z m 0 -1008 l 143 -1008 l 143 -290 l 0 -290 z m 301 -1008 l 444 -1008 l 444 -290 l 301 -290 z m 603 -1008 l 746 -1008 l 746 -290 l 603 -290 z "},"ⅳ":{"ha":297,"x_min":0,"x_max":0,"o":"m 0 -1008 l 143 -1008 l 143 -290 l 0 -290 z m 611 -1008 l 847 -290 l 693 -290 l 543 -861 l 540 -861 l 388 -290 l 229 -290 l 463 -1008 z "},"ⅴ":{"ha":0,"x_min":0,"x_max":0,"o":"m 746 -43 l 1018 675 l 860 675 l 678 103 l 674 103 l 492 675 l 331 675 l 597 -43 z "},"ⅵ":{"ha":900,"x_min":0,"x_max":0,"o":"m -321 -1008 l -85 -290 l -239 -290 l -389 -861 l -392 -861 l -544 -290 l -704 -290 l -469 -1008 z m 0 -1008 l 143 -1008 l 143 -290 l 0 -290 z "},"ⅶ":{"ha":0,"x_min":0,"x_max":0,"o":"m 747 799 l 882 799 l 882 965 l 747 965 z m 1010 799 l 1144 799 l 1144 965 l 1010 965 z m 475 -43 l 668 675 l 528 675 l 410 104 l 407 104 l 288 675 l 139 675 l 335 -43 z m 747 -43 l 882 -43 l 882 675 l 747 675 z m 1010 -43 l 1143 -43 l 1143 675 l 1010 675 z "},"ⅷ":{"ha":0,"x_min":0,"x_max":0,"o":"m 640 799 l 764 799 l 764 965 l 640 965 z m 853 799 l 976 799 l 976 965 l 853 965 z m 1065 799 l 1189 799 l 1189 965 l 1065 965 z m 414 -43 l 579 675 l 451 675 l 354 104 l 353 104 l 254 675 l 117 675 l 289 -43 z m 640 -43 l 764 -43 l 764 675 l 640 675 z m 853 -43 l 976 -43 l 976 675 l 853 675 z m 1065 -43 l 1189 -43 l 1189 675 l 1065 675 z "},"ⅸ":{"ha":286,"x_min":0,"x_max":0,"o":"m 0 -1008 l 143 -1008 l 143 -290 l 0 -290 z m 854 -1008 l 638 -637 l 846 -290 l 688 -290 l 554 -554 l 551 -554 l 415 -290 l 251 -290 l 458 -642 l 243 -1008 l 399 -1008 l 542 -731 l 544 -731 l 690 -1008 z "},"ⅹ":{"ha":0,"x_min":0,"x_max":0,"o":"m 1010 -43 l 757 331 l 1000 675 l 835 675 l 675 418 l 672 418 l 507 675 l 339 675 l 582 326 l 326 -43 l 492 -43 l 664 235 l 667 235 l 840 -43 z "},"Ⅰ":{"ha":0,"x_min":0,"x_max":0,"o":"m 743 -43 l 743 953 l 592 953 l 592 -43 z "},"Ⅱ":{"ha":0,"x_min":0,"x_max":0,"o":"m 557 -43 l 557 953 l 408 953 l 408 -43 z m 926 -43 l 926 953 l 776 953 l 776 -43 z "},"Ⅲ":{"ha":0,"x_min":0,"x_max":0,"o":"m 424 -43 l 424 953 l 279 953 l 279 -43 z m 729 -43 l 729 953 l 583 953 l 583 -43 z m 1043 -43 l 1043 953 l 899 953 l 899 -43 z "},"Ⅳ":{"ha":0,"x_min":0,"x_max":0,"o":"m 224 -43 l 369 -43 l 369 953 l 224 953 z m 906 -43 l 1194 953 l 1035 953 l 822 114 l 821 114 l 613 953 l 449 953 l 729 -43 z "},"Ⅴ":{"ha":0,"x_min":0,"x_max":0,"o":"m 746 -43 l 1093 953 l 933 953 l 665 110 l 664 110 l 408 953 l 243 953 l 574 -43 z "},"Ⅵ":{"ha":0,"x_min":0,"x_max":0,"o":"m 610 -43 l 900 953 l 739 953 l 528 114 l 525 114 l 317 953 l 154 953 l 433 -43 z m 1001 -43 l 1146 -43 l 1146 953 l 1001 953 z "},"Ⅶ":{"ha":0,"x_min":0,"x_max":0,"o":"m 551 -43 l 782 953 l 638 953 l 482 118 l 478 118 l 318 953 l 174 953 l 400 -43 z m 844 -43 l 981 -43 l 981 953 l 844 953 z m 1103 -43 l 1238 -43 l 1238 953 l 1103 953 z "},"Ⅷ":{"ha":0,"x_min":0,"x_max":0,"o":"m 428 -43 l 607 953 l 472 953 l 410 510 b 361 121 393 388 374 253 l 357 121 b 303 507 344 251 319 393 b 238 953 282 654 258 804 l 101 953 b 283 -43 163 621 222 288 z m 665 -43 l 790 -43 l 790 953 l 665 953 z m 874 -43 l 999 -43 l 999 953 l 874 953 z m 1081 -43 l 1206 -43 l 1206 953 l 1081 953 z "},"Ⅸ":{"ha":0,"x_min":0,"x_max":0,"o":"m 232 -43 l 378 -43 l 378 953 l 232 953 z m 1189 -43 l 919 465 l 1175 953 l 1015 953 l 839 569 l 835 569 l 651 953 l 490 953 l 744 463 l 478 -43 l 639 -43 l 826 358 l 829 358 l 1026 -43 z "},"Ⅹ":{"ha":0,"x_min":0,"x_max":0,"o":"m 1071 -43 l 756 467 l 1057 953 l 883 953 l 671 567 l 667 567 l 451 953 l 276 953 l 574 461 l 264 -43 l 438 -43 l 660 360 l 661 360 l 894 -43 z "},"Α":{"ha":0,"x_min":0,"x_max":0,"o":"m 422 869 l 563 417 l 282 417 l 418 869 z "},"Β":{"ha":0,"x_min":0,"x_max":0,"o":""},"Γ":{"ha":-175,"x_min":0,"x_max":0,"o":"m 660 829 l 660 958 l 108 958 l 108 -39 l 261 -39 l 261 829 z "},"Δ":{"ha":74,"x_min":0,"x_max":0,"o":"m 33 43 l 33 -39 l 888 -39 l 888 44 l 551 958 l 374 958 b 33 43 289 731 117 269 z m 528 604 l 715 86 l 197 86 l 390 622 b 453 824 413 690 439 774 l 457 824 b 528 604 472 771 500 686 z "},"Ε":{"ha":0,"x_min":0,"x_max":0,"o":""},"Ζ":{"ha":-26,"x_min":0,"x_max":0,"o":"m 575 825 l 42 47 l 42 -39 l 781 -39 l 781 88 l 244 88 l 244 92 l 772 867 l 772 958 l 88 958 l 88 831 l 575 831 z "},"Η":{"ha":0,"x_min":0,"x_max":0,"o":""},"Θ":{"ha":178,"x_min":0,"x_max":0,"o":"m 507 -56 l 508 -56 b 978 468 769 -56 978 131 b 521 975 978 761 801 975 b 51 451 247 975 51 763 b 507 -56 51 153 235 -56 z m 515 67 l 514 67 b 213 454 322 67 213 249 b 517 850 213 663 314 850 b 815 463 717 850 815 657 b 515 67 815 244 708 67 z m 703 410 l 703 535 l 325 535 l 325 410 z "},"Ι":{"ha":-483,"x_min":0,"x_max":0,"o":"m 261 -39 l 261 958 l 108 958 l 108 -39 z "},"Κ":{"ha":-25,"x_min":0,"x_max":0,"o":"m 260 958 l 626 958 l 721 1067 l 1026 592 l 1207 592 l 828 1164 l 1181 1589 l 993 1589 l 707 1224 b 631 1118 682 1192 657 1157 l 626 1118 z "},"Λ":{"ha":61,"x_min":0,"x_max":0,"o":"m 507 625 l 724 -39 l 889 -39 l 553 958 l 365 958 l 33 -39 l 194 -39 l 404 625 b 450 821 422 692 438 757 l 456 821 b 507 625 469 758 486 694 z "},"Μ":{"ha":0,"x_min":0,"x_max":0,"o":""},"Ν":{"ha":132,"x_min":0,"x_max":0,"o":"m 108 958 l 108 -39 l 250 -39 l 250 356 b 240 772 250 522 247 646 l 244 774 b 426 438 294 665 360 547 l 719 -39 l 876 -39 l 876 958 l 733 958 l 733 571 b 749 161 733 418 736 293 l 746 160 b 571 488 700 264 640 374 l 279 958 z "},"Ξ":{"ha":-42,"x_min":0,"x_max":0,"o":"m 740 833 l 740 958 l 81 958 l 81 833 z m 693 413 l 693 539 l 129 539 l 129 413 z m 758 -39 l 758 86 l 64 86 l 64 -39 z "},"Ο":{"ha":0,"x_min":0,"x_max":0,"o":""},"Π":{"ha":97,"x_min":0,"x_max":0,"o":"m 688 -39 l 840 -39 l 840 958 l 108 958 l 108 -39 l 261 -39 l 261 829 l 688 829 z "},"Ρ":{"ha":0,"x_min":0,"x_max":0,"o":""},"Σ":{"ha":-26,"x_min":0,"x_max":0,"o":"m 783 88 l 236 88 l 236 93 l 540 461 l 253 826 l 253 832 l 738 832 l 738 958 l 58 958 l 58 857 l 374 456 l 40 50 l 40 -39 l 783 -39 z "},"Τ":{"ha":0,"x_min":0,"x_max":0,"o":""},"Υ":{"ha":31,"x_min":0,"x_max":0,"o":"m 40 967 l 14 843 b 340 408 156 813 286 661 b 360 208 353 344 360 282 l 360 -39 l 513 -39 l 513 206 b 539 410 513 282 524 350 b 876 840 603 653 757 800 l 851 967 b 615 828 783 958 686 906 b 449 478 544 750 472 631 l 443 478 b 296 833 425 629 369 750 b 40 967 224 915 114 963 z "},"Φ":{"ha":233,"x_min":0,"x_max":0,"o":"m 468 -78 l 614 -78 l 614 0 b 1032 460 825 19 1032 168 b 617 922 1032 754 824 903 l 617 996 l 471 996 l 471 922 b 51 454 281 904 51 757 b 468 0 51 158 264 19 z m 469 814 l 469 108 b 207 457 336 126 207 247 b 469 814 207 683 350 801 z m 615 108 l 615 814 b 878 458 744 800 878 686 b 615 108 878 238 744 122 z "},"Χ":{"ha":0,"x_min":0,"x_max":0,"o":""},"Ψ":{"ha":181,"x_min":0,"x_max":0,"o":"m 967 669 l 967 958 l 819 958 l 819 686 b 589 376 819 458 711 383 l 589 958 l 447 958 l 447 378 b 215 654 311 385 215 456 l 215 958 l 68 958 l 68 629 b 447 258 68 368 250 267 l 447 -39 l 589 -39 l 589 258 b 967 669 807 269 967 400 z "},"Ω":{"ha":204,"x_min":0,"x_max":0,"o":"m 1011 81 l 799 81 l 799 85 b 992 507 893 164 992 306 b 538 975 992 763 818 975 b 64 494 265 975 64 774 b 256 85 64 306 160 164 l 256 81 l 44 81 l 44 -39 l 436 -39 l 436 56 b 224 479 324 126 224 299 b 533 850 224 669 336 850 b 835 481 731 850 835 660 b 621 56 835 286 735 135 l 621 -39 l 1011 -39 z "},"α":{"ha":-39,"x_min":0,"x_max":0,"o":"m 728 678 l 601 678 b 589 561 596 644 592 610 l 583 561 b 371 693 544 646 468 693 b 53 310 207 693 53 543 b 343 -46 53 94 176 -46 b 582 100 451 -46 535 14 l 586 100 b 715 -46 597 -4 647 -46 b 767 -37 735 -46 757 -43 l 778 69 b 710 183 732 69 710 101 b 728 678 710 363 721 594 z m 207 314 l 207 315 b 393 576 207 464 282 576 b 560 406 478 576 543 497 b 564 333 564 383 564 360 b 557 242 564 299 564 272 b 383 75 538 156 467 75 b 207 314 272 75 207 188 z "},"β":{"ha":-28,"x_min":0,"x_max":0,"o":"m 247 -57 l 247 38 l 250 38 b 467 -46 303 -17 374 -46 b 771 258 625 -46 771 65 b 561 532 771 415 668 510 l 561 539 b 688 764 631 574 688 661 b 424 1021 688 914 578 1021 b 208 942 328 1021 261 988 b 99 593 153 886 99 799 l 99 -69 b 121 -276 99 -169 106 -232 l 264 -276 b 247 -57 250 -217 247 -140 z m 246 175 l 246 614 b 413 901 246 808 306 901 b 549 740 492 901 549 838 b 397 564 549 653 497 572 b NaN NaN 396 564 388 NaN l NaN NaN l NaN NaN b NaN NaN NaN NaN NaN NaN b NaN NaN NaN NaN NaN NaN b NaN NaN NaN NaN NaN NaN z "},"γ":{"ha":-157,"x_min":0,"x_max":0,"o":"m 263 -276 l 411 -276 l 407 -29 b 415 6 407 -15 407 -6 b 664 626 554 213 664 447 b 661 678 664 646 664 665 l 518 678 l 518 625 b 367 144 518 458 426 260 l 363 144 b 158 678 319 357 218 586 l -12 678 b 236 93 61 564 185 328 b 263 -276 269 -46 267 -140 z "},"δ":{"ha":-47,"x_min":0,"x_max":0,"o":"m 649 851 l 692 950 b 451 1021 649 983 557 1021 b 196 849 281 1021 196 932 b 282 703 196 782 250 731 l 314 676 l 314 669 b 53 307 178 604 53 488 b 400 -46 53 85 213 -46 b 751 315 596 -46 751 96 b 568 644 751 454 683 556 l 450 739 b 350 850 385 789 350 817 b 458 908 350 883 385 908 b 649 851 538 908 618 874 z m 400 599 l 475 539 b 600 304 558 474 600 396 b 408 67 600 156 514 67 b 208 310 306 67 208 160 b 400 599 208 453 299 544 z "},"ε":{"ha":-203,"x_min":0,"x_max":0,"o":"m 225 353 l 225 346 b 54 171 126 328 54 257 b 358 -46 54 11 214 -46 b 622 18 454 -46 561 -21 l 597 119 b 393 68 553 94 467 68 b 215 185 297 68 215 107 b 426 292 215 263 306 292 l 510 292 l 510 396 l 429 396 b 240 489 321 396 240 424 b 393 585 240 546 300 585 b 567 540 463 585 536 561 l 597 640 b 376 693 544 676 471 693 b 90 501 183 693 90 596 b 225 353 90 432 136 375 z "},"ζ":{"ha":-246,"x_min":0,"x_max":0,"o":"m 406 -211 l 504 -242 b 596 28 547 -185 596 -60 b 582 44 596 36 590 43 b 375 90 514 54 442 65 b 210 335 276 128 210 190 b 604 899 210 546 382 788 l 582 1001 l 332 1001 b 147 1006 264 1001 196 1001 l 133 907 b 301 892 176 894 235 892 l 396 892 l 396 886 b 54 308 181 735 54 506 b 282 -14 54 121 158 26 b 451 -56 340 -36 403 -49 b 406 -211 450 -92 425 -178 z "},"η":{"ha":-33,"x_min":0,"x_max":0,"o":"m 240 567 l 236 567 b 215 678 236 608 229 651 l 81 678 b 101 476 97 626 101 554 l 101 -29 l 253 -29 l 253 393 b 261 450 253 414 256 436 b 419 569 282 514 342 569 b 569 375 528 569 569 483 l 569 -61 b 592 -274 569 -156 574 -231 l 735 -274 b 721 -58 721 -215 721 -140 l 721 392 b 471 693 721 625 581 693 b 240 567 354 693 274 628 z "},"θ":{"ha":-61,"x_min":0,"x_max":0,"o":"m 396 -46 l 397 -46 b 738 494 629 -46 738 168 b 403 1021 738 808 632 1021 b 51 494 175 1021 51 793 b 396 -46 51 136 183 -46 z m 588 557 l 203 557 b 396 910 203 747 274 910 b 588 557 525 910 588 753 z m 204 446 l 589 446 b 400 64 589 221 528 64 b 204 446 282 64 204 204 z "},"ι":{"ha":-493,"x_min":0,"x_max":0,"o":"m 253 154 l 253 678 l 101 678 l 101 139 b 246 -46 101 -8 161 -46 b 313 -36 269 -46 299 -42 l 321 71 b 253 154 268 68 253 93 z "},"κ":{"ha":-115,"x_min":0,"x_max":0,"o":"m 400 350 l 400 356 b 719 671 517 469 624 576 l 719 678 l 544 678 b 260 368 468 594 374 483 l 254 368 l 254 556 b 233 678 254 617 246 663 l 85 678 b 101 517 97 651 101 578 l 101 -29 l 254 -29 l 254 279 l 265 279 b 451 119 326 276 386 211 l 556 -29 l 729 -29 l 606 151 b 400 350 539 246 468 332 z "},"λ":{"ha":-149,"x_min":0,"x_max":0,"o":"m 394 356 l 525 -29 l 686 -29 l 417 689 b 128 1018 342 885 274 1018 b 75 1011 110 1018 86 1017 l 60 896 b 86 897 68 897 78 897 b 261 696 165 897 219 810 b 269 660 267 681 269 667 b 263 624 269 651 268 642 l 8 -29 l 165 -29 l 299 360 b 340 507 314 406 331 458 l 349 507 b 394 356 363 449 378 401 z "},"μ":{"ha":-36,"x_min":0,"x_max":0,"o":"m 578 78 l 582 78 b 717 -46 597 -8 649 -46 b 769 -37 742 -46 754 -43 l 781 71 b 715 175 731 72 715 100 l 715 678 l 564 678 l 564 247 b 554 186 564 225 560 204 b 399 78 533 135 476 78 b 253 265 296 78 253 160 l 253 678 l 101 678 l 101 -58 b 122 -274 101 -168 108 -231 l 257 -274 b 240 -53 243 -215 240 -132 l 240 26 b 382 -42 269 -21 325 -42 b 578 78 483 -42 551 22 z "},"ν":{"ha":-154,"x_min":0,"x_max":0,"o":"m 290 299 l 165 678 l 4 678 l 258 -29 l 404 -29 b 664 625 532 188 664 424 b 660 678 664 643 663 663 l 518 678 b 519 614 519 657 519 638 b 353 115 519 456 411 233 l 347 115 b 290 299 328 176 311 235 z "},"ξ":{"ha":-208,"x_min":0,"x_max":0,"o":"m 500 497 l 538 497 l 538 604 l 474 604 b 272 760 360 611 272 663 b 447 910 272 839 331 910 b 589 879 506 910 557 896 l 617 982 b 432 1021 575 1004 514 1021 b 119 772 224 1021 119 896 b 279 565 119 676 175 600 l 279 558 b 53 276 154 525 53 415 b 489 -56 53 31 301 -28 b 446 -211 488 -92 464 -178 l 543 -240 b 635 28 588 -185 635 -51 b 619 44 635 36 629 44 b 429 79 557 53 494 63 b 213 289 286 118 213 181 b 500 497 213 406 306 497 z "},"ο":{"ha":-43,"x_min":0,"x_max":0,"o":"m 399 -46 l 400 -46 b 756 331 574 -46 756 69 b 411 693 756 546 618 693 b 53 319 207 693 53 553 b 399 -46 53 92 206 -46 z m 404 67 l 403 67 b 210 324 288 67 210 176 b 407 582 210 449 267 582 b 600 326 546 582 600 442 b 404 67 600 172 518 67 z "},"π":{"ha":-29,"x_min":0,"x_max":0,"o":"m 681 185 l 681 561 l 775 561 l 790 678 l 231 678 b 17 638 111 678 47 663 l 35 549 b 174 561 71 558 121 561 b 81 -29 169 382 131 111 l 225 -29 b 319 561 274 85 314 379 l 531 561 l 531 169 b 554 -29 531 63 540 -6 l 699 -29 b 681 185 689 8 681 74 z "},"ρ":{"ha":-24,"x_min":0,"x_max":0,"o":"m 246 -58 l 246 49 l 249 49 b 453 -46 289 -10 365 -46 b 778 332 618 -46 778 82 b 447 693 778 547 647 693 b 204 594 343 693 263 653 b 94 264 147 536 94 451 l 94 -64 b 110 -274 94 -169 99 -231 l 256 -274 b 246 -58 247 -215 246 -140 z m 246 249 l 246 308 b 438 568 246 489 339 568 b 624 329 557 568 624 461 b 426 72 624 182 551 72 b 251 200 343 72 272 131 b 246 249 247 217 246 232 z "},"σ":{"ha":-32,"x_min":0,"x_max":0,"o":"m 621 582 l 622 588 b 800 582 717 582 765 582 l 804 693 l 424 693 b 53 317 203 693 53 551 b 399 -46 53 90 204 -46 b 771 10 513 -46 771 53 b NaN 167 771 108 692 167 z m NaN -349 l NaN -349 "},"τ":{"ha":-236,"x_min":0,"x_max":0,"o":"m 476 -32 l 482 75 b 453 74 476 74 465 74 b 374 188 411 74 374 97 l 374 561 l 586 561 l 603 678 l 197 678 b -10 639 69 678 15 658 l 11 550 b 150 561 40 556 78 561 l 224 561 l 224 182 b 399 -46 224 29 274 -46 b 476 -32 429 -46 463 -39 z "},"υ":{"ha":-76,"x_min":0,"x_max":0,"o":"m 658 678 l 517 678 b 563 390 533 640 563 521 b 392 78 563 203 506 78 b 243 261 317 78 243 132 l 243 544 b 221 678 243 622 236 661 l 76 678 b 92 440 89 636 92 558 l 92 244 b 378 -46 92 49 218 -46 b 711 403 639 -46 711 192 b 658 678 711 522 682 632 z "},"φ":{"ha":108,"x_min":0,"x_max":0,"o":"m 357 615 l 299 697 b 53 329 200 658 53 533 b 414 -44 53 79 235 -31 l 414 -275 l 551 -275 l 551 -44 b 906 342 729 -26 906 100 b 610 692 906 557 756 690 b 414 469 507 693 414 628 l 414 64 b 204 332 275 86 204 197 b 357 615 204 475 286 568 z m 551 63 l 551 496 b 606 583 551 556 572 583 b 761 339 682 583 761 476 b 551 63 761 183 678 81 z "},"χ":{"ha":-169,"x_min":0,"x_max":0,"o":"m 353 329 l 183 678 l 22 678 l 264 214 l 11 -237 l 142 -275 l 331 89 l 336 90 l 536 -275 l 679 -239 l 425 215 l 672 678 l 525 678 l 358 329 z "},"ψ":{"ha":128,"x_min":0,"x_max":0,"o":"m 432 -46 l 432 -275 l 569 -275 l 569 -46 b 917 399 826 -31 917 188 b 860 678 917 531 889 629 l 721 678 b 772 389 739 647 772 533 b 569 64 772 200 692 68 l 569 863 l 432 863 l 432 64 b 239 340 329 71 239 138 l 239 544 b 219 678 239 617 233 661 l 82 678 b 93 510 92 639 93 575 l 93 326 b 432 -46 93 50 250 -33 z "},"ω":{"ha":172,"x_min":0,"x_max":0,"o":"m 579 231 l 582 504 l 442 504 l 443 229 b 338 81 444 146 399 81 b 201 336 276 81 201 153 b 314 682 201 482 250 608 l 314 685 l 175 685 b 53 331 114 624 53 490 b 318 -46 53 65 189 -46 b 507 76 406 -46 471 3 l 513 76 b 697 -46 542 0 611 -46 b 972 344 839 -46 972 82 b 851 685 972 506 913 633 l 711 685 l 711 682 b 824 350 779 614 824 483 "},"─":{"ha":0,"x_min":0,"x_max":0,"o":"m 0 397 l 1336 397 l 1336 438 l 0 438 z "},"│":{"ha":0,"x_min":0,"x_max":0,"o":"m 649 -278 l 689 -278 l 689 1111 l 649 1111 z "},"┌":{"ha":0,"x_min":0,"x_max":0,"o":"m 689 397 l 1336 397 l 1336 438 l 649 438 l 649 -278 l 689 -278 z "},"┐":{"ha":0,"x_min":0,"x_max":0,"o":"m 649 -278 l 689 -278 l 689 438 l 0 438 l 0 397 l 649 397 z "},"┘":{"ha":0,"x_min":0,"x_max":0,"o":"m 0 397 l 689 397 l 689 1111 l 649 1111 l 649 438 l 0 438 z "},"└":{"ha":0,"x_min":0,"x_max":0,"o":"m 649 397 l 1336 397 z "},"├":{"ha":0,"x_min":0,"x_max":0,"o":"m 689 397 l 1336 397 l 1336 -992 l 1376 -992 z "},"┬":{"ha":0,"x_min":0,"x_max":0,"o":"m 689 397 l 1336 397 l 1336 438 l 0 438 l 0 397 l 649 397 l 649 -278 l 689 -278 z "},"┤":{"ha":0,"x_min":0,"x_max":0,"o":"m 649 -278 l 689 -278 l 689 1111 l 649 1111 l 649 438 l 0 438 l 0 397 l 649 397 z "},"┴":{"ha":0,"x_min":0,"x_max":0,"o":"m 0 397 l 1336 397 l 1336 -276 l 688 -276 z "},"┼":{"ha":0,"x_min":0,"x_max":0,"o":"m 689 396 l 1336 396 l 1336 436 l 689 436 l 689 1111 l 649 1111 l 649 436 l 0 436 l 0 396 l 649 396 l 649 -278 l 689 -278 z "},"━":{"ha":0,"x_min":0,"x_max":0,"o":"m 0 376 l 1336 376 l 1336 451 l 0 451 z "},"┃":{"ha":0,"x_min":0,"x_max":0,"o":"m 631 -278 l 706 -278 l 706 1111 l 631 1111 z "},"┏":{"ha":0,"x_min":0,"x_max":0,"o":"l -706 0 l -706 -729 l -631 -729 "},"┓":{"ha":0,"x_min":0,"x_max":0,"o":"m 631 -278 l 706 -278 l 706 451 l 0 451 l 0 376 l 631 376 z "},"┛":{"ha":0,"x_min":0,"x_max":0,"o":"m 0 376 l 706 376 l 706 1111 l 631 1111 l 631 451 l 0 451 z "},"┗":{"ha":0,"x_min":0,"x_max":0,"o":"m 631 376 l 1336 376 l 1336 451 l 706 451 l 706 1111 l 631 1111 z "},"┣":{"ha":0,"x_min":0,"x_max":0,"o":"l -631 0 l -631 660 l -706 660 l -706 -729 l -631 -729 "},"┳":{"ha":0,"x_min":0,"x_max":0,"o":""},"┫":{"ha":0,"x_min":0,"x_max":0,"o":"m 631 -278 l 706 -278 l 706 1111 l 631 1111 l 631 451 l 0 451 l 0 376 l 631 376 z "},"┻":{"ha":0,"x_min":0,"x_max":0,"o":"m 0 376 l 1336 376 l 1336 451 l 706 451 l 706 1111 l 631 1111 l 631 451 l 0 451 z "},"╋":{"ha":0,"x_min":0,"x_max":0,"o":""},"┠":{"ha":0,"x_min":0,"x_max":0,"o":"l -1389 0 l -1389 106 "},"┯":{"ha":0,"x_min":0,"x_max":0,"o":""},"┨":{"ha":0,"x_min":0,"x_max":0,"o":"m 615 -278 l 721 -278 l 721 1111 l 615 1111 l 615 442 l 0 442 l 0 392 l 615 392 z "},"┷":{"ha":0,"x_min":0,"x_max":0,"o":"m 0 367 l 1336 367 l 1336 467 l 694 467 l 694 1111 l 642 1111 l 642 467 l 0 467 z "},"┿":{"ha":0,"x_min":0,"x_max":0,"o":""},"┝":{"ha":0,"x_min":0,"x_max":0,"o":"l -642 0 l -642 644 l -694 644 l -694 -744 l -642 -744 "},"┰":{"ha":0,"x_min":0,"x_max":0,"o":""},"┥":{"ha":0,"x_min":0,"x_max":0,"o":"m 642 -278 l 694 -278 l 694 1111 l 642 1111 l 642 467 l 0 467 l 0 367 l 642 367 z "},"┸":{"ha":0,"x_min":0,"x_max":0,"o":"m 0 392 l 1336 392 l 1336 442 l 721 442 l 721 1111 l 615 1111 l 615 442 l 0 442 z "},"╂":{"ha":0,"x_min":0,"x_max":0,"o":""},"┒":{"ha":0,"x_min":0,"x_max":0,"o":"m 615 -278 l 721 -278 l 721 442 l 0 442 l 0 392 l 615 392 z "},"┑":{"ha":0,"x_min":0,"x_max":0,"o":"m 642 -278 l 694 -278 l 694 467 l 0 467 l 0 367 l 642 367 z "},"┚":{"ha":0,"x_min":0,"x_max":0,"o":"m 0 392 l 721 392 l 721 1111 l 615 1111 l 615 442 l 0 442 z "},"┙":{"ha":0,"x_min":0,"x_max":0,"o":"m 0 367 l 694 367 l 694 1111 l 642 1111 l 642 467 l 0 467 z "},"┖":{"ha":0,"x_min":0,"x_max":0,"o":"m 615 392 l 1336 392 l 1336 442 l 721 442 l 721 1111 l 615 1111 z "},"┕":{"ha":0,"x_min":0,"x_max":0,"o":"m 642 367 l 1336 367 l 1336 467 l 694 467 l 694 1111 l 642 1111 z "},"┎":{"ha":0,"x_min":0,"x_max":0,"o":"l -721 0 l -721 -719 l -615 -719 "},"┍":{"ha":0,"x_min":0,"x_max":0,"o":"l -694 0 l -694 -744 l -642 -744 "},"┞":{"ha":0,"x_min":0,"x_max":0,"o":"m 694 392 l 1336 392 l 1336 442 l 721 442 l 721 1111 l 615 1111 l 615 417 l 642 417 l 642 -278 l 694 -278 z "},"┟":{"ha":0,"x_min":0,"x_max":0,"o":"l -642 0 l -642 669 l -694 669 l -694 -25 l -721 -25 l -721 -719 l -615 -719 "},"┡":{"ha":0,"x_min":0,"x_max":0,"o":"l -615 0 l -615 644 l -721 644 l -721 -50 l -694 -50 l -694 -744 l -642 -744 "},"┢":{"ha":0,"x_min":0,"x_max":0,"o":"l -642 0 l -642 644 l -694 644 l -694 -50 l -721 -50 l -721 -744 l -615 -744 "},"┦":{"ha":0,"x_min":0,"x_max":0,"o":"m 694 417 "},"┧":{"ha":0,"x_min":0,"x_max":0,"o":"m 615 -278 l 721 -278 l 721 417 l 694 417 l 694 1111 l 642 1111 l 642 442 l 0 442 l 0 392 l 615 392 z "},"┩":{"ha":0,"x_min":0,"x_max":0,"o":"m 694 417 "},"┪":{"ha":0,"x_min":0,"x_max":0,"o":"m 615 -278 l 721 -278 l 721 417 l 694 417 l 694 1111 l 642 1111 l 642 467 l 0 467 l 0 367 l 615 367 z "},"┭":{"ha":0,"x_min":0,"x_max":0,"o":"m 694 392 "},"┮":{"ha":0,"x_min":0,"x_max":0,"o":""},"┱":{"ha":0,"x_min":0,"x_max":0,"o":""},"┲":{"ha":0,"x_min":0,"x_max":0,"o":""},"┵":{"ha":0,"x_min":0,"x_max":0,"o":"m 668 392 "},"┶":{"ha":0,"x_min":0,"x_max":0,"o":"m 668 367 "},"┹":{"ha":0,"x_min":0,"x_max":0,"o":"m 668 392 "},"┺":{"ha":0,"x_min":0,"x_max":0,"o":"m 668 367 "},"┽":{"ha":0,"x_min":0,"x_max":0,"o":"m 694 392 "},"┾":{"ha":0,"x_min":0,"x_max":0,"o":""},"╀":{"ha":0,"x_min":0,"x_max":0,"o":"m 694 392 "},"╁":{"ha":0,"x_min":0,"x_max":0,"o":""},"╃":{"ha":0,"x_min":0,"x_max":0,"o":"m 694 392 "},"╄":{"ha":0,"x_min":0,"x_max":0,"o":""},"╅":{"ha":0,"x_min":0,"x_max":0,"o":""},"╆":{"ha":0,"x_min":0,"x_max":0,"o":""},"╇":{"ha":0,"x_min":0,"x_max":0,"o":""},"╈":{"ha":0,"x_min":0,"x_max":0,"o":""},"╉":{"ha":0,"x_min":0,"x_max":0,"o":""},"╊":{"ha":0,"x_min":0,"x_max":0,"o":""},"㎕":{"ha":3,"x_min":0,"x_max":0,"o":"m 1144 103 l 1060 150 b 968 50 1036 96 1000 50 l 963 50 b 965 36 963 22 965 8 b 1133 NaN 965 310 1133 NaN b 982 NaN 1133 NaN 1093 NaN b 751 NaN 872 NaN 796 NaN b 719 NaN 726 NaN 719 NaN b 722 NaN 719 NaN 719 NaN b 603 NaN 693 NaN 646 NaN b 658 NaN 622 NaN 640 NaN b 743 NaN 690 NaN 721 NaN b 879 NaN 765 NaN 808 NaN l 886 NaN b 1071 NaN 964 NaN 1019 NaN z m 836 NaN z m 288 NaN l 407 NaN l 540 NaN l 651 NaN l 622 NaN l 860 NaN b 894 NaN 871 NaN 883 NaN b 717 NaN 836 NaN 775 NaN b 664 NaN 688 NaN 671 NaN b 736 NaN 678 NaN 706 NaN b 894 NaN 793 NaN 853 NaN l 894 NaN b 985 NaN 894 NaN 933 NaN b 1004 NaN 992 NaN 997 NaN b 1032 NaN 1013 NaN 1022 NaN l 1026 NaN b 1001 NaN 1010 NaN 1001 NaN b 1014 NaN 1001 NaN 1006 NaN l 1104 NaN l 992 NaN l 931 NaN b 900 NaN 922 NaN 911 NaN b 767 NaN 878 NaN 824 NaN b 717 NaN 735 NaN 718 NaN b 733 NaN 717 NaN 726 NaN z "},"㎖":{"ha":0,"x_min":0,"x_max":0,"o":"m 1219 103 l 1138 150 b 1046 49 1114 96 1079 49 l 1042 49 b 997 122 1015 53 1001 81 b 1279 732 1167 290 1279 564 b 1133 951 1279 864 1240 951 b 910 651 1026 951 951 847 b 878 311 886 540 878 431 b 881 171 878 264 878 217 b 765 83 853 144 807 113 l 819 -4 b 901 54 850 14 879 36 b 1033 -57 922 -11 963 -54 l 1040 -57 b 1219 103 1115 -57 1169 -10 z m 992 279 b 1032 643 994 399 1006 532 b 1124 825 1054 749 1093 825 b 1158 715 1144 825 1158 796 b 992 279 1158 588 1086 404 z m 121 492 b 744 -21 250 -29 713 -21 b NaN NaN 765 -21 789 NaN b NaN NaN NaN NaN NaN NaN l NaN NaN l NaN NaN l NaN NaN b NaN NaN NaN NaN NaN NaN b NaN NaN NaN NaN NaN NaN l NaN NaN l NaN NaN l NaN NaN b NaN NaN NaN NaN NaN NaN b NaN NaN NaN NaN NaN NaN b NaN NaN NaN NaN NaN NaN b NaN NaN NaN NaN NaN NaN b NaN NaN NaN NaN NaN NaN l NaN NaN l NaN NaN l NaN NaN b NaN NaN NaN NaN NaN NaN z "},"㎗":{"ha":4,"x_min":0,"x_max":0,"o":"m 1136 103 l 1051 150 b 957 49 1028 96 990 49 l 953 49 b 957 36 953 22 957 8 b 1125 NaN 957 310 1125 NaN b 974 NaN 1125 NaN 1085 NaN b 743 NaN 863 NaN 786 NaN b 710 NaN 718 NaN 711 NaN b 714 NaN 710 NaN 711 NaN b 594 NaN 685 NaN 638 NaN b 650 NaN 614 NaN 631 NaN b 733 NaN 681 NaN 713 NaN b 869 NaN 756 NaN 797 NaN l 876 NaN b 1063 NaN 956 NaN 1010 NaN z m 563 NaN l 563 NaN l 435 NaN l 435 NaN l 432 NaN b 311 NaN 407 NaN 364 NaN b 104 NaN 204 NaN 104 NaN b 304 NaN 104 NaN 181 NaN b 444 NaN 372 NaN 424 NaN l 449 NaN l 458 NaN l 568 NaN l 564 NaN b 563 NaN 564 NaN 563 NaN z m 826 NaN z m 435 NaN l 435 NaN l 447 NaN l 447 NaN l 472 NaN l 472 NaN l 485 NaN l 485 NaN l 306 NaN b 300 NaN 306 NaN 304 NaN b 210 NaN 275 NaN 239 NaN b 104 NaN 140 NaN 104 NaN b 214 NaN 104 NaN 133 NaN b 303 NaN 261 NaN 294 NaN b 306 NaN 304 NaN 306 NaN z "},"ℓ":{"ha":4,"x_min":0,"x_max":0,"o":"b 293 114 -179 0 326 114 l 289 114 b 321 74 289 88 292 74 b 90 -226 210 74 133 -31 b 57 -568 65 -337 58 -447 b 61 -707 57 -614 58 -661 b -58 -794 32 -735 -15 -767 b -3 -883 -39 -825 -22 -854 b 81 -824 28 -865 60 -842 b 217 -936 103 -889 144 -933 l 224 -936 b 410 -775 303 -936 357 -887 m 174 -600 z "},"㎘":{"ha":3,"x_min":0,"x_max":0,"o":"m 300 354 l 297 354 l 297 978 l 163 978 l 163 -29 l 297 -29 l 297 226 l 336 290 l 474 -29 l 624 -29 l 428 381 l 611 678 l 464 678 b 1107 438 339 678 1139 438 l 1103 438 b 1135 396 1103 410 1106 396 b 904 96 1025 396 949 292 b 872 -246 879 -15 872 -125 b 875 -385 872 -292 872 -339 b 756 -472 846 -412 799 -444 l 811 -561 b 896 -501 843 -543 874 -519 b 1032 -614 918 -567 960 -611 l 1039 -614 b 1224 -453 1117 -614 1172 -565 z m 989 -278 z "},"㏄":{"ha":0,"x_min":0,"x_max":0,"o":"m 624 -15 l 607 90 b 529 74 583 79 558 74 b 694 129 469 -25 561 129 b 665 139 746 129 704 139 b 297 14 504 139 297 -94 b 504 -60 297 -111 460 -60 b 529 NaN 515 -60 529 -36 z m 1003 NaN l 988 NaN b 910 NaN 964 NaN 939 NaN b 750 NaN 811 NaN 750 NaN b 908 NaN 750 NaN 803 NaN b 986 NaN 944 NaN 971 NaN l 1010 NaN b 907 NaN 989 NaN 949 NaN "},"㎣":{"ha":28,"x_min":0,"x_max":0,"o":"b 1110 -15 1131 0 1110 -7 b 1063 -56 1110 -32 1092 -56 b 1031 NaN 1054 -56 1031 NaN l 1026 NaN l 1026 NaN l 1033 NaN m 3 NaN b -51 NaN 3 NaN -7 NaN b -110 NaN -79 NaN -110 NaN l -112 NaN b -204 NaN -131 NaN -164 NaN b -289 NaN -237 NaN -267 NaN z m 257 NaN b 299 NaN 263 NaN 276 NaN b 329 NaN 328 NaN 329 NaN b -46 NaN -168 NaN -57 NaN b NaN NaN -15 NaN 4 NaN b NaN NaN NaN NaN NaN NaN l NaN NaN l NaN NaN l NaN NaN b NaN NaN NaN NaN NaN NaN b NaN NaN NaN NaN NaN NaN b NaN NaN NaN NaN NaN NaN l NaN NaN b NaN NaN NaN NaN NaN NaN b NaN NaN NaN NaN NaN NaN b NaN NaN NaN NaN NaN NaN z "},"㎤":{"ha":8,"x_min":0,"x_max":0,"o":"m 1110 732 l 1103 676 b 1164 663 1115 669 1136 663 b 1272 754 1235 663 1272 710 b 1219 832 1272 794 1251 821 b 1264 899 1247 844 1264 868 b 1178 974 1264 936 1235 974 b 1113 957 1150 974 1125 967 l 1119 903 z m 411 151 l 421 168 l 450 158 l 418 146 l 519 NaN b 481 NaN 506 NaN 492 NaN b 361 NaN 401 NaN 361 NaN b 479 NaN 363 NaN 396 NaN b 519 NaN 497 NaN 511 NaN l 539 NaN b 479 NaN 528 NaN 504 NaN b 238 NaN 329 NaN 238 NaN b 461 NaN 238 NaN 326 NaN b 532 NaN 490 NaN 515 NaN b 1013 NaN 532 NaN 1043 NaN b 929 NaN 990 NaN 929 NaN l 926 NaN b 806 NaN 904 NaN 861 NaN b 756 NaN 806 NaN 756 NaN b 758 NaN 756 NaN 758 NaN b 675 NaN 758 NaN 675 NaN z "},"㎥":{"ha":0,"x_min":0,"x_max":0,"o":"m 1096 732 l 1088 676 b 1149 663 1101 669 1121 663 b 1257 754 1219 663 1257 710 b 1206 832 1257 794 1236 821 b 1249 899 1232 844 1249 868 b 1163 974 1249 936 1219 974 b 1099 957 1135 974 1111 967 l 1106 903 b 1124 949 1114 903 1124 918 b 1075 918 1124 939 1092 918 b 1032 885 1060 918 1032 901 b NaN 878 1032 890 1038 878 b NaN -150 NaN -92 NaN -108 "},"㎦":{"ha":0,"x_min":0,"x_max":0,"o":"b 1097 -15 1122 0 1097 -7 b 1050 -51 1097 -28 1079 -51 b 1018 NaN 1042 -51 1018 NaN l 1014 NaN l 1014 NaN l 1021 NaN "},"㎙":{"ha":0,"x_min":0,"x_max":0,"o":"m 269 588 l 269 -29 l 396 -29 l 396 588 l 508 588 l 508 678 l 397 678 l 397 719 b 481 869 397 797 414 869 b 533 861 503 869 521 864 l 556 961 b 465 976 535 969 506 976 b 328 917 417 976 364 960 b 269 719 278 861 269 789 l 269 678 l 181 678 l 181 588 b 60 960 181 981 85 960 b 44 NaN 57 960 44 938 "},"㎚":{"ha":39,"x_min":0,"x_max":0,"o":"m 156 492 l 156 -29 l 282 -29 l 282 419 b 288 492 282 450 283 472 b 358 579 300 554 333 579 b 422 444 417 579 422 501 l 422 -29 l 551 -29 l 551 460 b 404 688 551 567 524 688 b 268 606 349 688 301 661 l 267 606 l 258 678 l 150 678 b 156 492 151 617 156 572 z m 653 494 z "},"㎛":{"ha":60,"x_min":0,"x_max":0,"o":"m 697 494 l 697 -29 l 819 -29 l 819 443 b 821 499 819 464 819 485 b 869 585 826 572 856 585 b 911 517 907 585 911 550 b 913 465 911 488 913 471 l 913 -29 l 1029 -29 l 1029 442 b 1032 504 1029 467 1029 489 b 1083 583 1042 564 1064 583 b 1124 508 1118 583 1124 549 b 1122 442 1124 486 1122 463 l 1122 -29 l 1243 -29 l 1243 474 b 1125 685 1243 597 1231 685 b 1075 675 1114 685 1092 685 b 1021 611 1054 664 1032 635 l 1018 611 z m 632 346 l 611 307 l 625 260 l 700 497 l 588 532 l 408 -11 b 356 -228 381 -101 363 -174 b 422 -239 371 -228 394 -239 b 575 -146 476 -239 535 -201 l 576 -146 l 576 -151 b 667 -240 576 -214 615 -240 b 685 -239 672 -240 678 -240 b 713 -146 694 -208 704 -176 l 707 -146 b 682 -117 692 -146 682 -137 b 696 -54 682 -103 686 -82 l 786 240 l 674 275 b 613 83 654 211 632 147 b 582 10 604 61 593 32 b 453 -119 558 -36 506 -119 b 410 -75 422 -119 410 -104 l 410 -69 b 425 3 410 -49 418 -19 z "},"㎜":{"ha":44,"x_min":0,"x_max":0,"o":"m 100 494 l 100 -29 l 222 -29 l 222 443 b 229 525 222 478 225 506 b 271 585 238 568 256 585 b 314 481 308 585 313 540 l 314 -29 l 431 -29 l 431 442 b 442 533 431 476 436 511 b 485 583 451 568 468 583 b 525 442 522 583 525 525 l 525 -29 l 644 -29 l 644 474 b 528 685 644 597 632 685 b 471 667 507 685 489 679 b 424 611 453 654 436 635 l 421 611 b 314 685 399 669 361 685 b 207 614 283 685 236 665 l 206 614 b 201 678 203 635 203 657 l 94 678 b 100 494 96 617 100 578 z m 707 494 z "},"㎝":{"ha":0,"x_min":0,"x_max":0,"o":"m 564 492 b 206 954 43 492 171 954 b NaN NaN 228 954 253 NaN b NaN NaN NaN NaN NaN NaN l NaN NaN l NaN NaN l NaN NaN b NaN NaN NaN NaN NaN NaN b NaN NaN NaN NaN NaN NaN b NaN NaN NaN NaN NaN NaN l NaN NaN l NaN NaN l NaN NaN b NaN NaN NaN NaN NaN NaN b NaN NaN NaN NaN NaN NaN b NaN NaN NaN NaN NaN NaN b NaN NaN NaN NaN NaN NaN b NaN NaN NaN NaN NaN NaN b NaN NaN NaN NaN NaN NaN b NaN NaN NaN NaN NaN NaN z m NaN NaN l NaN NaN b NaN NaN NaN NaN NaN NaN b NaN NaN NaN NaN NaN NaN b NaN NaN NaN NaN NaN NaN "},"㎞":{"ha":0,"x_min":0,"x_max":0,"o":"m 275 351 l 271 964 l 149 -29 l 271 -117 l 32 -128 b -56 NaN 7 -133 -19 -142 z m 229 NaN b -133 NaN -292 NaN -168 NaN b NaN NaN -112 NaN -89 NaN b NaN NaN NaN NaN NaN NaN l NaN NaN l NaN NaN l NaN NaN b NaN NaN NaN NaN NaN NaN b NaN NaN NaN NaN NaN NaN b NaN NaN NaN NaN NaN NaN l NaN NaN l NaN NaN l NaN NaN b NaN NaN NaN NaN NaN NaN b NaN NaN NaN NaN NaN NaN b NaN NaN NaN NaN NaN NaN b NaN NaN NaN NaN NaN NaN b NaN NaN NaN NaN NaN NaN l NaN NaN l NaN NaN l NaN NaN b NaN NaN NaN NaN NaN NaN z "},"㎟":{"ha":1117,"x_min":0,"x_max":0,"o":"m -1050 -262 b -1083 -300 -1050 -278 -1071 -283 b -1128 -362 -1099 -312 -1115 -336 l -1131 -362 b -1222 -282 -1149 -299 -1182 -282 b -1307 -358 -1256 -282 -1285 -307 z m -761 -358 b -794 -396 -761 -374 -782 -379 b -839 -458 -810 -408 -826 -432 l -842 -458 b -919 -381 -857 -403 -885 -382 l -929 -381 b -968 -393 -943 -381 -956 -385 b -1018 -454 -986 -404 -1006 -424 z "},"㎠":{"ha":0,"x_min":0,"x_max":0,"o":"b 1122 785 1086 717 1122 751 b 1179 NaN 1122 826 1179 NaN b 1085 NaN 1179 NaN 1158 NaN b 1014 NaN 1058 NaN 1032 NaN l 1025 NaN b 1071 NaN 1038 NaN 1054 NaN b 1110 NaN 1094 NaN 1110 NaN b 1042 NaN 1110 NaN 1081 NaN m 322 NaN l 310 NaN b 271 NaN 296 NaN 282 NaN b 151 NaN 192 NaN 151 NaN b 269 NaN 153 NaN 186 NaN b 310 NaN 288 NaN 301 NaN l 329 NaN b 269 NaN 321 NaN 294 NaN b 28 NaN 119 NaN 28 NaN b 251 NaN 28 NaN 117 NaN b 322 NaN 281 NaN 306 NaN b 808 NaN 322 NaN 833 NaN b 793 NaN 807 NaN 793 NaN "},"㎡":{"ha":0,"x_min":0,"x_max":0,"o":"b 717 1150 0 1081 717 1115 b 774 NaN 717 1192 774 NaN b 679 NaN 774 NaN 753 NaN b 608 NaN 651 NaN 625 NaN b 544 NaN 579 NaN 544 NaN b 238 NaN 544 NaN 267 NaN "},"㎢":{"ha":0,"x_min":0,"x_max":0,"o":""},"㏊":{"ha":0,"x_min":0,"x_max":0,"o":"m 421 974 l 292 974 l 292 -24 l 421 -24 l 421 439 b 424 490 421 454 422 478 b 501 583 439 558 467 583 b 564 442 556 583 564 513 l 564 -24 l 694 -24 l 694 449 b 553 693 694 604 654 693 b 472 672 519 693 493 688 b 424 621 454 660 438 640 l 421 621 z m 1157 129 l 1157 433 b 965 688 1157 590 1108 688 b 810 644 896 688 833 661 l 833 553 b 936 585 865 574 894 585 b 1026 444 996 585 1026 542 l 1026 422 b 764 167 908 419 764 349 b 919 -39 764 35 838 -39 b 1039 38 965 -39 1007 -15 l 1042 38 l 1049 -29 l 1165 -29 b 1157 129 1158 17 1157 76 z m 1031 333 l 1031 186 b 1026 147 1031 172 1028 158 b 956 61 1014 82 985 61 b 888 179 928 61 888 90 b 1031 333 888 319 999 332 z "},"㎍":{"ha":0,"x_min":0,"x_max":0,"o":"m 1153 65 l 1153 440 l 1258 376 l 1256 376 b 1169 450 1236 415 1213 450 b 992 82 1085 450 992 347 b 1157 -264 992 -108 1040 -264 b 1243 -201 1188 -264 1228 -244 l 1246 -201 l 1246 -236 b 1144 -404 1246 -340 1218 -404 b 1053 -387 1106 -404 1076 -396 l 1028 -486 b 1147 -508 1060 -499 1100 -508 b 1313 -436 1231 -508 1279 -476 b 1371 -167 1351 -390 1371 -322 z m 1249 213 l 1249 -32 b 1190 -158 1249 -101 1222 -158 b 1117 88 1160 -158 1117 -97 b 1190 338 1117 225 1132 338 b 1249 213 1244 338 1249 243 "},"㎎":{"ha":0,"x_min":0,"x_max":0,"o":"m 117 492 b 742 -21 246 -29 708 -21 b NaN NaN 764 -21 788 NaN b NaN NaN NaN NaN NaN NaN l NaN NaN l NaN NaN l NaN NaN b NaN NaN NaN NaN NaN NaN b NaN NaN NaN NaN NaN NaN l NaN NaN l NaN NaN l NaN NaN b NaN NaN NaN NaN NaN NaN b NaN NaN NaN NaN NaN NaN b NaN NaN NaN NaN NaN NaN b NaN NaN NaN NaN NaN NaN b NaN NaN NaN NaN NaN NaN l NaN NaN l NaN NaN l NaN NaN b NaN NaN NaN NaN NaN NaN z m NaN NaN l NaN NaN b NaN NaN NaN NaN NaN NaN l NaN NaN l NaN NaN l NaN NaN b NaN NaN NaN NaN NaN NaN b NaN NaN NaN NaN NaN NaN b NaN NaN NaN NaN NaN NaN b NaN NaN NaN NaN NaN NaN l NaN NaN l NaN NaN b NaN NaN NaN NaN NaN NaN b NaN NaN NaN NaN NaN NaN l NaN NaN b NaN NaN NaN NaN NaN NaN b NaN NaN NaN NaN NaN NaN b NaN NaN NaN NaN NaN NaN z m NaN NaN l NaN NaN b NaN NaN NaN NaN NaN NaN b NaN NaN NaN NaN NaN NaN b NaN NaN NaN NaN NaN NaN b NaN NaN NaN NaN NaN NaN b NaN NaN NaN NaN NaN NaN b NaN NaN NaN NaN NaN NaN z "},"㎏":{"ha":-124,"x_min":0,"x_max":0,"o":"m 389 354 l 386 978 l 250 -29 b 432 268 311 69 372 168 l 285 268 z m 1014 -19 l 1014 357 l 1117 289 l 1114 289 b 1018 367 1093 331 1067 367 b 831 -1 928 367 831 261 b 1006 -347 831 -190 885 -347 b 1101 -281 1042 -347 1083 -326 l 1104 -281 l 1104 -318 b 994 -489 1104 -424 1072 -489 b 894 -469 951 -489 919 -479 l 868 -568 b 996 -593 903 -583 946 -593 b 1168 -519 1079 -593 1132 -561 b 1229 -249 1207 -472 1229 -403 l 1229 -372 l 1565 -372 b 1564 -389 1565 -378 1565 -383 b 1499 -504 1558 -467 1531 -504 b 1417 -257 1461 -504 1417 -437 b 1500 -6 1417 -118 1436 -6 b 1564 -124 1547 -6 1561 -69 b 1565 -174 1565 -139 1565 -156 z "},"㏏":{"ha":0,"x_min":0,"x_max":0,"o":"m 397 356 l 394 979 l 258 -29 l 440 268 l 293 268 z m 715 268 l 715 440 l 578 390 l 578 268 l 493 268 l 493 169 l 578 169 l 578 -218 b 626 -404 578 -321 593 -371 b 744 -447 654 -435 697 -447 b 839 -435 785 -447 817 -443 l 833 -329 b 788 -333 821 -332 806 -333 b 715 -222 747 -333 715 -312 l 715 169 l 850 169 l 850 268 z "},"㎈":{"ha":-131,"x_min":0,"x_max":0,"o":"m 1156 969 l 1025 969 l 1025 -29 l 1156 -29 z m 915 129 l 915 431 b 718 689 915 585 868 689 b 554 643 646 689 582 661 l 579 553 b 688 586 613 574 644 586 b 540 401 688 654 540 582 z m 79 257 l 154 182 l 240 232 l 283 258 l 335 293 l 321 394 b 263 382 300 385 282 382 b 125 629 174 382 125 474 b 261 885 125 763 168 885 b 319 871 289 885 308 874 l 340 978 b 261 994 326 986 294 994 b -4 629 97 994 -4 836 b 240 272 -4 392 93 272 b 335 293 281 272 315 281 z m 668 642 l 668 496 b 664 457 668 482 665 468 b 585 369 651 393 619 369 b 514 488 557 369 514 399 b 668 642 514 628 629 640 z "},"㎉":{"ha":0,"x_min":0,"x_max":0,"o":"m 228 351 l 225 351 l 225 972 l 111 972 l 111 -29 l 225 -29 l 225 228 b 249 286 232 247 240 267 b 333 -29 278 181 304 75 l 453 -29 l 326 376 l 451 678 l 336 678 l 253 439 b 228 351 243 414 238 388 z m 1233 972 l 1118 972 l 1118 -29 l 1233 -29 z m 1064 126 l 1064 438 b 894 686 1064 593 1019 686 b 760 644 833 686 778 661 b 781 556 765 615 774 585 b 867 586 810 575 833 586 b 946 444 917 586 946 547 l 946 421 b 717 167 853 418 717 350 b 854 -37 717 32 788 -37 b 958 36 894 -37 928 -17 l 963 36 l 967 -29 l 1069 -29 b 1064 126 1063 17 1064 76 z m 703 -19 l 690 82 b 654 74 675 74 664 74 b 543 318 579 74 543 164 b 653 576 544 450 575 576 b 690 565 669 576 683 568 l 708 671 b 651 685 700 678 675 685 b 429 321 513 685 429 525 b 636 -35 429 79 510 -35 b 703 -19 663 -35 686 -28 z m 947 335 l 947 181 b 944 144 947 168 947 154 b 888 61 936 79 908 61 b 828 179 865 61 828 88 b 947 335 828 324 931 332 z "},"㏈":{"ha":92,"x_min":0,"x_max":0,"o":"m 590 150 l 590 969 l 461 969 l 461 613 l 458 613 b 357 689 435 667 400 689 b 168 325 261 689 168 578 b 351 -39 168 101 232 -39 b 472 47 413 -39 456 7 l 478 47 l 488 -29 l 596 -29 b 590 150 594 19 590 101 z m 721 938 l 721 -26 b 861 -35 753 -32 794 -35 b 1117 57 975 -35 1065 -6 b 1181 249 1158 106 1181 171 b 1010 496 1181 368 1126 464 l 1010 500 z m 1172 100 l 1118 100 l 1118 19 l 1085 19 l 1085 331 b 1128 338 1096 335 1113 338 b 1258 185 1231 338 1258 265 b 1118 19 1258 89 1189 19 z m 696 -103 l 696 -314 b 692 -357 696 -331 696 -346 b 618 -449 669 -444 636 -449 b 531 -196 561 -449 531 -346 b 622 58 531 -67 550 58 b 694 -60 661 58 693 1 b 696 -103 697 -75 696 -89 z m 1085 -446 l 1085 -78 l 1117 -78 b 1283 -269 1204 -79 1283 -146 b 1124 -450 1283 -385 1221 -450 b 1085 -446 1108 -450 1094 -449 z "},"㎧":{"ha":-22,"x_min":0,"x_max":0,"o":"m 910 961 l 681 -87 l 767 -87 l 999 961 z m 149 1364 l 149 839 l 269 839 l 269 1313 b 278 1394 269 1347 274 1375 b 317 1451 285 1439 303 1451 b 356 1350 350 1451 354 1408 b 357 1338 357 1346 357 1342 l 357 839 l 472 839 l 472 1311 b 483 1408 472 1349 478 1383 b 521 1451 492 1438 506 1451 b 557 1314 553 1451 557 1396 l 557 839 l 676 839 l 676 1346 b 564 1553 676 1468 663 1553 b 511 1535 544 1553 526 1547 b 464 1482 494 1522 479 1506 l 461 1482 b 357 1553 440 1542 401 1553 b 256 1483 326 1553 283 1533 l 254 1483 b 249 1546 251 1504 250 1525 l 143 1546 b 149 1364 146 1485 149 1447 z "},"㎨":{"ha":-17,"x_min":0,"x_max":0,"o":"b 800 1188 0 1117 800 1153 b 857 NaN 800 1228 857 NaN b 792 NaN 857 NaN 842 NaN b 763 NaN 783 NaN 774 NaN b 692 NaN 735 NaN 708 NaN b 628 NaN 664 NaN 628 NaN m 378 NaN l 149 NaN l 236 NaN b 467 NaN 313 NaN 389 NaN z m -378 NaN l -378 NaN l -258 NaN l -258 NaN b -256 NaN -258 NaN -258 NaN b -214 NaN -249 NaN -233 NaN b -175 NaN -183 NaN -176 NaN l -175 NaN l -60 NaN l -60 NaN b -56 NaN -60 NaN -58 NaN b -14 NaN -50 NaN -39 NaN b 24 NaN 14 NaN 24 NaN l 24 NaN l 142 NaN l 142 NaN b 29 NaN 142 NaN 133 NaN b -68 NaN -15 NaN -49 NaN l -71 NaN b -174 NaN -92 NaN -128 NaN b -275 NaN -201 NaN -249 NaN l -276 NaN b -281 NaN -278 NaN -278 NaN l -383 NaN b -378 NaN -381 NaN -378 NaN z "},"㎰":{"ha":21,"x_min":0,"x_max":0,"o":"m 790 106 l 760 6 b 769 138 733 6 769 69 b NaN NaN 769 40 822 NaN b NaN NaN NaN NaN NaN NaN b NaN NaN NaN NaN NaN NaN b NaN NaN NaN NaN NaN NaN l NaN NaN z m NaN NaN l NaN NaN l NaN NaN l NaN NaN l NaN NaN l NaN NaN l NaN NaN l NaN NaN b NaN NaN NaN NaN NaN NaN b NaN NaN NaN NaN NaN NaN b NaN NaN NaN NaN NaN NaN b NaN NaN NaN NaN NaN NaN l NaN NaN b NaN NaN NaN NaN NaN NaN b NaN NaN NaN NaN NaN NaN b NaN NaN NaN NaN NaN NaN b NaN NaN NaN NaN NaN NaN b NaN NaN NaN NaN NaN NaN b NaN NaN NaN NaN NaN NaN z "},"㎱":{"ha":0,"x_min":0,"x_max":0,"o":"m 178 485 l 178 -29 l 314 -29 l 314 408 b 322 471 314 433 317 456 b 436 576 339 536 383 576 b 543 413 522 576 543 496 l 543 -29 l 682 -29 l 682 426 b 485 690 682 611 594 690 b 301 586 397 690 336 646 l 299 586 l 292 678 l 172 678 b 178 485 175 617 178 563 z m 814 106 l 783 3 b 943 -39 819 -22 883 -39 b 1178 174 1081 -39 1178 35 b 1024 389 1178 268 1122 335 b 926 501 951 431 926 456 b 1018 585 926 546 957 585 b 1126 553 1063 585 1100 569 l 1157 654 b 1015 690 1122 674 1075 690 b 799 483 886 690 799 601 b 951 283 799 408 843 342 b 1050 158 1025 242 1050 208 b 946 67 1050 101 1013 67 b 814 106 894 67 843 88 z "},"㎲":{"ha":0,"x_min":0,"x_max":0,"o":"m 781 3 b 793 132 756 3 793 65 b NaN NaN 793 35 847 NaN b NaN NaN NaN NaN NaN NaN b NaN NaN NaN NaN NaN NaN b NaN NaN NaN NaN NaN NaN l NaN NaN b NaN NaN NaN NaN NaN NaN b NaN NaN NaN NaN NaN NaN "},"㎳":{"ha":0,"x_min":0,"x_max":0,"o":"m 867 104 l 836 3 b 982 -37 869 -22 929 -37 b 1207 175 1110 -37 1207 32 b 1063 392 1207 268 1151 336 b 976 503 994 436 976 461 b 1061 583 976 544 1004 583 b 1157 553 1099 583 1131 571 l 1188 654 b 1056 689 1156 672 1113 689 b 850 485 936 689 850 604 b 992 283 850 410 892 344 b 1081 157 1060 239 1081 206 b 985 68 1081 100 1044 68 b 867 104 938 68 892 89 z m 169 494 l 169 -29 l 292 -29 l 292 497 b 346 585 297 571 331 585 b 393 464 408 585 393 504 l 393 -29 l 510 -29 l 510 442 b 513 500 510 467 510 486 b 569 585 522 563 547 585 b 613 440 628 585 613 497 l 613 -29 l 732 -29 l 732 469 b 611 686 732 600 715 686 b 501 610 557 685 525 654 l 499 610 b 388 686 476 671 438 686 b 276 613 354 686 307 665 l 275 613 l 271 678 l 164 678 b 169 494 165 617 169 578 z "},"㎴":{"ha":0,"x_min":0,"x_max":0,"o":"m 629 953 l 851 -29 l 993 -29 l 1221 953 l 1075 953 b 1236 818 992 925 1126 904 l 1685 NaN z m 1108 NaN l 1108 NaN l 1236 NaN l 1236 NaN l 1239 NaN b 1338 NaN 1254 NaN 1281 NaN b 1529 NaN 1435 NaN 1529 NaN b 1346 NaN 1529 NaN 1472 NaN b 1225 NaN 1301 NaN 1257 NaN l 1222 NaN l 1217 NaN l 1103 NaN b 1108 NaN 1106 NaN 1108 NaN z m 1236 NaN l 1236 NaN b 1240 NaN 1236 NaN 1238 NaN b 1308 NaN 1246 NaN 1275 NaN b 1400 NaN 1375 NaN 1400 NaN b 1310 NaN 1400 NaN 1386 NaN b 1243 NaN 1299 NaN 1265 NaN b 1236 NaN 1239 NaN 1236 NaN z "},"㎵":{"ha":0,"x_min":0,"x_max":0,"o":"m 639 953 l 861 -29 l 1004 -29 l 1232 953 l 1086 953 b 1246 818 1001 926 1136 904 l 1694 NaN z m 1092 NaN l 1092 NaN l 1229 NaN l 1229 NaN b 1235 NaN 1229 NaN 1231 NaN b 1338 NaN 1250 NaN 1294 NaN b 1435 NaN 1414 NaN 1435 NaN l 1435 NaN l 1572 NaN l 1572 NaN b 1388 NaN 1572 NaN 1500 NaN b 1214 NaN 1308 NaN 1247 NaN l 1211 NaN l 1206 NaN l 1086 NaN b 1092 NaN 1089 NaN 1092 NaN z "},"㎶":{"ha":0,"x_min":0,"x_max":0,"o":"m 863 -29 l 1006 -29 l 1233 953 l 1088 953 b 1003 506 1058 803 1032 656 b 943 138 981 390 957 261 l 939 138 b 875 503 922 260 896 393 l 788 953 l 640 953 b 863 -29 715 625 789 297 "},"㎷":{"ha":0,"x_min":0,"x_max":0,"o":"m 747 953 l 929 -29 l 1065 -29 l 1244 953 l 1106 953 l 1047 514 b 1004 143 1033 403 1014 271 l 1000 143 b 951 510 990 269 965 410 l 886 953 z m 124 492 b 746 -21 249 -29 711 -21 b NaN NaN 768 -21 793 NaN b NaN NaN NaN NaN NaN NaN l NaN NaN l NaN NaN l NaN NaN b NaN NaN NaN NaN NaN NaN b NaN NaN NaN NaN NaN NaN b NaN NaN NaN NaN NaN NaN l NaN NaN l NaN NaN l NaN NaN b NaN NaN NaN NaN NaN NaN b NaN NaN NaN NaN NaN NaN b NaN NaN NaN NaN NaN NaN b NaN NaN NaN NaN NaN NaN b NaN NaN NaN NaN NaN NaN l NaN NaN l NaN NaN l NaN NaN b NaN NaN NaN NaN NaN NaN z "},"㎸":{"ha":0,"x_min":0,"x_max":0,"o":"m 369 356 l 367 979 l 231 -29 l 413 268 l 265 268 l 140 31 b 103 -54 128 6 115 -22 z m 422 543 l 614 -439 l 750 -439 l 942 543 l 801 543 l 736 101 b 689 -269 719 -12 700 -143 l 685 -269 b 632 97 674 -144 649 -7 l 561 543 z "},"㎹":{"ha":0,"x_min":0,"x_max":0,"o":"m 607 358 l 625 -29 l 736 -29 l 679 953 l 558 953 l 488 539 b 435 199 464 403 447 315 l 431 199 b 364 539 413 311 392 406 l 285 953 l 169 953 l 108 -29 l 215 -29 l 231 354 b 239 694 235 474 240 592 l 244 694 b 304 375 258 590 282 474 l 383 -21 l 461 -21 l 544 392 b 593 694 561 481 579 593 l 597 694 b 607 358 593 599 600 469 z m 772 953 l 940 -29 l 1072 -29 l 1233 953 l 1097 953 l 1051 518 b 1015 144 1040 411 1022 271 l 1010 144 b 968 513 1001 269 981 411 l 908 953 z "},"㎀":{"ha":842,"x_min":0,"x_max":0,"o":"m -807 -117 l -807 -847 l -671 -847 l -671 -537 l -668 -537 b -546 -614 -647 -576 -611 -614 b -325 -246 -433 -614 -325 -508 b -533 117 -325 -25 -399 117 b -682 18 -592 117 -646 88 l -685 18 b -676 57 -685 11 -682 38 b -587 153 -664 110 -632 153 b -474 -97 -508 153 -474 44 b -587 -350 -474 -231 -503 -350 b -678 -253 -615 -350 -660 -335 b -685 -192 -682 -235 -685 -214 z "},"㎁":{"ha":807,"x_min":0,"x_max":0,"o":"m -825 -86 l -825 -601 l -689 -601 l -689 -160 b -682 -97 -689 -135 -686 -112 b -587 3 -668 -32 -628 3 b -511 -37 -512 18 -511 -42 b -592 NaN -511 -89 -592 NaN z "},"㎂":{"ha":0,"x_min":0,"x_max":0,"o":"m 833 -29 l 881 236 l 1050 236 b 1096 -29 1065 147 1079 58 l 1218 -29 l 1044 953 l 901 953 l 711 -29 z m 1039 340 l 894 340 l 931 569 b 967 806 942 633 957 732 l 971 806 l 1006 571 b 1039 340 1018 494 1026 418 "},"㎃":{"ha":0,"x_min":0,"x_max":0,"o":"m 885 -29 l 929 233 l 1083 233 l 1125 -29 l 1247 -29 l 1086 953 l 942 953 l 763 -29 z m 1044 565 l 1074 339 l 940 339 l 972 563 b 1007 804 983 628 997 729 l 1011 804 b 1044 565 1021 729 1033 632 z m 147 494 l 147 -29 l 269 -29 l 269 442 b 278 525 269 476 272 504 b 324 585 286 567 306 585 b 371 464 369 585 371 529 l 371 -29 l 488 -29 l 488 442 b 499 529 488 476 493 507 b 546 585 508 567 526 585 b 590 440 588 585 590 524 l 590 -29 l 711 -29 l 711 469 b 589 686 711 600 693 686 b 479 610 542 686 506 658 l 476 610 b 367 686 454 671 415 686 b 254 613 333 686 285 665 l 253 613 l 249 678 l 142 678 b 147 494 144 618 147 575 z "},"㎄":{"ha":0,"x_min":0,"x_max":0,"o":"m 356 353 l 353 353 l 353 969 l 226 969 l 226 -29 l 353 -29 l 353 228 l 385 289 l 499 -29 l 636 -29 l 472 378 l 629 678 l 494 678 l 388 440 z m 803 -29 l 850 236 l 1019 236 l 1065 -29 l 1188 -29 l 1014 953 l 871 989 l 1100 1000 b 1338 NaN 1164 1015 1263 1025 l 1342 NaN b 1376 NaN 1351 NaN 1363 NaN z "},"㎺":{"ha":0,"x_min":0,"x_max":0,"o":"m -501 -490 l -501 -1228 l -376 -1228 l -376 -928 l -374 -928 b -297 -992 -365 -954 -349 -992 b -131 -631 -214 -992 -131 -896 b -293 -267 -131 -408 -175 -267 b -387 -347 -321 -267 -360 -285 l -390 -347 l -396 -275 l -507 -275 b -501 -490 -504 -325 -501 -383 z m -376 -742 l -376 -521 b -371 -450 -376 -500 -375 -469 b -325 -378 -367 -414 -347 -378 b -256 -632 -271 -378 -256 -483 b -322 -883 -256 -756 -258 -883 b -369 -822 -333 -883 -358 -871 b -376 -742 -374 -799 -376 -765 z "},"㎻":{"ha":0,"x_min":0,"x_max":0,"o":"m -547 -458 l -547 -953 l -424 -953 l -424 -526 b -419 -464 -424 -500 -422 -479 b -343 -374 -407 -401 -372 -374 b -274 -507 -281 -374 -274 -443 l -274 -953 l -150 -953 l -150 -494 b -299 -268 -150 -351 -194 -268 b -437 -351 -357 -268 -406 -299 l -440 -351 l -446 -279 l -553 -279 b -547 -458 -550 -336 -547 -381 z "},"㎼":{"ha":0,"x_min":0,"x_max":0,"o":"m 631 953 l 754 -29 l 853 -29 l 900 315 l 911 399 b 944 676 922 482 933 578 l 947 676 l 972 463 b 990 318 978 410 983 360 l 1042 -29 l 1153 -29 b 1260 953 1188 297 1225 625 l 1147 953 b 1118 528 1139 811 1128 669 b 1092 163 1111 425 1106 322 l 1088 163 b 1044 540 1078 319 1061 428 b 985 953 1025 678 1006 814 l 917 953 b 861 522 897 810 879 665 b 819 165 844 401 829 307 l 813 165 b 790 522 806 306 803 401 b 750 953 776 665 763 810 z m 358 474 l 249 501 b 89 -42 196 319 142 139 b 46 -258 63 -136 49 -208 l 158 -258 b 206 -50 168 -193 188 -115 b 226 28 211 -26 219 3 b 301 -12 243 -1 271 -12 b 454 81 357 -12 415 25 b 518 -12 454 19 478 -7 b 558 -12 532 -15 544 -14 l 586 82 b 556 111 568 81 556 88 b 578 208 556 138 569 179 l 649 474 l 539 501 l 483 306 b 456 233 476 283 465 254 b 328 106 433 186 385 106 b 276 158 292 106 276 126 b 290 229 276 179 283 207 b 358 474 314 310 336 393 z "},"㎽":{"ha":0,"x_min":0,"x_max":0,"o":"m 625 953 l 747 -29 l 850 -29 l 897 315 b 908 399 900 342 904 369 b 942 676 919 482 931 578 l 944 676 b 968 463 951 603 960 529 b 988 318 975 410 981 360 l 1039 -29 l 1153 -29 b 1260 953 1188 297 1225 625 l 1147 953 b 1118 528 1139 811 1128 669 b 1092 163 1111 425 1106 322 l 1088 163 b 1044 540 1078 319 1061 428 b 985 953 1025 678 1006 814 b 1197 913 910 940 1053 926 b NaN NaN 1340 NaN NaN NaN z m NaN NaN l NaN NaN l NaN NaN l NaN NaN b NaN NaN NaN NaN NaN NaN b NaN NaN NaN NaN NaN NaN b NaN NaN NaN NaN NaN NaN b NaN NaN NaN NaN NaN NaN b NaN NaN NaN NaN NaN NaN b NaN NaN NaN NaN NaN NaN l NaN NaN l NaN NaN l NaN NaN b NaN NaN NaN NaN NaN NaN b NaN NaN NaN NaN NaN NaN b NaN NaN NaN NaN NaN NaN l NaN NaN b NaN NaN NaN NaN NaN NaN l NaN NaN b NaN NaN NaN NaN NaN NaN b NaN NaN NaN NaN NaN NaN l NaN NaN l NaN NaN l NaN NaN b NaN NaN NaN NaN NaN NaN z "},"㎾":{"ha":0,"x_min":0,"x_max":0,"o":"m 254 351 l 250 964 l 128 -29 l 250 -117 l 11 -128 b -76 NaN -14 -133 -40 -142 z m 186 NaN l 332 NaN l 444 NaN b 506 NaN 464 NaN 485 NaN b 519 NaN 510 NaN 514 NaN b 556 NaN 533 NaN 544 NaN l 558 NaN b 593 NaN 569 NaN 581 NaN b 606 NaN 597 NaN 600 NaN l 669 NaN l 792 NaN b 928 NaN 838 NaN 883 NaN l 807 NaN l 763 NaN l 726 NaN l 724 NaN b 675 NaN 711 NaN 693 NaN b 606 NaN 653 NaN 628 NaN l 519 NaN b 454 NaN 497 NaN 475 NaN b 403 NaN 433 NaN 415 NaN z "},"㎿":{"ha":0,"x_min":0,"x_max":0,"o":"m 486 354 l 503 -29 l 601 -29 l 547 953 l 449 953 l 393 539 b 349 200 375 401 361 315 l 344 200 b 290 539 331 314 315 404 l 225 953 l 133 953 l 75 -29 l 169 -29 l 182 349 b 190 672 186 464 192 574 l 196 672 b 243 365 208 572 226 458 l 308 -19 l 375 -19 l 442 385 b 474 672 456 463 465 574 l 479 672 b 486 354 478 582 481 460 z m 636 953 l 760 -29 l 857 -29 l 908 343 b 949 676 922 436 935 556 l 951 676 b 990 346 964 558 978 433 l 1046 -29 l 1154 -29 l 1263 953 l 1150 953 l 1121 528 b 1094 163 1114 425 1108 324 l 1090 163 b 1047 540 1081 319 1064 429 l 988 953 b NaN NaN 921 913 1351 NaN l NaN NaN z "},"㎐":{"ha":0,"x_min":0,"x_max":0,"o":"m 329 542 l 329 936 l 199 936 l 199 0 l 329 0 l 329 424 l 569 424 l 569 0 l 699 0 l 699 936 l 569 936 l 569 542 z m 782 79 l 782 185 l 526 185 l 526 188 b 599 318 549 229 574 276 b 781 665 658 435 719 550 l 781 753 l 407 753 l 407 646 l 638 646 l 638 643 b 599 572 628 622 613 597 b 567 514 589 553 578 533 b 382 158 506 394 443 278 z "},"㎑":{"ha":0,"x_min":0,"x_max":0,"o":"m 240 350 l 236 350 l 236 960 l 119 960 l 119 -29 l 236 -29 l 236 231 b 254 285 243 249 249 267 l 321 -29 l 440 -29 b 335 374 406 104 371 240 l 446 678 l 331 678 b 260 439 308 599 283 518 b 240 350 253 413 249 388 z m 632 533 l 632 953 l 503 953 l 503 -29 l 632 -29 l 632 413 l 776 413 l 776 -29 l 903 -29 l 903 953 l 776 953 l 776 533 z m 932 51 l 932 -29 l 1261 -29 l 1261 76 l 1063 76 l 1063 79 b 1093 165 1069 104 1081 135 b 1108 197 1097 175 1104 186 b 1264 586 1160 329 1213 457 l 1264 676 l 957 676 l 957 569 l 1133 569 l 1133 567 b 1103 490 1129 547 1115 518 b 1081 431 1096 469 1088 451 b 932 51 1031 303 981 178 z "},"㎒":{"ha":0,"x_min":0,"x_max":0,"o":"m 463 347 l 481 -29 l 579 -29 l 525 953 l 424 953 b 376 560 408 822 393 690 b 335 222 361 432 347 340 l 331 222 b 281 542 317 331 301 419 b 219 953 258 678 240 815 l 125 953 b 67 -29 107 625 86 297 l 163 -29 l 175 343 b 182 624 178 438 182 535 l 182 664 l 188 664 b 233 356 200 565 218 442 b 294 -18 253 231 274 106 l 361 -18 l 422 368 b 451 664 435 444 444 567 l 456 664 b 463 347 456 574 458 453 z m 721 526 l 721 953 l 613 953 l 613 -29 l 721 -29 l 721 418 l 831 418 l 831 -29 l 936 -29 l 936 953 l 831 953 l 831 526 z m 1106 439 l 986 50 l 986 -29 l 1250 -29 l 1250 72 l 1099 72 l 1099 75 b 1138 208 1106 115 1119 163 b 1257 586 1176 336 1215 461 l 1257 678 l 1013 678 l 1013 575 l 1142 575 l 1142 568 b 1122 499 1139 549 1131 525 b 1106 439 1115 478 1110 458 z "},"㎓":{"ha":0,"x_min":0,"x_max":0,"o":"m 460 -17 l 460 490 l 269 490 l 269 381 l 344 381 l 344 71 b 336 68 344 71 344 68 b 197 446 285 68 197 139 b 375 838 197 763 304 838 b 428 824 399 838 418 833 b 451 936 436 861 444 899 b 367 956 429 950 403 956 b 67 444 261 956 69 860 l 67 428 b 176 35 67 246 111 107 b 346 -40 228 -22 286 -40 b 460 -17 372 -40 426 -32 z m 644 533 l 644 953 l 518 953 l 518 -29 l 644 -29 l 644 413 l 788 413 l 788 -29 l 910 -29 l 910 953 l 788 953 l 788 533 z m 1140 567 l 938 51 l 938 -29 l 1268 -29 l 1268 76 l 1068 76 l 1068 79 l 1271 586 l 1271 676 l 964 676 l 964 569 l 1140 569 z "},"㎔":{"ha":0,"x_min":0,"x_max":0,"o":"m 606 533 l 606 953 l 476 953 l 476 -29 l 606 -29 l 606 413 l 750 413 l 750 -29 l 876 -29 l 876 953 l 750 953 l 750 533 z m 83 829 l 199 829 l 199 -29 l 325 -29 l 325 829 l 440 829 l 440 951 l 83 951 z m 1113 567 l 910 51 l 910 -29 l 1240 -29 l 1240 76 l 1040 76 l 1040 79 l 1243 586 l 1243 676 l 936 676 l 936 569 l 1113 569 z "},"Ω":{"ha":0,"x_min":0,"x_max":0,"o":"l 218 0 l 218 950 l 331 950 l 331 954 b 511 1351 418 1029 511 1161 b 83 1789 511 1590 349 1789 b -360 1339 -172 1789 -360 1600 b -181 954 -360 1161 -271 1029 l -181 950 l -379 950 l -379 838 l -10 838 l -10 926 b -208 1324 -115 993 -208 1154 b 81 1671 -208 1501 -104 1671 b 361 1325 264 1671 361 1493 b 163 926 361 1143 269 1001 l 163 838 l 529 838 "},"㏀":{"ha":0,"x_min":0,"x_max":0,"o":"m 288 351 l 283 351 l 283 965 l 161 965 l 161 -29 l 283 -29 l 283 228 b 310 288 292 249 301 268 l 410 -29 l 538 -29 l 393 376 l 535 678 l 410 678 l 315 439 b 288 351 303 414 296 388 z m 1215 82 l 1081 82 l 1081 86 b 1207 525 1149 181 1207 343 b 929 963 1207 769 1114 963 b 628 514 747 963 628 786 b 754 86 628 340 686 186 l 754 82 l 619 82 l 619 -29 l 879 -29 l 879 56 b 767 493 817 132 767 322 b 919 839 767 660 808 839 b 1068 490 1031 839 1067 656 b 957 56 1068 308 1026 136 l 957 -29 l 1215 -29 z "},"㏁":{"ha":0,"x_min":0,"x_max":0,"o":"m 1253 83 l 1135 83 l 1135 88 b 1242 NaN 1194 186 1242 NaN b 1014 NaN 1242 NaN 1169 NaN b 760 NaN 858 NaN 760 NaN b 865 NaN 760 NaN 807 NaN l 865 NaN l 750 NaN l 750 NaN l 981 NaN l 981 NaN b 894 NaN 936 NaN 894 NaN b 1001 NaN 894 NaN 915 NaN b 1107 NaN 1088 NaN 1106 NaN b 1021 NaN 1107 NaN 1074 NaN l 1021 NaN l 1253 NaN z m 583 NaN l 601 NaN l 714 NaN l 657 NaN l 533 NaN l 463 NaN b 408 NaN 438 NaN 422 NaN l 404 NaN b 339 NaN 388 NaN 367 NaN l 258 NaN l 142 NaN l 79 NaN l 188 NaN l 203 NaN b 213 NaN 207 NaN 213 NaN l 218 NaN b 276 NaN 231 NaN 254 NaN l 357 NaN l 436 NaN l 521 NaN b 569 NaN 538 NaN 556 NaN l 574 NaN b 583 NaN 569 NaN 576 NaN z "},"㎊":{"ha":0,"x_min":0,"x_max":0,"o":"m 1168 953 l 778 953 l 778 -29 l 915 -29 l 915 404 l 1151 404 l 1151 519 l 915 519 l 915 833 l 1168 833 z m 200 457 l 200 -275 l 336 -275 l 336 36 l 339 36 b 461 -40 358 -1 396 -40 b 683 326 574 -40 683 67 b 474 689 683 549 607 689 b 325 592 415 689 361 661 l 322 592 l 315 678 l 194 678 b 200 457 197 622 200 558 z m 336 231 l 336 414 b 340 467 336 432 338 450 b 433 575 349 522 389 575 b 546 324 513 575 546 467 b 433 72 546 190 519 72 b 342 171 406 72 364 88 b 336 231 338 188 336 208 z "},"㎋":{"ha":0,"x_min":0,"x_max":0,"o":"m 1182 953 l 790 953 l 790 -29 l 928 -29 l 928 404 l 1165 404 l 1165 519 l 928 519 l 928 833 l 1182 833 z m 201 486 l 201 -29 l 338 -29 l 338 413 b 344 475 338 438 340 460 b 440 575 360 540 399 575 b 518 532 515 589 518 529 b 438 NaN 518 481 438 NaN z "},"㎌":{"ha":0,"x_min":0,"x_max":0,"o":"m 1181 953 l 790 953 l 790 -29 l 928 -29 l 928 403 l 1164 403 l 1164 518 l 928 518 l 928 833 l 1181 833 "},"㏖":{"ha":0,"x_min":0,"x_max":0,"o":"m 1189 964 l 1069 964 l 1069 -29 l 1189 -29 z m 825 -36 l 826 -36 b 1010 325 919 -36 1010 43 b 828 688 1010 576 925 688 b 642 325 735 688 642 586 b 825 -36 642 64 728 -36 z m 104 492 l 104 -29 l 218 -29 l 218 436 b 221 500 218 458 218 481 b 261 581 225 553 239 581 b 290 479 288 581 290 525 l 290 -29 l 401 -29 l 401 438 b 406 508 401 460 401 486 b 439 581 410 550 421 581 b 478 433 471 581 478 501 l 478 -29 l 585 -29 l 585 465 b 482 686 585 600 567 686 b 429 668 465 686 444 681 b 383 606 414 656 396 632 l 382 606 b 303 683 365 661 339 682 l 293 683 b 256 671 279 683 267 679 b 207 610 238 660 219 640 l 206 610 b 200 678 203 633 201 656 l 100 678 b 104 492 101 617 104 576 z m 829 68 b 754 328 764 68 754 222 b 826 582 754 421 768 582 b 896 325 888 582 896 425 b 854 89 896 256 894 126 b 829 68 849 76 839 68 z "},"㏅":{"ha":0,"x_min":0,"x_max":0,"o":"m 1099 151 l 1099 979 l 964 979 l 964 608 l 961 608 b 835 689 935 664 890 689 b 617 322 722 689 617 572 b 826 -42 617 100 697 -42 b 975 56 899 -42 951 6 l 979 56 l 989 -29 l 1104 -29 b 1099 151 1103 18 1099 99 z m 565 -15 l 549 92 b 469 75 525 81 500 75 b 313 321 372 75 313 167 b 469 574 313 454 364 574 b 547 557 506 574 531 564 l 569 667 b 468 688 550 678 508 688 b 175 319 286 688 175 528 b 446 -39 175 86 283 -39 b 565 -15 497 -39 542 -26 z m 964 408 l 964 221 b 956 165 964 203 960 179 b 863 72 933 92 894 72 b 753 321 792 72 753 175 b 868 574 753 454 783 574 b 958 468 917 574 951 528 b 964 408 963 446 964 424 z "},"㎭":{"ha":0,"x_min":0,"x_max":0,"o":"m 1181 143 l 1181 960 l 1057 960 l 1057 614 l 1054 614 b 971 683 1032 667 1001 683 b 808 322 892 683 808 579 b 968 -40 808 97 860 -40 b 1065 35 1018 -40 1054 1 l 1072 35 l 1083 -32 l 1186 -32 l 1186 -18 b 1181 143 1186 29 1181 101 z m 756 124 l 756 433 b 572 683 756 590 708 683 b 426 642 507 683 446 657 l 450 551 b 543 582 481 571 506 582 b 628 442 597 582 628 544 l 628 418 b 381 163 528 415 381 346 b 529 -40 381 28 456 -40 b 642 33 572 -40 608 -19 l 644 33 l 650 -32 l 763 -32 b 756 124 756 14 756 74 z m 113 494 l 113 -32 l 239 -32 l 239 349 b 238 356 238 350 238 353 b 247 435 238 386 242 415 b 357 549 264 504 311 549 l 374 549 l 374 682 l 353 682 b 232 582 300 682 254 638 l 228 582 b 221 674 226 613 224 643 l 107 674 b 113 494 110 619 113 544 z m 1057 439 l 1057 189 b 1053 147 1057 172 1057 157 b 1000 65 1032 69 1008 65 l 997 65 b 933 317 954 65 933 167 b 1004 571 933 444 940 571 b 1056 458 1033 571 1056 518 b 1057 439 1057 451 1057 446 z m 629 332 l 629 178 b 625 140 629 165 628 151 b 565 57 617 75 589 57 b 500 176 542 57 500 86 b 629 332 500 321 611 328 z "},"㎮":{"ha":0,"x_min":0,"x_max":0,"o":"m 828 -97 l 900 -97 l 1067 950 l 993 950 b 828 -97 939 600 883 251 z m 801 133 l 801 940 l 710 940 l 710 614 l 707 614 b 667 675 699 660 685 675 l 625 675 l 625 750 b 621 883 625 788 622 835 z m NaN 1244 b NaN 1072 NaN 1188 NaN 1129 z m NaN 692 l NaN 1017 b NaN 1253 NaN 1176 NaN 1253 b NaN 1217 NaN 1253 NaN 1229 l NaN 1132 b NaN 1154 NaN 1150 NaN 1154 b NaN 1015 NaN 1154 NaN 1131 l NaN 989 b NaN 736 NaN 982 NaN 921 b NaN 532 NaN 592 NaN 532 b NaN 597 NaN 532 NaN 547 l NaN 597 l NaN 539 l NaN 539 b NaN 692 NaN 585 NaN 640 z m NaN 568 b NaN 536 NaN 549 NaN 536 b NaN 746 NaN 536 NaN 586 b NaN 963 NaN 825 NaN 900 b NaN 1076 NaN 1013 NaN 1040 b NaN 1151 NaN 1113 NaN 1151 b NaN 1131 NaN 1151 NaN 1147 b NaN 1224 NaN 1163 NaN 1193 b NaN 1253 NaN 1239 NaN 1253 b NaN 1057 NaN 1253 NaN 1175 b NaN 856 NaN 992 NaN 932 b NaN 722 NaN 806 NaN 764 b NaN 635 NaN 661 NaN 635 b NaN 656 NaN 635 NaN 647 b NaN 568 NaN 626 NaN 596 z m NaN 1006 l NaN 736 b NaN 633 NaN 664 NaN 633 b NaN 889 NaN 633 NaN 721 b NaN 1140 NaN 1025 NaN 1140 b NaN 1006 NaN 1140 NaN 1096 b NaN 1069 NaN 978 NaN 1069 b NaN 1125 NaN 1069 NaN 1107 z "},"㎯":{"ha":0,"x_min":0,"x_max":0,"o":"b 790 1181 0 1110 790 1146 b 847 NaN 790 1221 847 NaN b 782 NaN 847 NaN 832 NaN b 753 NaN 774 NaN 765 NaN b 682 NaN 726 NaN 700 NaN l 693 NaN b 740 NaN 706 NaN 722 NaN b 778 NaN 763 NaN 778 NaN b 710 NaN 778 NaN 750 NaN m 393 NaN l 465 NaN l 632 NaN l 558 NaN b 393 NaN 504 NaN 449 NaN z m 367 NaN l 367 NaN l 275 NaN l 275 NaN l 272 NaN b 233 NaN 264 NaN 251 NaN l 190 NaN l 190 NaN b 185 NaN 189 NaN 186 NaN z m NaN NaN b NaN NaN NaN NaN NaN NaN z m NaN NaN l NaN NaN b NaN NaN NaN NaN NaN NaN b NaN NaN NaN NaN NaN NaN l NaN NaN b NaN NaN NaN NaN NaN NaN b NaN NaN NaN NaN NaN NaN l NaN NaN b NaN NaN NaN NaN NaN NaN b NaN NaN NaN NaN NaN NaN b NaN NaN NaN NaN NaN NaN l NaN NaN l NaN NaN l NaN NaN b NaN NaN NaN NaN NaN NaN z m NaN NaN b NaN NaN NaN NaN NaN NaN b NaN NaN NaN NaN NaN NaN b NaN NaN NaN NaN NaN NaN b NaN NaN NaN NaN NaN NaN b NaN NaN NaN NaN NaN NaN b NaN NaN NaN NaN NaN NaN b NaN NaN NaN NaN NaN NaN b NaN NaN NaN NaN NaN NaN b NaN NaN NaN NaN NaN NaN b NaN NaN NaN NaN NaN NaN b NaN NaN NaN NaN NaN NaN b NaN NaN NaN NaN NaN NaN b NaN NaN NaN NaN NaN NaN b NaN NaN NaN NaN NaN NaN z m NaN NaN l NaN NaN b NaN NaN NaN NaN NaN NaN b NaN NaN NaN NaN NaN NaN b NaN NaN NaN NaN NaN NaN b NaN NaN NaN NaN NaN NaN b NaN NaN NaN NaN NaN NaN b NaN NaN NaN NaN NaN NaN z "},"㏛":{"ha":0,"x_min":0,"x_max":0,"o":"m 267 1 b 413 -37 297 -22 358 -37 b 638 175 539 -37 638 32 b 492 392 638 268 581 336 b 407 503 425 436 407 460 b 492 583 407 544 433 583 b 588 553 528 583 560 571 l 617 654 b 486 689 586 672 543 689 b 279 485 367 689 279 603 b 422 282 279 410 322 344 b 510 157 490 239 510 204 b 415 68 510 100 474 68 b 297 103 368 68 322 88 b 267 1 286 69 276 35 z m 742 486 l 742 -29 l 878 -29 l 878 353 b 883 422 878 378 881 403 b 1014 550 900 499 951 550 b 1042 549 1024 550 1033 550 l 1042 688 b 1014 689 1033 689 1025 689 b 867 569 951 689 892 639 l 863 569 l 857 678 l 736 678 b 742 486 738 621 742 549 z "},"㎩":{"ha":-131,"x_min":0,"x_max":0,"o":"m 251 936 l 251 -31 l 381 -31 l 381 365 l 414 365 b 625 469 486 365 572 399 b 689 678 665 521 689 583 b 619 883 689 763 667 836 b 399 954 565 939 488 954 b 251 936 347 954 296 949 z m 381 475 l 381 840 b 424 846 393 843 407 846 b 560 668 532 846 560 757 b 407 474 560 544 500 474 b 381 475 394 474 390 474 z m 1117 129 l 1117 431 b 919 689 1117 585 1069 689 b 757 643 849 689 783 661 l 782 553 b 890 586 814 574 847 586 b 744 400 890 653 744 581 z m 617 604 l 617 678 l 542 678 l 542 765 l 590 765 l 590 810 l 617 810 l 617 861 l 650 861 l 650 715 b 646 675 650 701 649 688 b 568 589 633 611 603 589 b 496 707 539 589 496 618 b 650 861 496 847 611 860 z "},"㎪":{"ha":0,"x_min":0,"x_max":0,"o":"m 215 351 l 213 964 l 89 -29 l 213 -118 l -26 -128 b -114 NaN -51 -133 -78 -143 z m 168 NaN l 168 NaN l 293 NaN l 293 NaN b 311 NaN 300 NaN 303 NaN b 503 NaN 372 NaN 456 NaN b 563 NaN 539 NaN 563 NaN b 497 NaN 563 NaN 542 NaN b 292 NaN 444 NaN 371 NaN b 168 NaN 250 NaN 207 NaN z m 294 NaN l 293 NaN l 293 NaN b 319 NaN 300 NaN 310 NaN b 438 NaN 422 NaN 438 NaN b 303 NaN 438 NaN 385 NaN b 294 NaN 299 NaN 297 NaN z m 917 NaN l 917 NaN b 735 NaN 917 NaN 869 NaN b 592 NaN 671 NaN 611 NaN b 614 NaN 600 NaN 606 NaN b 706 NaN 646 NaN 669 NaN b 790 NaN 760 NaN 790 NaN l 790 NaN b 547 NaN 690 NaN 547 NaN b 693 NaN 547 NaN 621 NaN b 803 NaN 735 NaN 771 NaN l 806 NaN l 811 NaN l 922 NaN b 917 NaN 917 NaN 917 NaN z m 792 NaN l 792 NaN b 788 NaN 792 NaN 790 NaN b 728 NaN 778 NaN 750 NaN b 664 NaN 706 NaN 664 NaN b 792 NaN 664 NaN 774 NaN z "},"㎫":{"ha":0,"x_min":0,"x_max":0,"o":"m 635 -29 l 739 -29 l 739 376 b 893 474 785 376 851 408 b 947 683 925 528 947 590 b 899 871 947 760 935 825 b 717 954 853 935 792 954 b 635 936 694 954 668 949 z m 461 351 l 479 -29 l 576 -29 l 524 953 l 424 953 l 375 543 b 333 204 358 407 346 319 l 329 204 b 276 544 314 319 299 410 b 215 953 254 681 236 817 l 121 953 b 68 -29 104 625 86 297 l 161 -29 l 175 347 b 182 626 178 440 182 539 l 182 667 l 188 667 b 231 361 201 567 215 453 b 292 -18 250 235 271 107 l 360 -18 b 421 382 381 114 401 249 b 449 667 433 454 442 568 l 454 667 b 461 351 454 578 457 451 z m 739 479 l 739 846 b 743 847 739 847 742 847 b 842 672 807 846 842 781 b 739 479 842 551 806 479 z m 1239 124 l 1239 447 b 1096 685 1239 603 1204 685 b 978 647 1044 685 994 661 b 1000 560 986 618 993 589 b 1067 586 1026 576 1040 586 b 1131 447 1097 586 1131 558 l 1131 421 b 935 168 1074 417 935 353 b 1061 -36 935 25 1007 -36 b 1144 32 1089 -36 1115 -19 l 1147 32 l 1151 -29 l 1244 -29 b 1239 124 1238 17 1239 76 z m 1133 339 l 1133 174 b 1093 60 1133 113 1118 60 b 1039 181 1076 60 1039 85 b 1133 339 1039 290 1106 326 z "},"㎬":{"ha":0,"x_min":0,"x_max":0,"o":"m 499 -8 l 499 496 l 299 496 l 299 385 l 382 385 l 382 81 b 360 76 379 78 374 76 b 197 453 294 76 197 153 b 399 842 197 761 313 842 b 468 825 429 842 453 835 l 493 939 b 390 961 467 954 435 961 b 67 451 264 961 69 854 l 67 443 b 181 44 67 258 113 121 b 369 -36 235 -15 300 -36 b 499 -8 407 -36 463 -25 z m 608 936 l 608 -29 l 719 -29 l 719 375 l 725 375 b 889 489 776 375 847 415 b 936 683 917 540 936 596 b 888 872 936 760 922 826 b 703 954 839 936 778 954 b 608 936 676 954 642 949 z m 719 475 l 719 850 b 754 846 732 850 744 849 b 832 671 810 831 832 765 b 747 481 832 560 800 497 b 719 475 739 476 731 475 z m 1240 125 l 1240 443 b 1092 686 1240 600 1207 686 b 971 647 1038 686 985 660 l 989 560 b 1061 588 1017 578 1033 588 b 1131 447 1097 588 1131 557 l 1131 419 b 926 168 1064 417 926 350 b 1056 -36 926 28 996 -36 b 1144 33 1086 -36 1114 -18 l 1147 33 l 1151 -29 l 1246 -29 b 1240 125 1240 17 1240 76 z m 1132 339 l 1132 169 b 1086 58 1132 110 1111 58 b 1029 179 1067 58 1029 85 b 1132 339 1029 281 1088 324 z "},"㏝":{"ha":0,"x_min":0,"x_max":0,"o":"m 989 964 l 864 964 l 864 146 b 858 -29 864 101 861 18 l 965 -29 l 972 49 l 979 49 b 1069 -37 999 0 1014 -37 b 1235 338 1163 -37 1235 82 b 1093 688 1233 558 1182 688 b 992 611 1056 688 1024 671 l 989 611 z m 72 953 l 218 -29 l 331 -29 l 396 364 b 442 693 414 461 428 575 l 444 693 b 488 367 458 576 472 458 l 556 -29 l 678 -29 l 814 953 l 693 953 l 649 522 l 613 158 l 610 158 b 561 532 597 308 579 419 l 492 953 l 406 953 l 340 517 b 289 160 319 394 301 296 z m 1078 -593 l 1078 -351 b 1082 -301 1078 -337 1081 -317 b 1128 -217 1086 -268 1103 -217 b 1196 -468 1185 -217 1196 -329 b 1132 -724 1196 -610 1192 -724 b 1082 -637 1131 -724 1106 -725 b 1078 -593 1079 -625 1078 -611 z "},"㏐":{"ha":0,"x_min":0,"x_max":0,"o":"m 306 978 l 172 978 l 172 -29 l 306 -29 z m 446 485 l 446 -29 l 578 -29 l 578 419 b 581 476 578 439 578 460 b 671 575 594 542 633 575 b 757 428 746 575 757 499 l 757 -29 l 888 -29 l 888 422 b 893 482 888 446 889 467 b 983 575 907 542 942 575 b 1067 406 1057 575 1067 494 l 1067 -29 l 1197 -29 l 1197 432 b 1031 689 1197 610 1133 689 b 935 663 996 689 963 681 b 869 586 911 646 886 617 l 867 586 b 721 689 840 656 788 689 b 564 592 649 689 597 649 l 561 592 l 556 678 l 440 678 b 446 485 443 617 446 567 z "},"㏓":{"ha":0,"x_min":0,"x_max":0,"o":"m 435 983 l 300 983 l 300 -29 l 435 -29 z m 833 413 l 717 678 l 567 678 l 746 326 l 563 -29 l 701 -29 l 821 242 l 824 242 l 944 -29 l 1094 -29 l 911 331 l 1093 678 l 953 678 l 836 413 z "},"㏃":{"ha":93,"x_min":0,"x_max":0,"o":"m 196 938 l 196 -26 b 336 -35 226 -32 269 -35 b 592 57 450 -35 539 -6 b 656 249 632 106 656 171 b 483 496 656 368 600 464 l 483 500 z m 644 100 l 589 100 l 589 21 l 557 21 l 557 332 b 600 339 568 336 583 339 b 731 186 701 339 731 267 b 589 21 731 90 661 21 z m 1264 -486 l 1268 -486 l 1268 -792 l 1397 -792 l 1397 -65 b 1403 161 1397 40 1401 110 l 1294 161 l 1286 85 l 1283 89 b 1175 172 1251 160 1203 172 b 975 -204 1060 172 975 39 b 1156 -556 975 -419 1047 -556 b 1264 -486 1204 -556 1243 -526 z m 1268 -92 l 1268 -301 b 1263 -356 1268 -319 1268 -337 b 1194 -446 1243 -436 1213 -446 b 1106 -194 1131 -446 1106 -340 b 1196 60 1106 -51 1128 60 b 1264 -46 1226 60 1257 14 b 1268 -92 1267 -60 1268 -78 z m 557 -444 l 557 -76 l 589 -76 b 756 -268 676 -78 756 -144 b 594 -449 756 -383 693 -449 b 557 -444 579 -449 567 -447 z "},"㏉":{"ha":0,"x_min":0,"x_max":0,"o":"m 683 -3 l 683 496 l 444 496 l 444 382 l 558 382 l 558 88 b 500 78 549 82 529 78 b 286 454 390 78 286 172 b 531 838 286 743 407 838 b 642 814 579 838 615 829 b 668 932 650 854 658 893 b 524 961 639 949 588 961 b 146 450 343 961 147 826 l 146 442 b 257 67 146 278 188 144 b 503 -37 319 -6 403 -37 b 683 -3 565 -37 642 -21 z m 861 678 l 718 678 b 899 69 778 461 839 286 b 904 40 901 60 904 50 l 900 19 l 896 7 b 733 -157 872 -56 785 -125 l 782 -271 b 918 -161 811 -261 886 -200 b 1089 238 999 -60 1049 75 l 1208 678 l 1076 678 b 1050 542 1067 631 1056 582 l 1047 542 b 1021 679 1040 583 1032 628 b 936 1032 993 810 965 901 z "},"㏜":{"ha":0,"x_min":0,"x_max":0,"o":"m 194 121 l 167 3 b 346 -37 197 -18 272 -37 b 639 244 513 -37 639 72 b 463 526 639 351 583 444 b 317 713 365 592 317 628 b 457 840 317 776 365 840 b 575 807 508 840 549 825 l 607 922 b 460 961 581 939 525 961 b 182 694 290 961 182 846 b 371 422 182 579 276 488 b 504 232 450 365 504 315 b 346 81 504 142 444 81 b 194 121 294 81 229 100 z m 893 303 l 808 678 l 663 678 l 863 -29 l 988 -29 l 1186 678 l 1050 678 l 967 303 b 932 119 954 243 943 183 l 928 119 b 893 303 917 183 906 247 z "},"㏆":{"ha":0,"x_min":0,"x_max":0,"o":"m 483 961 l 342 275 l 265 -87 l 351 -87 l 571 961 z m 293 364 b 179 597 218 364 179 451 b 292 843 181 725 213 843 b 331 833 308 843 324 836 b 349 935 336 867 342 901 b 292 947 340 940 314 947 b 63 600 149 947 63 794 b 274 261 63 371 147 261 b 342 275 301 261 326 267 b 331 372 338 308 333 339 b 293 364 315 364 303 364 z m 904 644 l 788 644 l 708 417 b 686 335 700 394 694 368 l 683 335 l 683 915 l 565 915 l 565 -29 l 683 -29 l 683 217 b 704 271 689 235 697 253 b 782 -29 731 171 756 69 l 904 -29 l 783 357 b 904 644 825 453 864 549 z m 1144 644 l 1138 586 l 1135 586 b 1086 646 1124 613 1108 636 b 1061 653 1079 650 1071 653 b 904 303 983 653 904 557 b 1050 -28 904 119 946 -28 b 1125 29 1076 -28 1111 -10 l 1128 29 l 1128 -10 b 1039 -176 1128 -126 1104 -176 b 958 -161 1004 -176 978 -168 l 933 -257 b 1040 -275 963 -267 997 -275 b 1192 -207 1115 -275 1163 -243 b 1240 58 1225 -164 1240 -101 l 1240 419 b 1247 644 1240 522 1243 590 z m 1128 190 b 1119 118 1128 168 1125 139 b 1081 74 1110 82 1093 74 b 1017 308 1056 74 1017 128 b 1081 546 1017 439 1029 546 b 1124 471 1110 546 1121 500 b 1128 429 1126 460 1128 443 z "},"Æ":{"ha":463,"x_min":0,"x_max":0,"o":"m 1235 976 l 542 976 l -1 -35 l 150 -35 l 297 246 l 624 246 l 624 -35 l 1244 -35 l 1244 92 l 775 92 l 775 422 l 1131 422 l 1131 549 l 775 549 l 775 850 l 1235 850 z m 624 368 l 360 368 l 618 858 l 624 858 z "},"Ð":{"ha":106,"x_min":0,"x_max":0,"o":"m 110 535 l 10 535 l 10 410 l 110 410 l 110 -35 l 428 -35 b 907 468 756 -35 907 150 l 907 500 b 425 976 907 824 733 976 l 110 976 z m 431 92 l 263 92 l 263 410 l 535 410 l 535 535 l 263 535 l 263 850 l 415 850 b 740 500 624 850 740 765 l 740 450 b 431 92 740 196 644 92 z "},"ª":{"ha":-211,"x_min":0,"x_max":0,"o":"m 250 311 b 426 381 339 311 394 340 l 433 381 l 446 324 l 561 324 l 561 789 b 314 989 561 929 469 989 b 96 953 229 989 160 976 l 96 856 b 261 876 139 864 196 876 b 421 756 378 876 421 854 l 421 722 l 253 703 b 40 503 121 686 40 625 b 250 311 40 372 129 311 z m 290 413 b 181 510 224 413 181 440 b 288 615 181 579 217 608 l 421 631 l 421 454 b 290 413 396 428 343 413 "},"Ħ":{"ha":133,"x_min":0,"x_max":0,"o":"m 108 797 l 26 797 l 26 697 l 108 697 l 108 -35 l 261 -35 l 261 424 l 725 424 l 725 -35 l 878 -35 l 878 697 l 963 697 l 963 797 l 878 797 l 878 976 l 725 976 l 725 797 l 261 797 l 261 976 l 108 976 z m 725 697 l 725 549 l 261 549 l 261 697 z "},"Ĳ":{"ha":76,"x_min":0,"x_max":0,"o":"m 267 976 l 113 976 l 113 -35 l 267 -35 z m 372 104 l 374 -18 b 544 -44 421 -35 471 -44 b 829 232 742 -44 829 76 l 829 976 l 675 976 l 675 242 b 521 82 675 139 629 82 b 372 104 460 82 411 92 z "},"Ŀ":{"ha":-121,"x_min":0,"x_max":0,"o":"m 261 976 l 108 976 l 108 -35 l 700 -35 l 700 92 l 261 92 z m 671 579 l 514 579 l 514 419 l 671 419 z "},"Ł":{"ha":-114,"x_min":0,"x_max":0,"o":"m 111 446 l 1 399 l 1 274 l 111 319 l 111 -35 l 701 -35 l 701 92 l 264 92 l 264 385 l 556 508 l 556 632 l 264 508 l 264 976 l 111 976 z "},"Ø":{"ha":156,"x_min":0,"x_max":0,"o":"m 501 -51 b 956 456 779 -51 956 136 l 956 485 b 860 829 956 631 921 744 l 982 976 l 847 976 l 789 904 b 507 994 715 964 619 994 b 53 486 229 994 53 806 l 53 457 b 140 122 53 317 85 204 l 10 -35 l 146 -35 l 210 44 b 501 -51 286 -21 385 -51 z m 214 458 l 214 510 b 500 872 214 721 306 874 b 700 799 589 871 653 843 l 243 247 b 214 458 222 306 214 376 z m 506 69 b 297 150 411 69 344 99 l 760 706 b 793 486 783 646 793 571 l 793 435 b 506 69 793 224 700 69 z "},"Œ":{"ha":513,"x_min":0,"x_max":0,"o":"m 525 -35 b 1419 -171 1293 -35 1419 -501 b 1847 -171 1419 183 1546 -171 b 2433 -640 2307 -171 2433 -489 b NaN NaN 2433 -824 2113 NaN l NaN NaN b NaN NaN NaN NaN NaN NaN z m NaN NaN l NaN NaN l NaN NaN b NaN NaN NaN NaN NaN NaN l NaN NaN b NaN NaN NaN NaN NaN NaN z "},"º":{"ha":-136,"x_min":0,"x_max":0,"o":"m 357 317 b 676 644 546 317 676 428 l 676 667 b 358 989 676 881 558 989 b 43 661 171 989 43 876 l 43 640 b 357 317 43 426 157 317 z m 360 422 b 185 638 263 422 185 461 l 185 672 l 185 819 l 246 819 l 246 883 l 356 883 l 356 981 l 433 981 l 433 942 l 396 942 b 225 733 396 794 335 733 "},"Þ":{"ha":-29,"x_min":0,"x_max":0,"o":"m 261 976 l 108 976 l 108 -35 l 261 -35 l 261 201 l 456 201 b 789 510 656 201 789 307 b 444 803 789 696 675 803 l 261 803 z m 426 321 l 261 321 l 261 679 l 429 679 b 632 499 574 679 632 631 b 426 321 632 376 572 321 z "},"Ŧ":{"ha":-61,"x_min":0,"x_max":0,"o":"m 321 578 l 119 578 l 119 478 l 321 478 l 321 -35 l 474 -35 l 474 478 l 672 478 l 672 578 l 474 578 l 474 850 l 768 850 l 768 976 l 25 976 l 25 850 l 321 850 z "},"Ŋ":{"ha":128,"x_min":0,"x_max":0,"o":"m 615 -275 b 872 -40 797 -275 872 -185 l 872 976 l 735 976 l 735 221 l 731 221 l 285 976 l 108 976 l 108 -35 l 246 -35 l 246 767 l 251 767 l 732 -60 b 588 -154 724 -135 672 -154 b 450 -133 535 -154 486 -146 l 450 -242 b 615 -275 494 -262 542 -275 z "},"㉠":{"ha":0,"x_min":0,"x_max":0,"o":"m -322 694 l -300 694 l -300 782 l 443 782 l 443 890 l 708 890 l 708 1399 l 319 1399 l 319 1513 l 810 1513 l 810 890 z "},"㉡":{"ha":0,"x_min":0,"x_max":0,"o":"m -187 813 l -165 813 l -165 900 l 106 900 l 106 1006 l 846 1006 l 846 892 l 368 892 l 368 1514 l 471 1514 l 471 1006 z "},"㉢":{"ha":0,"x_min":0,"x_max":0,"o":"m 314 789 l 336 789 l 336 876 l 597 876 l 597 982 l 1347 982 l 1347 358 l 876 358 l 876 990 l 979 990 l 979 471 l 1244 471 l 1244 982 z "},"㉣":{"ha":0,"x_min":0,"x_max":0,"o":"m 206 601 l 228 601 l 228 689 l 492 689 l 492 792 l 886 792 l 886 893 l 1140 893 l 1140 381 l 839 381 l 839 1014 l 936 1014 l 936 490 l 1044 490 l 1044 1003 l 1343 1003 l 1343 379 l 1247 379 l 1247 893 z "},"㉤":{"ha":0,"x_min":0,"x_max":0,"o":"m 311 794 l 333 794 l 333 882 l 590 882 l 590 985 l 986 985 l 986 1088 l 1244 1088 l 1244 463 l 772 463 l 772 1088 z m 661 1457 l 661 1190 l 258 1190 l 258 1457 z "},"㉥":{"ha":0,"x_min":0,"x_max":0,"o":"m 200 661 l 222 661 l 222 749 l 479 749 l 479 807 l 965 807 l 965 865 l 1222 865 l 1222 463 l 1369 463 l 1369 351 l 881 351 l 881 976 l 1369 976 l 1369 865 z m 967 476 l 967 619 l 1369 619 l 1369 476 z "},"㉦":{"ha":18,"x_min":0,"x_max":0,"o":"m 93 821 l 176 1149 l 261 1314 l 233 1650 l 869 1536 l 890 NaN b 560 NaN 857 NaN 704 NaN l 560 NaN b 893 NaN 683 NaN 807 NaN l 1203 NaN l 1264 NaN l 944 NaN b 1004 NaN 974 NaN 993 NaN z "},"㉧":{"ha":0,"x_min":0,"x_max":0,"o":"m -1 313 b 108 669 21 313 108 561 b 414 1321 108 1072 217 1321 b 644 1619 540 1321 644 1469 b 644 1367 644 1493 749 1367 b 346 NaN 494 1367 346 1493 z m 346 NaN b 136 NaN 219 NaN 136 NaN b 346 NaN 136 NaN 219 NaN b 556 NaN 472 NaN 556 NaN b 346 NaN 556 NaN 472 NaN z "},"㉨":{"ha":0,"x_min":0,"x_max":0,"o":"m 76 690 l 638 690 l 638 935 l 739 935 l 739 296 l 638 296 l 638 574 b 342 304 607 403 490 317 l 342 201 b 674 365 475 210 596 263 l 972 192 l 1025 281 l 724 454 b 754 574 739 490 749 531 z "},"㉩":{"ha":0,"x_min":0,"x_max":0,"o":"m 60 664 l 82 664 l 82 751 l 592 751 l 592 858 l 1092 858 l 1092 1117 l 1193 1117 l 1193 853 l 1303 853 l 1303 739 l 1193 739 l 1193 478 l 1092 478 l 1092 743 b 810 500 1072 608 960 514 l 810 400 b 1131 554 943 408 1060 464 l 1439 392 l 1486 483 l 1182 642 b 1207 743 1194 672 1203 707 z "},"㉪":{"ha":0,"x_min":0,"x_max":0,"o":"m -315 701 l -293 701 l -293 789 l 454 789 l 454 892 l 721 892 l 721 1397 l 564 1397 l 564 892 l 463 892 l 463 1397 l 292 1397 l 292 1508 l 822 1508 l 822 892 z "},"㉫":{"ha":0,"x_min":0,"x_max":0,"o":"m -197 507 l -175 507 l -175 594 l 89 594 l 89 699 l 838 699 l 838 1201 l 932 1201 l 932 699 l 1039 699 l 1039 1208 l 1135 1208 l 1135 589 l 631 589 l 631 1221 l 728 1221 l 728 699 z "},"㉬":{"ha":24,"x_min":0,"x_max":0,"o":"m 200 697 l 269 697 l 269 814 l 372 814 l 372 944 l 422 944 l 422 1006 l 478 1006 l 478 1056 l 563 1056 l 563 1299 l 782 1299 l 782 1329 l 918 1329 l 918 1417 l 1282 1417 l 1282 1522 l 1394 1522 l 1394 1624 l 767 1624 l 767 1522 l 879 1522 l 879 1256 l 760 1256 l 760 1154 l 1401 1154 l 1401 1256 l 1282 1256 z m 988 1522 l 1172 1522 l 1172 1256 l 988 1256 z "},"㉭":{"ha":0,"x_min":0,"x_max":0,"o":"m 54 886 l 76 886 l 76 974 l 372 974 l 372 1079 l 475 1079 l 475 1185 l 586 1185 l 586 1289 l 878 1289 l 878 1176 l 767 1176 l 767 900 l 668 900 l 668 1567 l 767 1567 l 767 1289 z m 713 1133 b 439 943 560 1133 439 1067 b 681 751 439 819 560 751 b 872 754 749 751 872 875 b NaN NaN 872 821 718 NaN z m NaN NaN b NaN NaN NaN NaN NaN NaN b NaN NaN NaN NaN NaN NaN b NaN NaN NaN NaN NaN NaN b NaN NaN NaN NaN NaN NaN z "},"㉮":{"ha":-37,"x_min":0,"x_max":0,"o":"m 289 919 l 372 919 l 372 1283 l 464 1283 l 464 1451 l 551 1451 l 551 1682 l 872 1682 l 872 1769 l 1163 1769 l 1163 1868 l 1371 1868 l 1371 1965 l 1267 1965 l 1267 1257 l 1371 1257 l 1371 1589 l 1469 1589 l 1469 1688 l 1371 1688 z m 753 1847 l 1038 1847 l 1038 1760 b 753 1394 1038 1536 935 1394 l 753 1297 b 1142 1761 996 1297 1142 1481 l 1142 1940 l 753 1940 z "},"㉯":{"ha":0,"x_min":0,"x_max":0,"o":"m 292 642 l 292 664 l 379 664 l 379 906 l 478 906 l 478 1318 l 575 1318 l 575 1585 l 853 1585 l 853 1482 l 144 1482 l 144 1585 l 476 1585 l 476 1685 l 575 1685 z m -36 1389 l -36 1942 l -140 1942 l -140 1294 l 133 1294 b 324 1331 203 1294 278 1307 l 324 1425 b 136 1389 275 1403 200 1389 z "},"㉰":{"ha":0,"x_min":0,"x_max":0,"o":"m -510 -296 l -510 -274 l -422 -274 l -422 -32 l -324 -32 l -324 381 l 132 381 l 132 685 l 225 685 l 225 276 l -418 276 l -418 547 b -226 583 -350 547 -272 560 l -226 679 b -414 642 -275 656 -349 642 z "},"㉱":{"ha":0,"x_min":0,"x_max":0,"o":"l 22 0 l 22 88 l 261 88 l 261 185 l 463 185 l 463 282 l 579 282 l 579 379 l 847 379 l 847 275 l 139 275 l 139 379 l 471 379 l 471 479 l 569 479 l 569 379 m 60 82 l 60 269 l 353 269 l 353 632 l -44 632 l -44 539 l 249 539 l 249 363 l -43 363 l -43 -11 l 232 -11 b 421 25 299 -11 375 3 l 421 121 b 233 82 371 97 299 82 z "},"㉲":{"ha":0,"x_min":0,"x_max":0,"o":"m -211 253 l -189 253 l -189 340 l 53 340 l 53 438 l 257 438 l 257 536 l 368 536 l 368 135 l -275 135 l -275 536 z m -574 631 l -574 1085 l -378 1085 l -378 631 z "},"㉳":{"ha":0,"x_min":0,"x_max":0,"o":"m -314 21 l -292 21 l -292 108 l -50 108 l -50 204 l 157 204 l 157 301 l 268 301 l 268 106 l 504 106 l 504 3 l -143 3 l -143 404 l 504 404 l 504 301 z m 308 -251 l 308 -29 l 504 -29 l 504 -251 z "},"㉴":{"ha":0,"x_min":0,"x_max":0,"o":"m -332 258 l -310 346 l 106 444 l 340 542 l 611 829 l 508 832 b 297 275 507 542 443 297 l 297 181 b 547 413 411 189 494 274 l 715 179 l 792 233 l 581 525 b 611 829 600 614 611 715 z "},"㉵":{"ha":0,"x_min":0,"x_max":0,"o":"m -407 261 b -297 571 -385 261 -297 474 b -103 899 -297 804 -200 899 b 456 685 182 899 456 774 b 322 353 456 578 233 353 b 342 567 217 353 342 478 b 478 897 342 672 567 897 b 457 NaN 582 897 457 NaN z m 457 NaN b 346 NaN 393 NaN 346 NaN b 457 NaN 346 NaN 393 NaN b 567 NaN 519 NaN 567 NaN b 457 NaN 567 NaN 519 NaN z "},"㉶":{"ha":0,"x_min":0,"x_max":0,"o":"m 299 642 l 299 664 l 386 664 l 386 1074 l 485 1074 l 485 1322 l 582 1322 l 582 1585 l 860 1585 l 860 1482 l 151 1482 l 151 1585 l 483 1585 l 483 1685 l 582 1685 z m 131 1843 l 301 1843 l 301 1938 l -147 1938 l -147 1843 l 28 1843 b -165 1389 22 1594 -44 1411 l -165 1293 b 79 1526 -57 1306 28 1389 l 256 1297 l 333 1354 l 110 1636 b 131 1843 122 1697 129 1767 z "},"㉷":{"ha":0,"x_min":0,"x_max":0,"o":"m -50 721 l 189 721 l 189 819 l 429 819 l 429 904 l 446 904 l 446 1001 l 701 1001 l 701 1176 l 794 1176 l 794 1003 l 903 1003 l 903 899 l 794 899 l 794 717 l 701 717 l 701 899 b 507 525 689 696 622 544 l 507 428 b 753 644 614 442 701 518 l 935 426 l 1006 490 l 785 749 b 804 899 796 794 801 844 z m 1151 819 l 1151 1099 l 1047 1099 l 1047 389 l 1151 389 l 1151 721 l 1251 721 l 1251 819 z "},"㉸":{"ha":-37,"x_min":0,"x_max":0,"o":"m 289 919 l 371 919 l 371 1293 l 458 1293 l 458 1458 l 544 1458 l 544 1689 l 869 1689 l 869 1776 l 1160 1776 l 1160 1825 l 1414 1825 l 1414 1922 l 1310 1922 l 1310 1214 l 1414 1214 l 1414 1546 l 1513 1546 l 1513 1644 l 1414 1644 z m 796 1804 l 1096 1804 l 1096 1692 b 1094 1649 1096 1676 1096 1663 l 796 1649 l 796 1554 l 1078 1554 b 796 1350 1038 1419 936 1350 l 796 1256 b 1193 1692 1029 1256 1193 1418 l 1193 1897 l 796 1897 z "},"㉹":{"ha":0,"x_min":0,"x_max":0,"o":"m -507 -296 l -507 -274 l -419 -274 l -419 15 l -369 15 l -369 429 l -183 429 l -183 719 l -89 719 l -89 429 l 86 429 l 86 732 l 179 732 l 179 326 l -464 326 l -464 596 b -274 632 -396 596 -319 610 l -274 726 b -461 690 -322 704 -396 690 z "},"㉺":{"ha":-219,"x_min":0,"x_max":0,"o":"m 296 642 l 296 919 l 192 919 l 192 211 l 296 211 l 296 543 l 394 543 l 394 642 z m 46 801 l 119 801 l 119 894 l -347 894 l -347 801 l -274 801 l -274 346 l -350 346 l -350 251 l -82 251 b 156 296 17 251 103 267 l 156 390 b 46 356 124 375 88 364 z m -172 346 l -172 801 l -54 801 l -54 346 l -81 346 z "},"㉻":{"ha":-219,"x_min":0,"x_max":0,"o":"m -68 922 l 15 922 l 15 1165 l 100 1165 l 100 1433 l 185 1433 l 185 1478 l 272 1478 l 272 1789 l 424 1789 l 424 1876 l 575 1876 l 575 1969 l 696 1969 l 696 2064 l 796 2064 l 796 2161 l 1075 2161 l 1075 2057 l 969 2057 l 969 1878 l 876 1878 l 876 2340 l 969 2340 l 969 2161 z m 1317 2265 l 1214 2265 l 1214 1556 l 1317 1556 l 1317 1889 l 1417 1889 l 1417 1986 l 1317 1986 z m 917 2028 b 717 1808 801 2028 717 1938 b 917 1589 717 1678 801 1589 b 1117 1808 1033 1589 1117 1678 b 917 2028 1117 1938 1033 2028 z m 917 1679 b 818 1808 860 1679 818 1731 b 917 1936 818 1886 860 1936 b 1017 1808 974 1936 1017 1886 b 917 1679 1017 1731 974 1679 z "},"ⓐ":{"ha":0,"x_min":0,"x_max":0,"o":"m -46 267 b 64 621 -24 267 64 519 b 260 1281 64 971 167 1281 b 376 1364 329 1281 376 1332 l 376 1281 l 485 1281 l 485 1835 l 376 1835 l 376 1750 b 182 1849 344 1803 278 1849 b -89 1557 24 1849 -89 1724 b 182 1265 -89 1390 24 1265 z m 196 1361 b 18 1557 89 1361 18 1444 b 196 1753 18 1669 89 1753 b 378 1557 303 1753 378 1669 b 196 1361 378 1444 303 1361 z "},"ⓑ":{"ha":332,"x_min":0,"x_max":0,"o":"m 65 172 b 518 504 168 172 518 274 b 796 788 518 663 631 788 b 850 754 963 788 850 913 b 733 583 850 664 782 619 l 733 896 l 814 896 b 1008 803 849 844 915 803 z m 994 896 b 813 1093 888 896 813 982 b 994 1290 813 1206 888 1290 b 1172 1093 1101 1290 1172 1206 b 994 896 1172 982 1101 896 z "},"ⓒ":{"ha":0,"x_min":0,"x_max":0,"o":"m 11 268 b 121 664 33 268 121 563 b 324 1489 121 1385 247 1489 b 486 NaN 454 1489 486 NaN l 375 NaN b 222 NaN 354 NaN 296 NaN b 43 NaN 117 NaN 43 NaN b 222 NaN 43 NaN 117 NaN b 374 NaN 296 NaN 351 NaN l 486 NaN b 222 NaN 457 NaN 353 NaN b -64 NaN 57 NaN -64 NaN b 224 NaN -64 NaN 57 NaN z "},"ⓓ":{"ha":239,"x_min":0,"x_max":0,"o":"m -60 172 l -60 274 l 290 274 l 290 376 l 614 376 l 614 467 l 533 467 l 533 575 l 1322 575 l 1322 467 l 1010 467 b 815 560 975 518 908 560 b 544 268 657 560 544 435 b 815 -22 544 103 657 -22 z m 829 71 b 651 268 722 71 651 157 b 464 269 651 381 539 269 b 271 NaN 378 269 271 NaN z "},"ⓔ":{"ha":-219,"x_min":0,"x_max":0,"o":"m -1 267 b 357 511 82 267 357 353 b 800 672 357 586 515 672 b 1003 990 971 672 1003 903 b 1201 1746 1003 1644 1131 1746 b 1333 NaN 1301 1746 1333 NaN l 1221 NaN b 1072 NaN 1201 NaN 1144 NaN b 901 NaN 979 NaN 914 NaN l 1349 NaN b 1351 NaN 1351 NaN 1351 NaN b 1072 NaN 1351 NaN 1235 NaN b 793 NaN 910 NaN 793 NaN b 1072 NaN 793 NaN 910 NaN z m 1244 NaN l 901 NaN b 1072 NaN 914 NaN 978 NaN b 1244 NaN 1167 NaN 1232 NaN z "},"ⓕ":{"ha":0,"x_min":0,"x_max":0,"o":"m 18 828 b 208 1322 18 850 106 1322 b 792 1371 750 1322 792 1346 b 803 1429 792 1408 804 1429 b 817 NaN 799 1429 817 NaN l 817 NaN b 747 NaN 797 NaN 772 NaN b 596 NaN 651 NaN 596 NaN l 596 NaN l 488 NaN l 488 NaN l 596 NaN l 596 NaN l 704 NaN l 704 NaN l 826 NaN l 826 NaN l 704 NaN z "},"ⓖ":{"ha":0,"x_min":0,"x_max":0,"o":"m 669 -219 b 1314 425 1025 -219 1314 69 b 669 1069 1314 782 1025 1069 b 22 425 313 1069 22 781 b 669 -219 22 69 313 -219 z m 654 -85 b 1056 131 736 -85 899 25 l 1056 671 l 947 671 l 947 590 b 753 683 913 640 847 683 b 482 394 594 683 482 560 b 753 107 482 231 594 107 b 947 201 843 107 911 151 l 947 132 b 783 -37 947 25 879 -37 b 629 69 689 -37 640 11 l 518 69 b 783 -132 539 -39 624 -132 z m 767 200 b 589 394 660 200 589 283 b 404 393 589 504 479 393 b 214 NaN 321 393 214 NaN z "},"ⓗ":{"ha":0,"x_min":0,"x_max":0,"o":"m 669 -219 b 1314 425 1025 -219 1314 69 b 669 1069 1314 782 1025 1069 b 22 425 313 1069 22 781 b 669 -219 22 69 313 -219 z m 546 764 l 628 764 l 628 654 l -161 654 l -161 764 l 126 764 b 286 950 126 863 193 950 b 425 783 374 950 425 892 l 425 476 l 535 476 l 535 801 b 314 1046 535 950 443 1046 b 126 950 221 1046 160 999 z "},"ⓘ":{"ha":0,"x_min":0,"x_max":0,"o":"m -1 838 b 108 1446 21 838 108 1346 b 175 1983 108 1954 147 1983 b 253 1983 214 1983 253 1954 b 183 1917 253 1944 213 1917 b 146 1917 144 1917 106 1944 z m 199 1804 l 93 1804 l 93 1258 l 199 1258 z "},"ⓙ":{"ha":-219,"x_min":0,"x_max":0,"o":"m 25 940 b 49 996 10 940 49 968 b 117 968 49 1035 88 1007 b 63 910 101 968 63 939 b -4 939 63 871 24 900 z m -94 50 b 47 199 -6 50 47 110 l 47 826 l 32 826 l 32 722 l -590 722 b -644 660 -590 681 -611 660 b -700 668 -661 660 -679 661 l -700 576 b -628 568 -678 569 -654 568 z "},"ⓚ":{"ha":0,"x_min":0,"x_max":0,"o":"l 356 0 l 356 104 l 1013 104 l 1013 -24 l 746 -311 l 746 210 l 636 210 l 636 -579 l 746 -579 l 746 -440 l 847 -333 l 1033 -579 l 1161 -579 l 917 -261 "},"ⓛ":{"ha":0,"x_min":0,"x_max":0,"o":"m 53 969 z "},"ⓜ":{"ha":133,"x_min":0,"x_max":0,"o":"m -312 840 l -208 840 l -208 1015 l -104 1015 l -104 1076 l -19 1076 l -19 1181 l 83 1181 l 83 1410 l -25 1410 l -25 853 l 83 853 l 83 1153 b 221 1328 86 1249 142 1328 b 342 1169 294 1328 342 1269 l 342 853 l 450 853 l 450 1151 b 586 1328 451 1249 507 1328 b 707 1172 661 1328 707 1269 l 707 853 l 817 853 l 817 1189 b 614 1422 817 1331 731 1422 b 418 1314 525 1422 457 1382 b 247 1422 388 1383 328 1422 b 83 1336 165 1422 115 1382 z "},"ⓝ":{"ha":204,"x_min":0,"x_max":0,"o":"m -146 840 l -42 840 l -42 1111 l 61 1111 l 61 1439 l -47 1439 l -47 882 l 61 882 l 61 1169 b 221 1357 61 1269 128 1357 b 358 1189 307 1357 358 1297 l 358 882 l 467 882 l 467 1207 b 249 1451 467 1357 376 1451 b 61 1356 156 1451 94 1404 z "},"ⓞ":{"ha":0,"x_min":0,"x_max":0,"o":"m -1 267 b 108 651 21 267 108 550 b 375 1282 108 999 210 1282 b 618 1618 494 1282 618 1450 b 576 1333 618 1499 742 1333 b 333 997 457 1333 333 1165 b NaN 1282 333 1117 210 1282 z m NaN 1378 b NaN 1574 NaN 1378 NaN 1460 b NaN 1769 NaN 1686 NaN 1769 b NaN 1574 NaN 1769 NaN 1686 b NaN 1378 NaN 1460 NaN 1378 z "},"ⓟ":{"ha":336,"x_min":0,"x_max":0,"o":"m -125 925 l -22 925 l -22 1275 l 79 1275 l 79 1501 l -29 1501 l -29 714 l 79 714 l 79 1026 b 274 933 114 976 181 933 b 544 1225 432 933 544 1058 b 274 1515 544 1390 432 1515 b 79 1422 183 1515 115 1472 z m 260 1028 b 78 1225 153 1028 78 1113 b 260 1421 78 1336 153 1421 b 438 1225 367 1421 438 1336 b 260 1028 438 1113 367 1028 z "},"ⓠ":{"ha":225,"x_min":0,"x_max":0,"o":"m 121 450 l 121 551 l 471 551 l 471 654 l 808 654 l 808 342 l 917 342 l 917 1129 l 808 1129 l 808 1050 b 614 1143 774 1101 707 1143 z m 433 1144 b 163 854 275 1144 163 1019 b 433 563 163 688 275 563 b 417 576 524 563 417 492 b 415 578 417 689 528 578 b 256 NaN 340 578 256 471 z "},"ⓡ":{"ha":0,"x_min":0,"x_max":0,"o":"m -44 838 l -22 838 l -22 925 l 375 925 l 375 1028 l 992 1028 l 992 919 l 436 919 l 436 1028 l 722 1028 b 908 1214 722 1128 799 1214 b 994 1194 942 1214 971 1207 l 994 1300 b 915 1311 974 1308 950 1311 b 722 1215 819 1311 756 1264 z "},"ⓢ":{"ha":-219,"x_min":0,"x_max":0,"o":"m -1 267 b 357 749 82 267 357 350 b 729 1024 357 831 642 1024 b 1149 1183 1049 1024 1149 1082 b 1354 1613 1149 1499 1288 1613 b 1549 1607 1461 1613 1549 1553 b NaN NaN 1549 1440 1572 NaN b NaN NaN NaN NaN NaN NaN b NaN NaN NaN NaN NaN NaN b NaN NaN NaN NaN NaN NaN l NaN NaN b NaN NaN NaN NaN NaN NaN b NaN NaN NaN NaN NaN NaN b NaN NaN NaN NaN NaN NaN b NaN NaN NaN NaN NaN NaN b NaN NaN NaN NaN NaN NaN b NaN NaN NaN NaN NaN NaN l NaN NaN b NaN NaN NaN NaN NaN NaN z "},"ⓣ":{"ha":0,"x_min":0,"x_max":0,"o":"m 53 929 l -56 929 l -56 764 l -178 764 l -178 669 l -56 669 l -56 207 l 53 207 l 53 669 l 175 669 l 175 764 l 53 764 z "},"ⓤ":{"ha":0,"x_min":0,"x_max":0,"o":"m -46 250 b 64 663 -24 250 64 560 b 260 1264 64 953 167 1264 b 369 1343 322 1264 369 1311 l 369 1263 l 478 1263 l 478 1818 l 369 1818 l 369 1531 b 211 1343 369 1431 303 1343 b 74 1511 125 1343 74 1403 l 74 1818 l -36 1818 l -36 1493 b 182 1249 -36 1343 53 1249 z "},"ⓥ":{"ha":1117,"x_min":0,"x_max":0,"o":"m 1 371 l -174 808 l -293 808 l -58 254 l 54 254 l 289 808 l 176 808 z "},"ⓦ":{"ha":1117,"x_min":0,"x_max":0,"o":"m 333 808 l 194 379 l 57 808 l -56 808 l -192 381 l -329 808 l -446 808 l -251 254 l -140 254 l -1 660 l 136 254 l 249 254 l 443 808 z "},"ⓧ":{"ha":0,"x_min":0,"x_max":0,"o":"m -290 836 l -268 924 l 849 1142 l 576 917 l 294 NaN l 422 NaN l 586 NaN l 751 NaN l 885 NaN l 657 NaN l 872 NaN l 746 NaN l 590 NaN l 436 NaN z "},"ⓨ":{"ha":1117,"x_min":0,"x_max":0,"o":"m -1 501 l -172 924 l -293 924 l -56 385 l -165 135 l -57 135 l 290 924 l 176 924 z "},"ⓩ":{"ha":0,"x_min":0,"x_max":0,"o":"m 233 763 l 233 785 l 321 785 l 321 1136 l 347 1136 l 347 1481 l 374 1481 l 374 1849 l 447 1849 l 447 1375 l 353 1375 l 353 1700 l 15 1314 l 15 1240 l 518 1240 l 518 1333 l 163 1333 z "},"①":{"ha":0,"x_min":0,"x_max":0,"o":"m -181 836 l -158 836 l -158 924 l 372 924 l 372 1029 l 853 1029 l 853 1178 l 213 1178 l 213 1289 l 950 1289 l 950 1029 z "},"②":{"ha":0,"x_min":0,"x_max":0,"o":"m 3 544 l 25 632 l 321 736 l 614 842 l 932 579 l 674 NaN l 674 NaN l 1199 NaN l 1199 NaN l 839 NaN l 1014 NaN b 1175 NaN 1122 NaN 1175 NaN b 921 NaN 1175 NaN 1076 NaN b 665 NaN 765 NaN 665 NaN l 775 NaN b 921 NaN 775 NaN 828 NaN b 1065 NaN 1011 NaN 1065 NaN b 936 NaN 1065 NaN 1026 NaN z "},"③":{"ha":-219,"x_min":0,"x_max":0,"o":"m -1 193 b 276 536 82 193 276 283 b 685 714 276 624 522 714 b 953 1147 864 714 953 1042 b 1219 1515 953 1211 1058 1515 b 1425 1731 1325 1515 1425 1636 b 1503 1597 1425 1667 1482 1597 b 1617 1763 1567 1624 1617 1685 b 1361 1976 1617 1881 1517 1976 b 1108 1735 1208 1976 1107 1871 l 1218 1735 b 1361 1881 1217 1817 1271 1881 b 1507 1760 1453 1881 1507 1826 b 1357 1640 1507 1689 1446 1640 l 1271 1640 l 1271 1547 l 1357 1547 b 1528 1424 1465 1547 1528 1500 b 1369 1300 1528 1356 1467 1300 b 1211 1439 1271 1300 1214 1361 l 1101 1439 z "},"④":{"ha":32,"x_min":0,"x_max":0,"o":"m -325 374 l -243 374 l -243 751 l -131 751 l -131 1135 l 226 1135 l 226 1224 l 719 1224 l 719 1325 l 1083 1325 l 1083 1161 l 1190 1161 l 1190 1325 l 1310 1325 l 1310 1418 l 1190 1418 l 1190 1899 l 1067 1899 l 719 1413 z m 1083 1761 l 1083 1418 l 838 1418 z "},"⑤":{"ha":-219,"x_min":0,"x_max":0,"o":"m -1 168 b 251 578 82 168 251 260 b 615 758 251 667 410 758 b 883 974 794 758 883 871 b 1144 1561 883 1264 988 1561 b 1361 1856 1253 1561 1361 1707 b 1393 1608 1361 1750 1461 1608 b 1311 1550 1338 1608 1311 1582 l 1321 1757 l 1676 1757 l 1676 1854 l 1219 1854 l 1199 1424 l 1300 1424 b 1450 1510 1325 1469 1375 1510 b 1604 1354 1543 1510 1604 1444 b 1449 1197 1604 1264 1546 1197 b 1293 1335 1351 1197 1296 1258 l 1183 1335 b 1449 1100 1189 1201 1289 1100 z "},"⑥":{"ha":0,"x_min":0,"x_max":0,"o":"m -1 189 b 108 583 21 189 108 481 b 360 1203 108 911 211 1203 b 583 1507 482 1203 583 1357 b 660 1243 583 1389 682 1243 b 633 1219 638 1243 633 1236 l 814 1481 l 688 1481 l 488 1181 b 417 981 443 1114 417 1054 b 688 726 417 826 539 726 z m 688 824 b 525 981 589 824 525 892 b 688 1138 525 1068 589 1138 b 850 981 786 1138 850 1069 b 688 824 850 892 786 824 z "},"⑦":{"ha":0,"x_min":0,"x_max":0,"o":"m -243 822 l -221 822 l -221 910 l 896 910 l 896 1292 l 603 651 l 721 651 l 1025 1317 l 1025 1389 l 514 1389 z "},"⑧":{"ha":-219,"x_min":0,"x_max":0,"o":"m -1 188 b 51 389 -106 188 51 299 b 215 439 51 511 154 439 b 171 NaN 149 439 171 NaN b 285 NaN 226 NaN 285 NaN b 42 NaN 285 NaN 188 NaN b -201 NaN -103 NaN -201 NaN b -87 NaN -201 NaN -143 NaN b -228 NaN -154 NaN -228 NaN b 42 NaN -228 NaN -115 NaN z m 42 NaN b -96 NaN -37 NaN -96 NaN b 42 NaN -96 NaN -40 NaN b 179 NaN 125 NaN 179 NaN b 42 NaN 179 NaN 122 NaN z m 42 NaN b -119 NaN -57 NaN -119 NaN b 42 NaN -119 NaN -51 NaN b 208 NaN 115 NaN 208 NaN b 83 NaN 208 NaN 136 NaN z "},"⑨":{"ha":0,"x_min":0,"x_max":0,"o":"m 53 449 l 75 536 l 367 639 l 694 742 l 986 561 l 725 NaN l 850 NaN l 1051 NaN b 1122 NaN 1096 NaN 1122 NaN b 851 NaN 1122 NaN 1000 NaN b 581 NaN 703 NaN 581 NaN b 844 NaN 581 NaN 699 NaN b 906 NaN 868 NaN 889 NaN z m 851 NaN b 689 NaN 753 NaN 689 NaN b 851 NaN 689 NaN 753 NaN b 1014 NaN 950 NaN 1014 NaN b 851 NaN 1014 NaN 950 NaN z "},"⑩":{"ha":-219,"x_min":0,"x_max":0,"o":"m 178 196 b 386 418 251 196 386 294 b 757 567 386 665 633 567 b 488 344 622 567 488 468 b 117 331 488 97 240 196 z m -412 961 l -286 961 l -286 344 l -185 344 l -185 1053 l -412 1053 z m 117 425 b -14 701 43 425 -14 517 b 263 832 -14 775 171 832 b 411 797 336 832 411 889 b 135 481 411 613 226 556 z "},"⑪":{"ha":0,"x_min":0,"x_max":0,"o":"m -307 825 l -285 825 l -285 913 l 108 913 l 108 1010 l 343 1010 l 343 1107 l 638 1107 l 638 1246 l 22 1246 l 22 1347 l 731 1347 l 731 1107 z m 1063 1014 l 1201 1014 l 1201 399 l 1303 399 l 1303 1107 l 1063 1107 z "},"⑫":{"ha":-67,"x_min":0,"x_max":0,"o":"m 161 538 l 243 951 l 328 1153 l 417 1336 l 617 1424 l 790 1521 l 976 1618 l 1165 1715 l 942 1458 l 942 1389 l 1382 1389 l 1382 1482 l 1090 1482 l 1249 1663 b 1360 1897 1321 1744 1360 1821 b 1147 2115 1360 2029 1283 2115 b 933 1872 1011 2115 933 2008 l 1035 1872 b 1147 2021 1035 1953 1072 2021 b 1257 1897 1217 2021 1257 1974 b 1165 1715 1257 1853 1239 1797 z m 642 2004 l 761 2004 l 761 1389 l 863 1389 l 863 2096 l 642 2096 z "},"⑬":{"ha":-75,"x_min":0,"x_max":0,"o":"m 164 194 b 496 367 246 194 496 281 b 597 536 496 451 556 536 b 885 821 685 536 885 733 b 1076 1199 885 1003 981 1199 b 1224 1343 1128 1199 1224 1247 b 1438 1574 1224 1481 1317 1574 b 1492 1567 1526 1574 1469 1628 b 1592 1724 1543 1592 1592 1649 b 1372 1931 1592 1838 1507 1931 b 1153 1697 1239 1931 1153 1829 l 1254 1697 b 1372 1838 1254 1771 1292 1838 b 1490 1721 1451 1838 1490 1785 b 1368 1607 1490 1654 1443 1607 l 1304 1607 l 1304 1518 l 1368 1518 b 1508 1400 1458 1518 1508 1472 b 1379 1281 1508 1335 1464 1281 b 1249 1414 1293 1281 1251 1339 l 1149 1414 b 1379 1188 1153 1285 1238 1188 z m 850 1819 l 968 1819 l 968 1204 l 1069 1204 l 1069 1911 l 850 1911 z "},"⑭":{"ha":0,"x_min":0,"x_max":0,"o":"m -358 826 l -336 826 l -336 914 l -11 914 l -11 1010 l 343 1010 l 343 1104 l 590 1104 l 590 1225 l -26 1225 l -26 1326 l 682 1326 l 682 1104 z m 956 553 l 1253 553 l 1253 396 l 1353 396 l 1353 553 l 1461 553 l 1461 643 l 1353 643 l 1353 1104 l 1246 1104 l 956 638 z m 1253 936 l 1253 643 l 1069 643 z "},"⑮":{"ha":-219,"x_min":0,"x_max":0,"o":"m -357 825 l -274 825 l -274 1015 l -186 1015 l -186 1319 l -101 1319 l -101 1475 l -12 1475 l -12 1688 l 190 1688 l 190 1775 l 363 1775 l 363 1872 l 364 1872 l 364 1968 l 600 1968 l 600 2064 l 786 2064 l 786 2183 l 171 2183 l 171 2286 l 879 2286 l 879 2064 z m 1388 1339 b 1610 1583 1521 1339 1610 1442 b 1403 1822 1610 1726 1522 1822 b 1281 1771 1347 1822 1310 1797 l 1293 1971 l 1576 1971 l 1576 2064 l 1196 2064 l 1178 1649 l 1272 1649 b 1388 1732 1296 1693 1329 1732 b 1508 1583 1463 1732 1508 1669 b 1388 1432 1508 1496 1465 1432 b 1267 1564 1308 1432 1269 1490 l 1164 1564 b 1388 1339 1168 1436 1250 1339 z "},"½":{"ha":256,"x_min":0,"x_max":0,"o":"l 918 0 l 918 114 m 1703 -643 l 1611 353 l 1425 169 b 1450 381 1358 558 1450 322 b 1264 549 1450 482 1379 549 b 1074 349 1146 549 1074 460 l 1174 349 b 1264 457 1174 406 1207 457 b 1350 381 1315 457 1350 428 b 1267 251 1350 349 1326 311 z "},"⅓":{"ha":0,"x_min":0,"x_max":0,"o":"l 919 0 l 919 114 m 819 1110 l 924 1110 l 924 667 l 1028 667 l 1028 1203 l 819 1203 z m 1615 183 b 1807 346 1724 183 1807 251 b 1719 469 1807 410 1764 453 b 1793 585 1763 488 1793 535 b 1797 535 1829 585 1797 536 b 1700 453 1797 490 1760 453 b 1597 546 1636 453 1600 492 l 1506 546 b 1700 371 1507 444 1583 371 z "},"⅔":{"ha":354,"x_min":0,"x_max":0,"o":"l 1046 0 l 1046 115 m 989 900 l 804 717 b 829 929 738 1104 829 869 b 642 1097 829 1029 757 1097 b 453 897 525 1097 453 1007 l 553 897 b 642 1004 553 953 586 1004 b 729 928 694 1004 729 975 b 644 799 729 896 706 858 z m 1374 83 b 1564 246 1481 83 1564 151 b 1476 369 1564 310 1522 353 b 1551 485 1519 388 1551 435 b 1568 440 1643 485 1568 551 b 1535 396 1568 326 1499 396 b 1454 NaN 1503 396 1454 394 b 1358 NaN 1454 NaN 1418 NaN b 1256 NaN 1293 NaN 1257 NaN l 1163 NaN b 1358 NaN 1164 NaN 1240 NaN z "},"¼":{"ha":196,"x_min":0,"x_max":0,"o":"l 928 0 l 928 115 m 1439 -778 l 1336 -778 l 1336 218 l 1592 218 l 1592 104 l 1686 104 l 1686 218 l 1768 218 l 1768 304 l 1686 304 l 1686 640 l 1579 640 "},"¾":{"ha":251,"x_min":0,"x_max":0,"o":"l 1011 0 l 1011 115 m 1404 -211 l 1392 -211 l 1392 44 l 1278 44 l 1278 139 l 1392 139 l 1392 221 l 1478 221 l 1478 139 l 1814 139 l 1814 32 "},"⅛":{"ha":246,"x_min":0,"x_max":0,"o":"l 922 0 l 922 114 m 1685 -910 b 2597 -712 1601 -910 2597 -793 b 2639 -578 2597 -646 2690 -578 b 2642 NaN 2683 -578 2642 -560 b 2717 NaN 2678 NaN 2717 NaN b 2538 NaN 2717 NaN 2644 NaN b 2358 NaN 2429 NaN 2358 NaN b 2433 NaN 2358 NaN 2397 NaN b 2340 NaN 2390 NaN 2340 NaN b 2538 NaN 2340 NaN 2421 NaN z m 2538 NaN b 2503 NaN 2489 NaN 2451 NaN b 2589 NaN 2554 NaN 2589 NaN b 2503 NaN 2589 NaN 2551 NaN z m 2503 NaN b 2401 NaN 2442 NaN 2401 NaN b 2503 NaN 2401 NaN 2446 NaN b 2604 NaN 2560 NaN 2604 NaN b 2503 NaN 2604 NaN 2564 NaN z "},"⅜":{"ha":333,"x_min":0,"x_max":0,"o":"m 1007 1004 l 894 1004 l 894 1118 z m 1563 661 b 1683 808 1567 661 1683 742 b 1796 850 1683 901 1751 850 b 1772 NaN 1754 850 1772 NaN b 1849 NaN 1808 NaN 1849 NaN b 1668 NaN 1849 NaN 1776 NaN b 1489 NaN 1560 NaN 1489 NaN b 1564 NaN 1489 NaN 1529 NaN b 1471 NaN 1521 NaN 1471 NaN b 1668 NaN 1471 NaN 1551 NaN z m 1668 NaN b 1582 NaN 1619 NaN 1582 NaN b 1671 NaN 1582 NaN 1626 NaN b 1764 NaN 1707 NaN 1764 NaN b 1681 NaN 1764 NaN 1721 NaN b 1585 NaN 1646 NaN 1585 NaN z "},"⅝":{"ha":328,"x_min":0,"x_max":0,"o":"m 994 1004 l 882 1004 l 882 1118 z m 896 1651 b 1093 1842 1013 1651 1093 1735 b 908 2028 1093 1951 1014 2028 b 813 2001 867 2028 835 2017 l 819 2119 l 1067 2119 l 1067 2207 l 729 2207 l 714 1889 l 807 1889 b 897 1943 822 1918 853 1943 b 994 1842 956 1943 994 1897 b 896 1740 994 1785 956 1740 b 800 1824 842 1740 807 1774 l 706 1824 b 896 1651 714 1722 783 1651 z m 1561 1183 b 1757 1343 1676 1183 1757 1250 b 1665 1474 1757 1411 1707 1456 b 1740 1588 1700 1489 1740 1531 b 1561 1740 1740 1672 1668 1740 b 1381 1588 1453 1740 1381 1672 b 1457 1474 1381 1531 1421 1489 b 1363 1343 1414 1456 1363 1413 b 1561 1183 1363 1250 1444 1183 z m 1561 1513 b 1475 1411 1511 1513 1475 1451 b 1563 1489 1475 1446 1519 1489 b 1657 1589 1599 1489 1657 1546 b 1575 1508 1657 1553 1614 1508 b 1479 NaN 1540 1508 1479 NaN z "},"⅞":{"ha":279,"x_min":0,"x_max":0,"o":"l 946 0 l 946 114 m 835 1092 l 1093 649 l 1200 649 l 1415 1118 l 1415 1182 l 1039 1182 z m 1836 179 b 2032 339 1951 179 2032 246 b 1940 469 2032 407 1982 451 b 2015 583 1975 485 2015 526 b 1836 736 2015 668 1943 736 b 1656 583 1728 736 1656 668 b 1732 469 1656 526 1696 485 b 1638 339 1689 451 1638 408 b 1836 179 1638 246 1719 179 z m 1836 508 b 1831 596 1796 508 1831 553 b NaN 697 1831 639 1867 697 b NaN 610 NaN 697 NaN 654 b NaN 510 NaN 571 NaN 510 z "},"æ":{"ha":301,"x_min":0,"x_max":0,"o":"m 276 -49 b 543 68 397 -49 478 -4 b 829 -49 601 -7 699 -49 b 1088 24 956 -49 1042 -10 l 1088 126 b 856 71 1021 94 954 71 b 615 306 708 71 624 131 l 1113 306 l 1113 372 b 801 733 1113 610 1014 733 b 567 619 704 733 622 694 b 342 733 533 696 457 733 b 104 690 250 733 174 718 l 104 589 b 286 610 150 599 213 610 b 467 474 418 610 467 585 l 467 407 l 276 385 b 42 165 131 365 42 300 b 276 -49 42 19 139 -49 z m 796 618 b 963 410 906 618 963 560 l 617 410 b 796 618 628 576 718 618 z m 499 142 b 314 58 447 89 385 58 b 190 171 239 58 190 94 b 310 293 190 250 229 283 l 467 310 b 499 142 468 247 479 190 z "},"đ":{"ha":-51,"x_min":0,"x_max":0,"o":"m 569 917 l 358 917 l 358 824 l 569 824 l 569 688 b 382 733 533 708 474 733 b 47 338 189 733 47 614 l 47 318 b 356 -49 47 43 208 -49 b 571 25 454 -49 526 -19 l 578 25 l 592 -35 l 715 -35 l 715 824 l 807 824 l 807 917 l 715 917 l 715 1043 l 569 1043 z m 406 67 b 197 324 282 67 197 126 l 197 354 b 404 613 197 547 275 613 b 569 571 475 613 540 596 l 569 122 b 406 67 539 99 483 67 z "},"ð":{"ha":-67,"x_min":0,"x_max":0,"o":"m 328 918 l 163 853 l 194 774 l 396 853 b 514 697 443 804 483 753 l 503 697 b 379 731 471 717 431 731 b 43 350 181 731 43 589 l 43 325 b 389 -49 43 90 167 -49 b 739 357 599 -49 739 86 l 739 399 b 529 906 739 628 640 793 l 631 946 l 599 1025 l 458 969 b 353 1043 424 999 386 1024 l 165 1043 b 328 918 225 1000 281 958 z m 588 385 l 588 347 b 393 65 588 153 515 65 b 193 324 281 65 193 124 l 193 364 b 400 615 193 529 265 615 b 565 571 474 615 526 596 b 588 385 581 515 588 454 z "},"ħ":{"ha":-65,"x_min":0,"x_max":0,"o":"m -3 824 b -771 961 88 824 -771 936 b NaN NaN -771 928 -854 NaN l NaN NaN l NaN NaN l NaN NaN b NaN NaN NaN NaN NaN NaN b NaN NaN NaN NaN NaN NaN l NaN NaN l NaN NaN l NaN NaN l NaN NaN l NaN NaN l NaN NaN l NaN NaN l NaN NaN l NaN NaN z "},"ı":{"ha":-499,"x_min":0,"x_max":0,"o":"m 100 678 l 100 -29 l 253 -29 l 253 678 z "},"ĳ":{"ha":-193,"x_min":0,"x_max":0,"o":"m 164 1033 z m 496 1033 z m 238 676 l 92 676 l 92 -76 l 238 -76 z m 351 -275 b 568 -60 504 -275 568 -185 l 568 676 l 424 676 l 424 -50 b 310 -160 424 -126 381 -160 b 233 -150 286 -160 258 -156 l 233 -250 b 351 -275 263 -267 297 -275 z "},"ĸ":{"ha":-144,"x_min":0,"x_max":0,"o":"m 233 718 l 88 718 l 88 -35 l 233 -35 z m 524 718 l 256 354 l 536 -35 l 700 -35 l 413 364 l 679 718 z "},"ŀ":{"ha":-424,"x_min":0,"x_max":0,"o":"m 238 1043 l 92 1043 l 92 -35 l 238 -35 z m 450 553 l 308 553 l 308 411 l 450 411 z "},"ł":{"ha":-483,"x_min":0,"x_max":0,"o":"m 111 567 l 11 511 l 11 385 l 111 442 l 111 -35 l 257 -35 l 257 521 l 371 586 l 371 714 l 257 649 l 257 1043 l 111 1043 z "},"ø":{"ha":-68,"x_min":0,"x_max":0,"o":"m 393 -49 b 742 333 599 -49 742 93 l 742 354 b 675 603 742 457 718 540 l 774 718 l 653 718 l 611 668 b 394 733 553 708 481 733 b 43 350 185 733 43 590 l 43 325 b 104 89 43 228 64 149 l -1 -35 l 119 -35 l 165 19 b 393 -49 224 -25 299 -49 z m 192 322 l 192 364 b 392 619 192 529 264 619 b 528 575 446 619 493 606 l 204 201 b 192 322 196 236 192 274 z m 396 63 b 247 113 332 63 283 76 l 576 490 b 592 360 586 456 592 411 l 592 318 b 396 63 592 151 519 63 z "},"œ":{"ha":429,"x_min":0,"x_max":0,"o":"m 392 -49 b 665 97 517 -49 611 3 b 960 -49 718 4 813 -49 b 1215 24 1083 -49 1168 -10 l 1215 126 b 982 71 1149 94 1082 71 b 742 303 835 71 751 129 l 1238 303 l 1238 372 b 929 733 1238 610 1142 733 b 668 589 818 733 724 686 b 393 733 618 681 525 733 b 43 350 185 733 43 590 l 43 325 b 392 -49 43 90 171 -49 z m 924 618 b 1088 407 1032 618 1088 560 l 742 407 b 924 618 753 576 843 618 z m 396 65 b 193 324 283 65 193 124 l 193 364 b 392 617 193 529 265 617 b 590 358 501 617 590 557 l 590 318 b 396 65 590 153 518 65 z "},"ß":{"ha":-24,"x_min":0,"x_max":0,"o":"m 538 -49 b 793 168 692 -49 793 26 b 646 376 793 268 742 325 l 574 415 b 494 517 519 446 494 469 b 704 842 494 601 704 678 b 417 1056 704 981 599 1056 b 88 758 250 1056 88 968 l 88 -35 l 233 -35 l 233 746 b 415 943 233 881 306 943 b 561 831 504 943 561 904 b 357 496 561 722 357 644 b 497 301 357 400 403 351 l 563 267 b 650 160 625 232 650 204 b 517 67 650 104 604 67 b 343 101 444 67 403 81 l 343 -12 b 538 -49 401 -39 453 -49 z "}}}
